%TF.GenerationSoftware,KiCad,Pcbnew,10.0.0*%
%TF.CreationDate,2026-04-15T17:32:45+05:30*%
%TF.ProjectId,ESP32_Smart_Motor_Project,45535033-325f-4536-9d61-72745f4d6f74,rev?*%
%TF.SameCoordinates,Original*%
%TF.FileFunction,Copper,L1,Top*%
%TF.FilePolarity,Positive*%
%FSLAX46Y46*%
G04 Gerber Fmt 4.6, Leading zero omitted, Abs format (unit mm)*
G04 Created by KiCad (PCBNEW 10.0.0) date 2026-04-15 17:32:45*
%MOMM*%
%LPD*%
G01*
G04 APERTURE LIST*
%TA.AperFunction,ComponentPad*%
%ADD10C,1.700000*%
%TD*%
%TA.AperFunction,ComponentPad*%
%ADD11C,1.600000*%
%TD*%
%TA.AperFunction,ComponentPad*%
%ADD12R,2.000000X1.905000*%
%TD*%
%TA.AperFunction,ComponentPad*%
%ADD13O,2.000000X1.905000*%
%TD*%
%TA.AperFunction,ComponentPad*%
%ADD14R,1.700000X1.700000*%
%TD*%
%TA.AperFunction,ComponentPad*%
%ADD15R,2.000000X2.000000*%
%TD*%
%TA.AperFunction,ComponentPad*%
%ADD16C,2.000000*%
%TD*%
%TA.AperFunction,ViaPad*%
%ADD17C,2.000000*%
%TD*%
%TA.AperFunction,Conductor*%
%ADD18C,1.000000*%
%TD*%
%TA.AperFunction,Conductor*%
%ADD19C,0.500000*%
%TD*%
G04 APERTURE END LIST*
D10*
%TO.P,T1,1,3V3_1*%
%TO.N,/3V3*%
X127935000Y-134105000D03*
%TO.P,T1,2,SIG_2*%
%TO.N,/GPIO4*%
X125395000Y-134105000D03*
%TO.P,T1,3,GND_3*%
%TO.N,/GND*%
X122855000Y-134105000D03*
%TD*%
%TO.P,R5,1,GND_1*%
%TO.N,/GND*%
X175385000Y-35980000D03*
%TO.P,R5,2,5V_2*%
%TO.N,/5V*%
X172845000Y-35980000D03*
%TO.P,R5,3,SIG_3*%
%TO.N,Net-(L1-HV)*%
X170305000Y-35980000D03*
%TD*%
D11*
%TO.P,R4,1*%
%TO.N,Net-(Q1-G)*%
X165045000Y-121580000D03*
%TO.P,R4,2*%
%TO.N,/GND*%
X157425000Y-121580000D03*
%TD*%
%TO.P,R3,1*%
%TO.N,Net-(Q1-G)*%
X165045000Y-125630000D03*
%TO.P,R3,2*%
%TO.N,/HV1*%
X157425000Y-125630000D03*
%TD*%
%TO.P,R2,1*%
%TO.N,/3V3*%
X129655000Y-140980000D03*
%TO.P,R2,2*%
%TO.N,/GPIO4*%
X122035000Y-140980000D03*
%TD*%
D12*
%TO.P,Q1,1,G_1*%
%TO.N,Net-(Q1-G)*%
X170895000Y-125940000D03*
D13*
%TO.P,Q1,2,D_2*%
%TO.N,/GND*%
X170895000Y-128480000D03*
%TO.P,Q1,3,S_3*%
%TO.N,Net-(B1-GND)*%
X170895000Y-131020000D03*
%TD*%
D10*
%TO.P,P2,1,5V_1*%
%TO.N,/5V*%
X61805000Y-75980000D03*
%TO.P,P2,2,3V3_2*%
%TO.N,/3V3*%
X64345000Y-75980000D03*
%TO.P,P2,3,GND_3*%
%TO.N,/GND*%
X66885000Y-75980000D03*
%TD*%
D14*
%TO.P,P1,1,5V_1*%
%TO.N,/5V*%
X139585000Y-119980000D03*
D10*
%TO.P,P1,2,RX_2*%
%TO.N,Net-(L1-LV2)*%
X137045000Y-119980000D03*
%TO.P,P1,3,TX_3*%
%TO.N,Net-(L1-HV4)*%
X134505000Y-119980000D03*
%TO.P,P1,4,GND_4*%
%TO.N,/GND*%
X131965000Y-119980000D03*
%TD*%
D14*
%TO.P,M3,1,GND_1*%
%TO.N,/GND*%
X114845000Y-101080000D03*
D10*
%TO.P,M3,2,GPIO23_2*%
%TO.N,/GPIO23*%
X114845000Y-103620000D03*
%TO.P,M3,3,GPIO22_3*%
%TO.N,/GPIO22*%
X114845000Y-106160000D03*
%TO.P,M3,4,GPIO1_4*%
%TO.N,unconnected-(M3-GPIO1-Pad4)*%
X114845000Y-108700000D03*
%TO.P,M3,5,GPIO3_5*%
%TO.N,unconnected-(M3-GPIO3-Pad5)*%
X114845000Y-111240000D03*
%TO.P,M3,6,GPIO21_6*%
%TO.N,/GPIO21*%
X114845000Y-113780000D03*
%TO.P,M3,7,GND_7*%
%TO.N,/GND*%
X114845000Y-116320000D03*
%TO.P,M3,8,GPIO19_8*%
%TO.N,unconnected-(M3-GPIO19-Pad8)*%
X114845000Y-118860000D03*
%TO.P,M3,9,GPIO18_9*%
%TO.N,/GPIO18*%
X114845000Y-121400000D03*
%TO.P,M3,10,GPIO5_10*%
%TO.N,/GPIO5*%
X114845000Y-123940000D03*
%TO.P,M3,11,GPIO17_11*%
%TO.N,/GPIO17*%
X114845000Y-126480000D03*
%TO.P,M3,12,GPIO16_12*%
%TO.N,/GPIO16*%
X114845000Y-129020000D03*
%TO.P,M3,13,GPIO4_13*%
%TO.N,/GPIO4*%
X114845000Y-131560000D03*
%TO.P,M3,14,GPIO0_14*%
%TO.N,unconnected-(M3-GPIO0-Pad14)*%
X114845000Y-134100000D03*
%TO.P,M3,15,GPIO2_15*%
%TO.N,unconnected-(M3-GPIO2-Pad15)*%
X114845000Y-136640000D03*
%TO.P,M3,16,GPIO15_16*%
%TO.N,unconnected-(M3-GPIO15-Pad16)*%
X114845000Y-139180000D03*
%TO.P,M3,17,GPIO8_17*%
%TO.N,unconnected-(M3-GPIO8-Pad17)*%
X114845000Y-141720000D03*
%TO.P,M3,18,GPIO7_18*%
%TO.N,unconnected-(M3-GPIO7-Pad18)*%
X114845000Y-144260000D03*
%TO.P,M3,19,GPIO6_19*%
%TO.N,unconnected-(M3-GPIO6-Pad19)*%
X114845000Y-146800000D03*
D14*
%TO.P,M3,20,3.3V_20*%
%TO.N,/3V3*%
X89015000Y-101085000D03*
D10*
%TO.P,M3,21,EN_21*%
%TO.N,unconnected-(M3-EN-Pad21)*%
X89015000Y-103625000D03*
%TO.P,M3,22,GPIO36_22*%
%TO.N,unconnected-(M3-GPIO36-Pad22)*%
X89015000Y-106165000D03*
%TO.P,M3,23,GPIO39_23*%
%TO.N,unconnected-(M3-GPIO39-Pad23)*%
X89015000Y-108705000D03*
%TO.P,M3,24,GPIO34_24*%
%TO.N,unconnected-(M3-GPIO34-Pad24)*%
X89015000Y-111245000D03*
%TO.P,M3,25,GPIO35_25*%
%TO.N,unconnected-(M3-GPIO35-Pad25)*%
X89015000Y-113785000D03*
%TO.P,M3,26,GPIO32_26*%
%TO.N,/GPIO32*%
X89015000Y-116325000D03*
%TO.P,M3,27,GPIO33_27*%
%TO.N,/GPIO33*%
X89015000Y-118865000D03*
%TO.P,M3,28,GPIO25_28*%
%TO.N,/GPIO25*%
X89015000Y-121405000D03*
%TO.P,M3,29,GPIO26_29*%
%TO.N,/GPIO26*%
X89015000Y-123945000D03*
%TO.P,M3,30,GPIO27_30*%
%TO.N,/GPIO27*%
X89015000Y-126485000D03*
%TO.P,M3,31,GPIO14_31*%
%TO.N,unconnected-(M3-GPIO14-Pad31)*%
X89015000Y-129025000D03*
%TO.P,M3,32,GPIO12_32*%
%TO.N,unconnected-(M3-GPIO12-Pad32)*%
X89015000Y-131565000D03*
%TO.P,M3,33,GND_33*%
%TO.N,/GND*%
X89015000Y-134105000D03*
%TO.P,M3,34,GPIO13_34*%
%TO.N,unconnected-(M3-GPIO13-Pad34)*%
X89015000Y-136645000D03*
%TO.P,M3,35,GPIO9_35*%
%TO.N,unconnected-(M3-GPIO9-Pad35)*%
X89015000Y-139185000D03*
%TO.P,M3,36,GPIO10_36*%
%TO.N,unconnected-(M3-GPIO10-Pad36)*%
X89015000Y-141725000D03*
%TO.P,M3,37,GPIO11_37*%
%TO.N,unconnected-(M3-GPIO11-Pad37)*%
X89015000Y-144265000D03*
%TO.P,M3,38,5V_38*%
%TO.N,unconnected-(M3-5V-Pad38)*%
X89015000Y-146805000D03*
%TD*%
D14*
%TO.P,L1,1,HV1_1*%
%TO.N,/HV1*%
X157500000Y-102500000D03*
D10*
%TO.P,L1,2,HV2_2*%
%TO.N,Net-(L1-HV)*%
X160040000Y-102500000D03*
%TO.P,L1,3,HV_3*%
%TO.N,/5V*%
X162580000Y-102500000D03*
%TO.P,L1,4,GND_4*%
%TO.N,/GND*%
X165120000Y-102500000D03*
%TO.P,L1,5,HV3_5*%
%TO.N,Net-(L1-HV4)*%
X167660000Y-102500000D03*
%TO.P,L1,6,HV4_6*%
%TO.N,Net-(L1-LV2)*%
X170200000Y-102500000D03*
D14*
%TO.P,L1,7,LV1_7*%
%TO.N,/GPIO27*%
X157500000Y-113750000D03*
D10*
%TO.P,L1,8,LV2_8*%
%TO.N,/GPIO26*%
X160040000Y-113750000D03*
%TO.P,L1,9,LV_9*%
%TO.N,/3V3*%
X162580000Y-113750000D03*
%TO.P,L1,10,GND_10*%
%TO.N,/GND*%
X165120000Y-113750000D03*
%TO.P,L1,11,LV3_11*%
%TO.N,/GPIO16*%
X167660000Y-113750000D03*
%TO.P,L1,12,LV4_12*%
%TO.N,/GPIO17*%
X170200000Y-113750000D03*
%TD*%
%TO.P,H1,1,3V3_1*%
%TO.N,/3V3*%
X139805000Y-138980000D03*
%TO.P,H1,2,GND_2*%
%TO.N,/GND*%
X142345000Y-138980000D03*
%TO.P,H1,3,DO_3*%
%TO.N,/GPIO5*%
X144885000Y-138980000D03*
%TD*%
%TO.P,D1,8,3.3V_8*%
%TO.N,/3V3*%
X53565000Y-148980000D03*
%TO.P,D1,7,GND_7*%
%TO.N,/GND*%
X56105000Y-148980000D03*
%TO.P,D1,6,CS_6*%
%TO.N,/GPIO25*%
X58645000Y-148980000D03*
%TO.P,D1,5,RESET_5*%
%TO.N,/GPIO32*%
X61185000Y-148980000D03*
%TO.P,D1,4,AO_4*%
%TO.N,/GPIO33*%
X63725000Y-148980000D03*
%TO.P,D1,3,SDA_3*%
%TO.N,/GPIO23*%
X66265000Y-148980000D03*
%TO.P,D1,2,SCK_2*%
%TO.N,/GPIO18*%
X68805000Y-148980000D03*
D14*
%TO.P,D1,1,LED_1*%
%TO.N,/GPIO27*%
X71345000Y-148980000D03*
%TD*%
D15*
%TO.P,B1,1,SIG_1*%
%TO.N,/5V*%
X155500000Y-139000000D03*
D16*
%TO.P,B1,2,GND_2*%
%TO.N,Net-(B1-GND)*%
X163100000Y-139000000D03*
%TD*%
D14*
%TO.P,A1,1,5V_1*%
%TO.N,unconnected-(A1-5V-Pad1)*%
X97225000Y-56930000D03*
D10*
%TO.P,A1,2,3V3_2*%
%TO.N,/3V3*%
X99765000Y-56930000D03*
%TO.P,A1,3,GND_3*%
%TO.N,/GND*%
X102305000Y-56930000D03*
%TO.P,A1,4,VS_4*%
%TO.N,unconnected-(A1-VS-Pad4)*%
X104845000Y-56930000D03*
%TO.P,A1,5,CS_5*%
%TO.N,/3V3*%
X107385000Y-56930000D03*
D14*
%TO.P,A1,6,SCL_6*%
%TO.N,/GPIO22*%
X97225000Y-82480000D03*
D10*
%TO.P,A1,7,SDA_7*%
%TO.N,/GPIO21*%
X99765000Y-82480000D03*
%TO.P,A1,8,SDO_8*%
%TO.N,/GND*%
X102305000Y-82480000D03*
%TO.P,A1,9,IN2_9*%
%TO.N,unconnected-(A1-IN2-Pad9)*%
X104845000Y-82480000D03*
%TO.P,A1,10,IN1_10*%
%TO.N,unconnected-(A1-IN1-Pad10)*%
X107385000Y-82480000D03*
%TD*%
D17*
%TO.N,/GND*%
X107500000Y-88000000D03*
X102000000Y-93500000D03*
X120500000Y-120500000D03*
X132000000Y-137000000D03*
X120000000Y-137000000D03*
X125500000Y-116000000D03*
X62000000Y-142500000D03*
X61500000Y-134000000D03*
X171500000Y-107000000D03*
%TO.N,/GPIO26*%
X95500000Y-123500000D03*
X146000000Y-118000000D03*
%TO.N,/GPIO27*%
X101500000Y-111500000D03*
X146000000Y-115500000D03*
%TO.N,/3V3*%
X154000000Y-131000000D03*
X154000000Y-123500000D03*
%TO.N,/HV1*%
X149000000Y-122000000D03*
X148500000Y-103000000D03*
%TO.N,/GPIO5*%
X132000000Y-131500000D03*
X124605000Y-124000000D03*
%TO.N,/GPIO25*%
X85500000Y-123000000D03*
X79000000Y-123000000D03*
%TO.N,/GPIO23*%
X109000000Y-103000000D03*
X109000000Y-123500000D03*
%TD*%
%TO.N,/3V3*%
D18*
X89015000Y-96015000D02*
X89015000Y-101085000D01*
X88000000Y-95000000D02*
X89015000Y-96015000D01*
X72000000Y-95000000D02*
X88000000Y-95000000D01*
X64345000Y-75980000D02*
X64345000Y-87345000D01*
X64345000Y-87345000D02*
X72000000Y-95000000D01*
X70000000Y-60000000D02*
X98500000Y-60000000D01*
X98500000Y-60000000D02*
X99765000Y-58735000D01*
X99765000Y-58735000D02*
X99765000Y-56930000D01*
X64345000Y-75980000D02*
X64345000Y-65655000D01*
X64345000Y-65655000D02*
X70000000Y-60000000D01*
%TO.N,/GND*%
X102500000Y-82675000D02*
X102305000Y-82480000D01*
X102500000Y-85000000D02*
X102500000Y-82675000D01*
X105500000Y-88000000D02*
X102500000Y-85000000D01*
X107500000Y-88000000D02*
X105500000Y-88000000D01*
X109580000Y-101080000D02*
X102000000Y-93500000D01*
X114845000Y-101080000D02*
X109580000Y-101080000D01*
X121000000Y-120500000D02*
X125500000Y-116000000D01*
X120500000Y-120500000D02*
X121000000Y-120500000D01*
%TO.N,/GPIO5*%
X124545000Y-123940000D02*
X124605000Y-124000000D01*
%TO.N,/GPIO4*%
X126245000Y-133255000D02*
X125395000Y-134105000D01*
X126245000Y-132609789D02*
X126245000Y-133255000D01*
X124345211Y-130710000D02*
X126245000Y-132609789D01*
X115695000Y-130710000D02*
X124345211Y-130710000D01*
X114845000Y-131560000D02*
X115695000Y-130710000D01*
%TO.N,/GPIO5*%
X114845000Y-123940000D02*
X124545000Y-123940000D01*
%TO.N,/GND*%
X120000000Y-136960000D02*
X122855000Y-134105000D01*
X140365000Y-137000000D02*
X132000000Y-137000000D01*
X142345000Y-138980000D02*
X140365000Y-137000000D01*
X120000000Y-137000000D02*
X120000000Y-136960000D01*
%TO.N,/GPIO5*%
X140500000Y-131500000D02*
X132000000Y-131500000D01*
X144885000Y-135885000D02*
X140500000Y-131500000D01*
X144885000Y-138980000D02*
X144885000Y-135885000D01*
%TO.N,/GND*%
X125180000Y-116320000D02*
X114845000Y-116320000D01*
X125500000Y-116000000D02*
X125180000Y-116320000D01*
%TO.N,/5V*%
X141435000Y-119980000D02*
X139585000Y-119980000D01*
X142500000Y-121045000D02*
X141435000Y-119980000D01*
X131500000Y-125500000D02*
X140500000Y-125500000D01*
X140500000Y-125500000D02*
X142500000Y-123500000D01*
X128466616Y-122466616D02*
X131500000Y-125500000D01*
X128466616Y-118033384D02*
X128466616Y-122466616D01*
X140500000Y-106000000D02*
X128466616Y-118033384D01*
X142500000Y-123500000D02*
X142500000Y-121045000D01*
X159080000Y-106000000D02*
X140500000Y-106000000D01*
X162580000Y-102500000D02*
X159080000Y-106000000D01*
%TO.N,/GND*%
X56105000Y-148395000D02*
X62000000Y-142500000D01*
%TO.N,/3V3*%
X83915000Y-101085000D02*
X89015000Y-101085000D01*
%TO.N,/GND*%
X56105000Y-148980000D02*
X56105000Y-148395000D01*
%TO.N,/3V3*%
X77000000Y-108000000D02*
X83915000Y-101085000D01*
X71500000Y-139000000D02*
X77000000Y-133500000D01*
X62342919Y-139000000D02*
X71500000Y-139000000D01*
X77000000Y-133500000D02*
X77000000Y-108000000D01*
X53565000Y-147777919D02*
X62342919Y-139000000D01*
X53565000Y-148980000D02*
X53565000Y-147777919D01*
%TO.N,/GPIO17*%
X115695000Y-127330000D02*
X114845000Y-126480000D01*
X141670000Y-127330000D02*
X115695000Y-127330000D01*
X144800000Y-124200000D02*
X141670000Y-127330000D01*
X143750000Y-118200000D02*
X144800000Y-119250000D01*
X143750000Y-115275126D02*
X143750000Y-118200000D01*
X163000000Y-112000000D02*
X147025126Y-112000000D01*
X164364790Y-110635210D02*
X163000000Y-112000000D01*
X147025126Y-112000000D02*
X143750000Y-115275126D01*
X167085210Y-110635210D02*
X164364790Y-110635210D01*
X144800000Y-119250000D02*
X144800000Y-124200000D01*
X170200000Y-113750000D02*
X167085210Y-110635210D01*
%TO.N,/3V3*%
X119000000Y-154500000D02*
X59085000Y-154500000D01*
X129655000Y-143845000D02*
X119000000Y-154500000D01*
X129655000Y-140980000D02*
X129655000Y-143845000D01*
X59085000Y-154500000D02*
X53565000Y-148980000D01*
%TO.N,/GPIO26*%
X89015000Y-123945000D02*
X95055000Y-123945000D01*
X95055000Y-123945000D02*
X95500000Y-123500000D01*
%TO.N,/GPIO27*%
X96015000Y-126485000D02*
X89015000Y-126485000D01*
X101500000Y-121000000D02*
X96015000Y-126485000D01*
X101500000Y-111500000D02*
X101500000Y-121000000D01*
%TO.N,/GPIO26*%
X156350000Y-118000000D02*
X146000000Y-118000000D01*
X160040000Y-114310000D02*
X156350000Y-118000000D01*
X160040000Y-113750000D02*
X160040000Y-114310000D01*
%TO.N,/GPIO27*%
X155750000Y-115500000D02*
X146000000Y-115500000D01*
X157500000Y-113750000D02*
X155750000Y-115500000D01*
%TO.N,/5V*%
X165000000Y-100080000D02*
X162580000Y-102500000D01*
X165000000Y-95500000D02*
X165000000Y-100080000D01*
X174000000Y-94000000D02*
X166500000Y-94000000D01*
X176500000Y-96500000D02*
X174000000Y-94000000D01*
X172500000Y-143000000D02*
X176500000Y-139000000D01*
X156000000Y-139000000D02*
X160000000Y-143000000D01*
X160000000Y-143000000D02*
X172500000Y-143000000D01*
X176500000Y-139000000D02*
X176500000Y-96500000D01*
X155500000Y-139000000D02*
X156000000Y-139000000D01*
X166500000Y-94000000D02*
X165000000Y-95500000D01*
%TO.N,/3V3*%
X139805000Y-141305000D02*
X139805000Y-138980000D01*
X141500000Y-143000000D02*
X139805000Y-141305000D01*
X147500000Y-143000000D02*
X141500000Y-143000000D01*
X154000000Y-136500000D02*
X147500000Y-143000000D01*
X154000000Y-131000000D02*
X154000000Y-136500000D01*
X154000000Y-122330000D02*
X154000000Y-123500000D01*
X162580000Y-113750000D02*
X154000000Y-122330000D01*
%TO.N,/HV1*%
X157500000Y-102000000D02*
X156000000Y-100500000D01*
X157500000Y-102500000D02*
X157500000Y-102000000D01*
X151000000Y-100500000D02*
X156000000Y-100500000D01*
X148500000Y-103000000D02*
X151000000Y-100500000D01*
X152630000Y-125630000D02*
X149000000Y-122000000D01*
X157425000Y-125630000D02*
X152630000Y-125630000D01*
%TO.N,/GND*%
X157425000Y-121445000D02*
X157425000Y-121580000D01*
%TO.N,/GPIO16*%
X157020000Y-129020000D02*
X114845000Y-129020000D01*
X157000000Y-129000000D02*
X157020000Y-129020000D01*
X161500000Y-119910000D02*
X161500000Y-124500000D01*
X161500000Y-124500000D02*
X157000000Y-129000000D01*
X167660000Y-113750000D02*
X161500000Y-119910000D01*
%TO.N,/GND*%
X131965000Y-117535000D02*
X131965000Y-119980000D01*
X142000000Y-107500000D02*
X131965000Y-117535000D01*
X160120000Y-107500000D02*
X142000000Y-107500000D01*
X165120000Y-102500000D02*
X160120000Y-107500000D01*
%TO.N,Net-(L1-HV4)*%
X134505000Y-117995000D02*
X134505000Y-119980000D01*
X143500000Y-109000000D02*
X134505000Y-117995000D01*
X161160000Y-109000000D02*
X143500000Y-109000000D01*
X167660000Y-102500000D02*
X161160000Y-109000000D01*
%TO.N,Net-(L1-LV2)*%
X137045000Y-118777919D02*
X137045000Y-119980000D01*
X145322919Y-110500000D02*
X137045000Y-118777919D01*
X170200000Y-102500000D02*
X162200000Y-110500000D01*
X162200000Y-110500000D02*
X145322919Y-110500000D01*
%TO.N,/5V*%
X172845000Y-32845000D02*
X172845000Y-35980000D01*
X172000000Y-32000000D02*
X172845000Y-32845000D01*
X74500000Y-32000000D02*
X172000000Y-32000000D01*
X61805000Y-44695000D02*
X74500000Y-32000000D01*
X61805000Y-75980000D02*
X61805000Y-44695000D01*
%TO.N,/GPIO25*%
X87420000Y-123000000D02*
X89015000Y-121405000D01*
X85500000Y-123000000D02*
X87420000Y-123000000D01*
X79000000Y-134000000D02*
X79000000Y-123000000D01*
X72000000Y-141000000D02*
X79000000Y-134000000D01*
X58645000Y-148980000D02*
X66500000Y-141125000D01*
X66500000Y-141000000D02*
X72000000Y-141000000D01*
X66500000Y-141125000D02*
X66500000Y-141000000D01*
%TO.N,/GPIO32*%
X85175000Y-116325000D02*
X89015000Y-116325000D01*
X81000000Y-120500000D02*
X85175000Y-116325000D01*
X73000000Y-143000000D02*
X81000000Y-135000000D01*
X67000000Y-143000000D02*
X73000000Y-143000000D01*
X61185000Y-148815000D02*
X67000000Y-143000000D01*
X81000000Y-135000000D02*
X81000000Y-120500000D01*
X61185000Y-148980000D02*
X61185000Y-148815000D01*
%TO.N,/GPIO33*%
X88880000Y-119000000D02*
X89015000Y-118865000D01*
X82500000Y-122500000D02*
X86000000Y-119000000D01*
X82500000Y-136000000D02*
X82500000Y-122500000D01*
X67205000Y-145500000D02*
X73000000Y-145500000D01*
X86000000Y-119000000D02*
X88880000Y-119000000D01*
X63725000Y-148980000D02*
X67205000Y-145500000D01*
X73000000Y-145500000D02*
X82500000Y-136000000D01*
%TO.N,/GPIO4*%
X125395000Y-137620000D02*
X122035000Y-140980000D01*
X125395000Y-134105000D02*
X125395000Y-137620000D01*
%TO.N,/3V3*%
X137805000Y-140980000D02*
X129655000Y-140980000D01*
X139805000Y-138980000D02*
X137805000Y-140980000D01*
X127935000Y-139260000D02*
X129655000Y-140980000D01*
X127935000Y-134105000D02*
X127935000Y-139260000D01*
%TO.N,/GPIO18*%
X90270000Y-150030000D02*
X90270000Y-150530000D01*
X90970000Y-149530000D02*
X90770000Y-149530000D01*
X69795000Y-150530000D02*
X68805000Y-149540000D01*
X90770000Y-149530000D02*
G75*
G03*
X90270000Y-150030000I0J-500000D01*
G01*
X84496002Y-150530000D02*
X69795000Y-150530000D01*
X86170000Y-150530000D02*
X85970000Y-150530000D01*
X87870000Y-150030000D02*
X87870000Y-150530000D01*
X68805000Y-149540000D02*
X68805000Y-148980000D01*
X88570000Y-149530000D02*
X88370000Y-149530000D01*
X89070000Y-150530000D02*
X89070000Y-150030000D01*
X90270000Y-150530000D02*
X90270000Y-151030000D01*
X86670000Y-151030000D02*
G75*
G03*
X86170000Y-150530000I-500000J0D01*
G01*
X87170000Y-151530000D02*
G75*
G02*
X86670000Y-151030000I0J500000D01*
G01*
X91970000Y-150530000D02*
G75*
G02*
X91470000Y-150030000I0J500000D01*
G01*
X89070000Y-150030000D02*
G75*
G03*
X88570000Y-149530000I-500000J0D01*
G01*
X89770000Y-151530000D02*
X89570000Y-151530000D01*
X89570000Y-151530000D02*
G75*
G02*
X89070000Y-151030000I0J500000D01*
G01*
X89070000Y-151030000D02*
X89070000Y-150530000D01*
X92383867Y-150116133D02*
X91970000Y-150530000D01*
X87870000Y-151030000D02*
G75*
G02*
X87370000Y-151530000I-500000J0D01*
G01*
X90270000Y-151030000D02*
G75*
G02*
X89770000Y-151530000I-500000J0D01*
G01*
X85970000Y-150530000D02*
X84496002Y-150530000D01*
X87870000Y-150530000D02*
X87870000Y-151030000D01*
X87370000Y-151530000D02*
X87170000Y-151530000D01*
X88370000Y-149530000D02*
G75*
G03*
X87870000Y-150030000I0J-500000D01*
G01*
X91470000Y-150030000D02*
G75*
G03*
X90970000Y-149530000I-500000J0D01*
G01*
X106000000Y-127043254D02*
G75*
G03*
X106500000Y-127543300I500000J-46D01*
G01*
X102204115Y-140295885D02*
X101840403Y-140659597D01*
X106500000Y-127543254D02*
G75*
G02*
X107000046Y-128043254I0J-500046D01*
G01*
X105000000Y-131843254D02*
G75*
G03*
X105500000Y-132343300I500000J-46D01*
G01*
X106500000Y-129943254D02*
G75*
G02*
X107000046Y-130443254I0J-500046D01*
G01*
X105500000Y-131143254D02*
G75*
G03*
X104999954Y-131643254I0J-500046D01*
G01*
X105500000Y-128743254D02*
G75*
G03*
X104999954Y-129243254I0J-500046D01*
G01*
X107000000Y-128243254D02*
G75*
G02*
X106500000Y-128743300I-500000J-46D01*
G01*
X105000000Y-131643254D02*
X105000000Y-131843254D01*
X102570531Y-139929468D02*
X102204115Y-140295885D01*
X106500000Y-128743254D02*
X106000000Y-128743254D01*
X107000000Y-130443254D02*
X107000000Y-130643254D01*
X106000000Y-135243254D02*
X106000000Y-135443254D01*
X106000000Y-132343254D02*
X106500000Y-132343254D01*
X106000000Y-131143254D02*
X105500000Y-131143254D01*
X106000000Y-129943254D02*
X106500000Y-129943254D01*
X105500000Y-129943254D02*
X106000000Y-129943254D01*
X114845000Y-121400000D02*
X108600000Y-121400000D01*
X106000000Y-136500000D02*
X105116116Y-137383883D01*
X105500000Y-134743254D02*
G75*
G02*
X106000046Y-135243254I0J-500046D01*
G01*
X108600000Y-121400000D02*
X106000000Y-124000000D01*
X103914035Y-138585966D02*
X103914034Y-138585966D01*
X104267588Y-138939519D02*
X103914035Y-138585966D01*
X107000000Y-133043254D02*
G75*
G02*
X106500000Y-133543300I-500000J-46D01*
G01*
X102711951Y-138373833D02*
G75*
G03*
X102711937Y-139080953I353549J-353567D01*
G01*
X107000000Y-132843254D02*
X107000000Y-133043254D01*
X105116116Y-138798097D02*
X104974694Y-138939520D01*
X106500000Y-132343254D02*
G75*
G02*
X107000046Y-132843254I0J-500046D01*
G01*
X102711951Y-139788046D02*
X102570531Y-139929468D01*
X105500000Y-132343254D02*
X106000000Y-132343254D01*
X105116116Y-137383883D02*
G75*
G03*
X105116152Y-138090954I353584J-353517D01*
G01*
X105500000Y-133543254D02*
G75*
G03*
X104999954Y-134043254I0J-500046D01*
G01*
X106500000Y-131143254D02*
X106000000Y-131143254D01*
X102853373Y-138232412D02*
X102711951Y-138373833D01*
X105000000Y-129243254D02*
X105000000Y-129443254D01*
X105000000Y-134243254D02*
G75*
G03*
X105500000Y-134743300I500000J-46D01*
G01*
X104974694Y-138939520D02*
G75*
G02*
X104267546Y-138939561I-353594J353520D01*
G01*
X105116115Y-138090991D02*
G75*
G02*
X105116072Y-138798052I-353515J-353509D01*
G01*
X106000000Y-135443254D02*
X106000000Y-136500000D01*
X103914034Y-138585966D02*
X103560480Y-138232412D01*
X106000000Y-133543254D02*
X105500000Y-133543254D01*
X103560480Y-138232412D02*
G75*
G03*
X102853372Y-138232411I-353554J-353552D01*
G01*
X105000000Y-134043254D02*
X105000000Y-134243254D01*
X106000000Y-128743254D02*
X105500000Y-128743254D01*
X102711951Y-139080940D02*
G75*
G02*
X102711958Y-139788053I-353551J-353560D01*
G01*
X107000000Y-128043254D02*
X107000000Y-128243254D01*
X106000000Y-124000000D02*
X106000000Y-127043254D01*
X107000000Y-130643254D02*
G75*
G02*
X106500000Y-131143300I-500000J-46D01*
G01*
X105000000Y-129443254D02*
G75*
G03*
X105500000Y-129943300I500000J-46D01*
G01*
X106500000Y-133543254D02*
X106000000Y-133543254D01*
X96042120Y-145750771D02*
X96395673Y-146104324D01*
X97880601Y-143205184D02*
X97739179Y-143346605D01*
X97244203Y-145255797D02*
X96890649Y-144902243D01*
X96395673Y-146104324D02*
X96395674Y-146104326D01*
X95900699Y-147306410D02*
X95547146Y-146952857D01*
X98092733Y-144407267D02*
X98446287Y-144760821D01*
X96749227Y-147164988D02*
X96607807Y-147306409D01*
X98941264Y-143558739D02*
X98941262Y-143558738D01*
X96183542Y-144902243D02*
X96042120Y-145043664D01*
X98446286Y-145467929D02*
X98304866Y-145609350D01*
X97244205Y-145255798D02*
X97244203Y-145255797D01*
X96395674Y-146104326D02*
X96749228Y-146457880D01*
X97597758Y-145609351D02*
X97244205Y-145255798D01*
X98941262Y-143558738D02*
X98587708Y-143205184D01*
X100143346Y-143063762D02*
G75*
G02*
X100143330Y-143770854I-353546J-353538D01*
G01*
X94345061Y-147447830D02*
X94698614Y-147801383D01*
X99294817Y-143912292D02*
X98941264Y-143558739D01*
X100143345Y-143770870D02*
X100001925Y-143912291D01*
X99789792Y-142710208D02*
X100143346Y-143063762D01*
X97739179Y-144053712D02*
X98092732Y-144407265D01*
X99789791Y-142710206D02*
X99789792Y-142710208D01*
X94486483Y-146599302D02*
X94345061Y-146740723D01*
X95052168Y-148862047D02*
X94910748Y-149003468D01*
X95052169Y-148154939D02*
G75*
G02*
X95052176Y-148862054I-353569J-353561D01*
G01*
X93496534Y-149003469D02*
X93355112Y-149144889D01*
X96607807Y-147306409D02*
G75*
G02*
X95900747Y-147306363I-353507J353509D01*
G01*
X93355112Y-149144889D02*
X92383867Y-150116133D01*
X100284767Y-141508125D02*
G75*
G03*
X99577661Y-141508125I-353553J-353552D01*
G01*
X98092732Y-144407265D02*
X98092733Y-144407267D01*
X94345061Y-146740723D02*
G75*
G03*
X94345037Y-147447854I353539J-353577D01*
G01*
X98446287Y-144760821D02*
G75*
G02*
X98446312Y-145467954I-353587J-353579D01*
G01*
X96749228Y-146457880D02*
G75*
G02*
X96749194Y-147164954I-353528J-353520D01*
G01*
X96890649Y-144902243D02*
G75*
G03*
X96183543Y-144902243I-353553J-353552D01*
G01*
X95547146Y-146952857D02*
X95547144Y-146952856D01*
X101698981Y-142215234D02*
G75*
G02*
X100991846Y-142215262I-353581J353534D01*
G01*
X95547144Y-146952856D02*
X95193590Y-146599302D01*
X95193590Y-146599302D02*
G75*
G03*
X94486484Y-146599302I-353553J-353552D01*
G01*
X94698615Y-147801385D02*
X95052169Y-148154939D01*
X96042120Y-145043664D02*
G75*
G03*
X96042137Y-145750754I353580J-353536D01*
G01*
X100991875Y-142215233D02*
X100638322Y-141861680D01*
X97739179Y-143346605D02*
G75*
G03*
X97739137Y-144053754I353521J-353595D01*
G01*
X101840403Y-142073811D02*
X101698981Y-142215234D01*
X94698614Y-147801383D02*
X94698615Y-147801385D01*
X101840403Y-140659597D02*
G75*
G03*
X101840353Y-141366753I353597J-353603D01*
G01*
X100638322Y-141861680D02*
X100638321Y-141861679D01*
X100638321Y-141861679D02*
X100284767Y-141508125D01*
X98587708Y-143205184D02*
G75*
G03*
X97880602Y-143205184I-353553J-353552D01*
G01*
X101840402Y-141366705D02*
G75*
G02*
X101840445Y-142073852I-353602J-353595D01*
G01*
X98304866Y-145609350D02*
G75*
G02*
X97597747Y-145609363I-353566J353550D01*
G01*
X99577660Y-141508125D02*
X99436238Y-141649546D01*
X100001925Y-143912291D02*
G75*
G02*
X99294846Y-143912263I-353525J353591D01*
G01*
X94910748Y-149003468D02*
G75*
G02*
X94203646Y-149003463I-353548J353568D01*
G01*
X99436238Y-142356653D02*
X99789791Y-142710206D01*
X94203640Y-149003469D02*
G75*
G03*
X93496534Y-149003469I-353553J-353551D01*
G01*
X99436238Y-141649546D02*
G75*
G03*
X99436237Y-142356653I353562J-353554D01*
G01*
%TO.N,/GPIO23*%
X109000000Y-143000000D02*
X109000000Y-123500000D01*
X66265000Y-150265000D02*
X69000000Y-153000000D01*
X69000000Y-153000000D02*
X99000000Y-153000000D01*
X66265000Y-148980000D02*
X66265000Y-150265000D01*
X99000000Y-153000000D02*
X109000000Y-143000000D01*
X114225000Y-103000000D02*
X114845000Y-103620000D01*
X109000000Y-103000000D02*
X114225000Y-103000000D01*
%TO.N,/GPIO27*%
X87500000Y-126500000D02*
X87515000Y-126485000D01*
X86500000Y-126500000D02*
X87500000Y-126500000D01*
X84500000Y-128500000D02*
X86500000Y-126500000D01*
X84500000Y-139500000D02*
X84500000Y-128500000D01*
X87515000Y-126485000D02*
X89015000Y-126485000D01*
X71345000Y-148980000D02*
X75020000Y-148980000D01*
X75020000Y-148980000D02*
X84500000Y-139500000D01*
%TO.N,/GPIO22*%
X96725000Y-95775000D02*
X97225000Y-95775000D01*
X98911194Y-101825408D02*
X98769772Y-101683986D01*
X99971855Y-101471855D02*
X99618300Y-101825407D01*
X97225000Y-94575000D02*
X96725000Y-94575000D01*
X97225000Y-95775000D02*
X97725000Y-95775000D01*
X96225000Y-94075000D02*
X96225000Y-93875000D01*
X97225000Y-92875000D02*
X97225000Y-92675000D01*
X97779822Y-99279822D02*
X97225000Y-98725000D01*
X97225000Y-92675000D02*
X97225000Y-91725111D01*
X97725000Y-94575000D02*
X97225000Y-94575000D01*
X96225000Y-96475000D02*
X96225000Y-96275000D01*
X97921242Y-99421242D02*
X97779822Y-99279822D01*
X98769771Y-100976878D02*
X99123325Y-100623325D01*
X97225000Y-98725000D02*
X97225000Y-97475000D01*
X100820385Y-102320385D02*
X101173938Y-101966831D01*
X96225000Y-93875000D02*
G75*
G02*
X96725000Y-93375000I500000J0D01*
G01*
X99123325Y-100623325D02*
X99476878Y-100269771D01*
X96225000Y-96275000D02*
G75*
G02*
X96725000Y-95775000I500000J0D01*
G01*
X96725000Y-94575000D02*
G75*
G02*
X96225000Y-94075000I0J500000D01*
G01*
X100466831Y-102673938D02*
X100820385Y-102320385D01*
X100608254Y-103522468D02*
X100466832Y-103381046D01*
X96725000Y-93375000D02*
G75*
G03*
X97225000Y-92875000I0J500000D01*
G01*
X97725000Y-95775000D02*
G75*
G03*
X98225000Y-95275000I0J500000D01*
G01*
X98225000Y-95075000D02*
G75*
G03*
X97725000Y-94575000I-500000J0D01*
G01*
X99335456Y-99421242D02*
G75*
G03*
X98628350Y-99421242I-353553J-353552D01*
G01*
X101173938Y-101259724D02*
X101032516Y-101118302D01*
X99618300Y-101825407D02*
G75*
G02*
X98911147Y-101825455I-353600J353507D01*
G01*
X100466832Y-103381046D02*
G75*
G02*
X100466839Y-102673946I353568J353546D01*
G01*
X96725000Y-96975000D02*
G75*
G02*
X96225000Y-96475000I0J500000D01*
G01*
X98225000Y-95275000D02*
X98225000Y-95075000D01*
X100325409Y-101118302D02*
X99971855Y-101471855D01*
X97225000Y-97475000D02*
G75*
G03*
X96725000Y-96975000I-500000J0D01*
G01*
X98628349Y-99421242D02*
G75*
G02*
X97921243Y-99421242I-353553J353552D01*
G01*
X97225000Y-91725111D02*
X97225000Y-82480000D01*
X98769772Y-101683986D02*
G75*
G02*
X98769739Y-100976846I353528J353586D01*
G01*
X101032516Y-101118302D02*
G75*
G03*
X100325410Y-101118302I-353553J-353552D01*
G01*
X99476878Y-99562664D02*
X99335456Y-99421242D01*
X101173938Y-101966831D02*
G75*
G03*
X101173916Y-101259747I-353538J353531D01*
G01*
X104660000Y-106160000D02*
X102022468Y-103522468D01*
X101315360Y-103522467D02*
G75*
G02*
X100608248Y-103522475I-353560J353567D01*
G01*
X99476878Y-100269771D02*
G75*
G03*
X99476896Y-99562647I-353578J353571D01*
G01*
X102022468Y-103522468D02*
G75*
G03*
X101315346Y-103522453I-353568J-353532D01*
G01*
X114845000Y-106160000D02*
X104660000Y-106160000D01*
%TO.N,/GPIO21*%
X100000000Y-82715000D02*
X99765000Y-82480000D01*
X100000000Y-86500000D02*
X100000000Y-82715000D01*
X104500000Y-91000000D02*
X100000000Y-86500000D01*
X118500000Y-94000000D02*
X115500000Y-91000000D01*
X115500000Y-91000000D02*
X104500000Y-91000000D01*
X118500000Y-110125000D02*
X118500000Y-94000000D01*
X114845000Y-113780000D02*
X118500000Y-110125000D01*
%TO.N,Net-(L1-HV)*%
X161000000Y-45285000D02*
X161000000Y-101540000D01*
X161000000Y-101540000D02*
X160040000Y-102500000D01*
X170305000Y-35980000D02*
X161000000Y-45285000D01*
%TO.N,Net-(Q1-G)*%
X168580000Y-121580000D02*
X165045000Y-121580000D01*
X170895000Y-123895000D02*
X168580000Y-121580000D01*
X170895000Y-125940000D02*
X170895000Y-123895000D01*
X165045000Y-125630000D02*
X165045000Y-121580000D01*
%TO.N,Net-(B1-GND)*%
X170895000Y-131205000D02*
X170895000Y-131020000D01*
X163100000Y-139000000D02*
X170895000Y-131205000D01*
%TO.N,/5V*%
X162500000Y-102420000D02*
X162500000Y-46325000D01*
X162580000Y-102500000D02*
X162500000Y-102420000D01*
X162500000Y-46325000D02*
X172845000Y-35980000D01*
%TO.N,/3V3*%
X106000000Y-54000000D02*
X107385000Y-55385000D01*
X100500000Y-54000000D02*
X106000000Y-54000000D01*
X107385000Y-55385000D02*
X107385000Y-56930000D01*
X99765000Y-54735000D02*
X100500000Y-54000000D01*
X99765000Y-56930000D02*
X99765000Y-54735000D01*
%TO.N,/GPIO21*%
D19*
X99980000Y-82480000D02*
X99765000Y-82480000D01*
%TD*%
%TA.AperFunction,Conductor*%
%TO.N,/GND*%
G36*
X196943039Y-28519685D02*
G01*
X196988794Y-28572489D01*
X197000000Y-28624000D01*
X197000000Y-153948638D01*
X196980315Y-154015677D01*
X196963681Y-154036319D01*
X195536319Y-155463681D01*
X195474996Y-155497166D01*
X195448638Y-155500000D01*
X119712782Y-155500000D01*
X119645743Y-155480315D01*
X119599988Y-155427511D01*
X119590044Y-155358353D01*
X119619069Y-155294797D01*
X119625508Y-155287913D01*
X119633483Y-155280011D01*
X119637782Y-155277139D01*
X119777139Y-155137782D01*
X119777140Y-155137779D01*
X130432140Y-144482781D01*
X130541632Y-144318914D01*
X130617052Y-144136835D01*
X130655501Y-143943540D01*
X130655501Y-143746459D01*
X130655501Y-143741349D01*
X130655500Y-143741323D01*
X130655500Y-142104500D01*
X130675185Y-142037461D01*
X130727989Y-141991706D01*
X130779500Y-141980500D01*
X137903543Y-141980500D01*
X137935422Y-141974158D01*
X138005499Y-141960219D01*
X138096836Y-141942051D01*
X138150165Y-141919961D01*
X138278914Y-141866632D01*
X138442782Y-141757139D01*
X138582139Y-141617782D01*
X138582140Y-141617779D01*
X138589206Y-141610714D01*
X138592610Y-141614118D01*
X138623965Y-141586251D01*
X138626484Y-141585428D01*
X138638394Y-141561635D01*
X138698482Y-141525982D01*
X138768308Y-141528475D01*
X138825701Y-141568323D01*
X138843710Y-141598676D01*
X138859908Y-141637780D01*
X138859909Y-141637782D01*
X138918364Y-141778907D01*
X138918371Y-141778920D01*
X139027860Y-141942781D01*
X139027863Y-141942785D01*
X139171537Y-142086459D01*
X139171559Y-142086479D01*
X140719735Y-143634655D01*
X140719764Y-143634686D01*
X140862214Y-143777136D01*
X140862218Y-143777139D01*
X141026079Y-143886628D01*
X141026092Y-143886635D01*
X141154833Y-143939961D01*
X141197744Y-143957735D01*
X141208164Y-143962051D01*
X141304812Y-143981275D01*
X141350016Y-143990267D01*
X141401458Y-144000500D01*
X141401459Y-144000500D01*
X147598542Y-144000500D01*
X147629566Y-143994328D01*
X147695188Y-143981275D01*
X147791836Y-143962051D01*
X147845165Y-143939961D01*
X147973914Y-143886632D01*
X148137782Y-143777139D01*
X148277139Y-143637782D01*
X148277140Y-143637779D01*
X148284206Y-143630714D01*
X148284209Y-143630710D01*
X153787821Y-138127097D01*
X153849142Y-138093614D01*
X153918834Y-138098598D01*
X153974767Y-138140470D01*
X153999184Y-138205934D01*
X153999500Y-138214780D01*
X153999500Y-140047870D01*
X153999501Y-140047876D01*
X154005908Y-140107483D01*
X154056202Y-140242328D01*
X154056206Y-140242335D01*
X154142452Y-140357544D01*
X154142455Y-140357547D01*
X154257664Y-140443793D01*
X154257671Y-140443797D01*
X154392517Y-140494091D01*
X154392516Y-140494091D01*
X154399444Y-140494835D01*
X154452127Y-140500500D01*
X156034217Y-140500499D01*
X156101256Y-140520184D01*
X156121897Y-140536817D01*
X159222860Y-143637781D01*
X159222861Y-143637782D01*
X159326402Y-143741323D01*
X159362219Y-143777140D01*
X159526079Y-143886628D01*
X159526092Y-143886635D01*
X159654833Y-143939961D01*
X159697744Y-143957735D01*
X159708164Y-143962051D01*
X159804812Y-143981275D01*
X159850016Y-143990267D01*
X159901458Y-144000500D01*
X159901459Y-144000500D01*
X172598542Y-144000500D01*
X172629566Y-143994328D01*
X172695188Y-143981275D01*
X172791836Y-143962051D01*
X172845165Y-143939961D01*
X172973914Y-143886632D01*
X173137782Y-143777139D01*
X173277139Y-143637782D01*
X173277139Y-143637780D01*
X173287347Y-143627573D01*
X173287348Y-143627570D01*
X177277139Y-139637782D01*
X177284314Y-139627044D01*
X177386632Y-139473914D01*
X177459036Y-139299115D01*
X177462051Y-139291836D01*
X177487984Y-139161460D01*
X177500500Y-139098541D01*
X177500500Y-96401459D01*
X177500500Y-96401456D01*
X177500499Y-96401454D01*
X177462053Y-96208175D01*
X177462052Y-96208174D01*
X177462051Y-96208165D01*
X177458681Y-96200030D01*
X177407122Y-96075554D01*
X177391078Y-96036819D01*
X177386635Y-96026092D01*
X177386633Y-96026088D01*
X177386632Y-96026086D01*
X177366499Y-95995955D01*
X177277139Y-95862217D01*
X177134686Y-95719764D01*
X177134655Y-95719735D01*
X174781479Y-93366559D01*
X174781459Y-93366537D01*
X174637785Y-93222863D01*
X174637781Y-93222860D01*
X174473916Y-93113369D01*
X174473911Y-93113366D01*
X174367257Y-93069189D01*
X174345165Y-93060038D01*
X174291836Y-93037949D01*
X174161543Y-93012032D01*
X174157657Y-93011259D01*
X174098542Y-92999500D01*
X174098541Y-92999500D01*
X166598540Y-92999500D01*
X166401459Y-92999500D01*
X166401456Y-92999500D01*
X166208171Y-93037946D01*
X166208167Y-93037948D01*
X166208165Y-93037948D01*
X166208164Y-93037949D01*
X166132745Y-93069188D01*
X166132743Y-93069189D01*
X166026085Y-93113368D01*
X166026085Y-93113369D01*
X166026084Y-93113369D01*
X165862222Y-93222857D01*
X165862214Y-93222863D01*
X164731035Y-94354044D01*
X164362220Y-94722859D01*
X164362218Y-94722861D01*
X164292538Y-94792540D01*
X164222859Y-94862219D01*
X164113371Y-95026080D01*
X164113364Y-95026093D01*
X164072403Y-95124982D01*
X164072395Y-95125004D01*
X164071002Y-95128368D01*
X164037949Y-95208164D01*
X164032042Y-95237861D01*
X164030379Y-95246220D01*
X164030378Y-95246224D01*
X163999500Y-95401456D01*
X163999500Y-99614218D01*
X163979815Y-99681257D01*
X163963181Y-99701899D01*
X163712181Y-99952899D01*
X163650858Y-99986384D01*
X163581166Y-99981400D01*
X163525233Y-99939528D01*
X163500816Y-99874064D01*
X163500500Y-99865218D01*
X163500500Y-46790782D01*
X163520185Y-46723743D01*
X163536819Y-46703101D01*
X166322062Y-43917858D01*
X172873499Y-37366421D01*
X172934820Y-37332938D01*
X172950291Y-37330657D01*
X172951282Y-37330500D01*
X172951287Y-37330500D01*
X173161243Y-37297246D01*
X173363412Y-37231557D01*
X173552816Y-37135051D01*
X173607572Y-37095269D01*
X173724786Y-37010109D01*
X173724788Y-37010106D01*
X173724792Y-37010104D01*
X173875104Y-36859792D01*
X173875106Y-36859788D01*
X173875109Y-36859786D01*
X173960890Y-36741717D01*
X174000051Y-36687816D01*
X174004793Y-36678508D01*
X174052763Y-36627711D01*
X174120583Y-36610911D01*
X174186719Y-36633445D01*
X174225763Y-36678500D01*
X174230373Y-36687547D01*
X174269728Y-36741716D01*
X174902037Y-36109408D01*
X174919075Y-36172993D01*
X174984901Y-36287007D01*
X175077993Y-36380099D01*
X175192007Y-36445925D01*
X175255590Y-36462962D01*
X174623282Y-37095269D01*
X174623282Y-37095270D01*
X174677449Y-37134624D01*
X174866782Y-37231095D01*
X175068870Y-37296757D01*
X175278754Y-37330000D01*
X175491246Y-37330000D01*
X175701127Y-37296757D01*
X175701130Y-37296757D01*
X175903217Y-37231095D01*
X176092554Y-37134622D01*
X176146716Y-37095270D01*
X176146717Y-37095270D01*
X175514408Y-36462962D01*
X175577993Y-36445925D01*
X175692007Y-36380099D01*
X175785099Y-36287007D01*
X175850925Y-36172993D01*
X175867962Y-36109408D01*
X176500270Y-36741717D01*
X176500270Y-36741716D01*
X176539622Y-36687554D01*
X176636095Y-36498217D01*
X176701757Y-36296130D01*
X176701757Y-36296127D01*
X176735000Y-36086246D01*
X176735000Y-35873753D01*
X176701757Y-35663872D01*
X176701757Y-35663869D01*
X176636095Y-35461782D01*
X176539624Y-35272449D01*
X176500270Y-35218282D01*
X176500269Y-35218282D01*
X175867962Y-35850590D01*
X175850925Y-35787007D01*
X175785099Y-35672993D01*
X175692007Y-35579901D01*
X175577993Y-35514075D01*
X175514409Y-35497037D01*
X176146716Y-34864728D01*
X176092550Y-34825375D01*
X175903217Y-34728904D01*
X175701129Y-34663242D01*
X175491246Y-34630000D01*
X175278754Y-34630000D01*
X175068872Y-34663242D01*
X175068869Y-34663242D01*
X174866782Y-34728904D01*
X174677439Y-34825380D01*
X174623282Y-34864727D01*
X174623282Y-34864728D01*
X175255591Y-35497037D01*
X175192007Y-35514075D01*
X175077993Y-35579901D01*
X174984901Y-35672993D01*
X174919075Y-35787007D01*
X174902037Y-35850591D01*
X174269728Y-35218282D01*
X174269727Y-35218282D01*
X174230380Y-35272440D01*
X174230376Y-35272446D01*
X174225760Y-35281505D01*
X174177781Y-35332297D01*
X174109959Y-35349087D01*
X174043826Y-35326543D01*
X174004794Y-35281493D01*
X174000051Y-35272184D01*
X174000049Y-35272181D01*
X174000048Y-35272179D01*
X173872241Y-35096266D01*
X173873108Y-35095635D01*
X173846641Y-35036581D01*
X173845500Y-35019800D01*
X173845500Y-32746456D01*
X173807052Y-32553170D01*
X173807051Y-32553169D01*
X173807051Y-32553165D01*
X173807049Y-32553160D01*
X173731635Y-32371092D01*
X173731628Y-32371079D01*
X173622140Y-32207219D01*
X173622139Y-32207218D01*
X173482782Y-32067861D01*
X173482781Y-32067860D01*
X172784208Y-31369288D01*
X172784206Y-31369285D01*
X172784206Y-31369286D01*
X172777139Y-31362219D01*
X172777139Y-31362218D01*
X172637782Y-31222861D01*
X172637781Y-31222860D01*
X172637780Y-31222859D01*
X172473920Y-31113371D01*
X172473911Y-31113366D01*
X172401315Y-31083296D01*
X172345165Y-31060038D01*
X172291836Y-31037949D01*
X172291832Y-31037948D01*
X172291828Y-31037946D01*
X172195188Y-31018724D01*
X172098544Y-30999500D01*
X172098541Y-30999500D01*
X74401459Y-30999500D01*
X74401455Y-30999500D01*
X74304812Y-31018724D01*
X74208167Y-31037947D01*
X74208161Y-31037949D01*
X74154834Y-31060037D01*
X74154834Y-31060038D01*
X74109315Y-31078892D01*
X74026089Y-31113366D01*
X74026079Y-31113371D01*
X73862219Y-31222859D01*
X73792540Y-31292538D01*
X73722861Y-31362218D01*
X73722858Y-31362221D01*
X61167221Y-43917858D01*
X61167218Y-43917861D01*
X61097538Y-43987540D01*
X61027859Y-44057219D01*
X60918371Y-44221079D01*
X60918364Y-44221092D01*
X60842950Y-44403160D01*
X60842947Y-44403170D01*
X60804500Y-44596456D01*
X60804500Y-75019800D01*
X60784815Y-75086839D01*
X60775506Y-75099365D01*
X60649951Y-75272179D01*
X60553444Y-75461585D01*
X60487753Y-75663760D01*
X60454500Y-75873713D01*
X60454500Y-76086286D01*
X60487753Y-76296239D01*
X60553444Y-76498414D01*
X60649951Y-76687820D01*
X60774890Y-76859786D01*
X60925213Y-77010109D01*
X61097179Y-77135048D01*
X61097181Y-77135049D01*
X61097184Y-77135051D01*
X61286588Y-77231557D01*
X61488757Y-77297246D01*
X61698713Y-77330500D01*
X61698714Y-77330500D01*
X61911286Y-77330500D01*
X61911287Y-77330500D01*
X62121243Y-77297246D01*
X62323412Y-77231557D01*
X62512816Y-77135051D01*
X62567572Y-77095269D01*
X62684786Y-77010109D01*
X62684788Y-77010106D01*
X62684792Y-77010104D01*
X62835104Y-76859792D01*
X62835106Y-76859788D01*
X62835109Y-76859786D01*
X62960048Y-76687820D01*
X62960047Y-76687820D01*
X62960051Y-76687816D01*
X62964514Y-76679054D01*
X63012488Y-76628259D01*
X63080308Y-76611463D01*
X63146444Y-76633999D01*
X63185486Y-76679056D01*
X63189951Y-76687820D01*
X63317759Y-76863734D01*
X63316888Y-76864366D01*
X63343357Y-76923401D01*
X63344500Y-76940199D01*
X63344500Y-87443541D01*
X63344500Y-87443543D01*
X63344499Y-87443543D01*
X63382947Y-87636829D01*
X63382950Y-87636839D01*
X63458364Y-87818907D01*
X63458371Y-87818920D01*
X63567860Y-87982781D01*
X63567863Y-87982785D01*
X63711537Y-88126459D01*
X63711559Y-88126479D01*
X71219735Y-95634655D01*
X71219764Y-95634686D01*
X71362217Y-95777139D01*
X71489546Y-95862217D01*
X71526086Y-95886632D01*
X71629068Y-95929288D01*
X71708164Y-95962051D01*
X71804812Y-95981275D01*
X71878611Y-95995955D01*
X71901458Y-96000500D01*
X71901459Y-96000500D01*
X71901460Y-96000500D01*
X72098540Y-96000500D01*
X87534218Y-96000500D01*
X87601257Y-96020185D01*
X87621899Y-96036819D01*
X87978181Y-96393101D01*
X88011666Y-96454424D01*
X88014500Y-96480782D01*
X88014500Y-99670858D01*
X87994815Y-99737897D01*
X87942011Y-99783652D01*
X87933847Y-99787034D01*
X87922669Y-99791204D01*
X87922664Y-99791206D01*
X87807455Y-99877452D01*
X87807452Y-99877455D01*
X87721206Y-99992664D01*
X87721204Y-99992668D01*
X87721204Y-99992669D01*
X87717039Y-100003834D01*
X87675171Y-100059766D01*
X87609707Y-100084184D01*
X87600859Y-100084500D01*
X83816457Y-100084500D01*
X83721112Y-100103466D01*
X83721111Y-100103466D01*
X83623167Y-100122947D01*
X83623159Y-100122950D01*
X83569834Y-100145037D01*
X83569834Y-100145038D01*
X83524315Y-100163892D01*
X83441089Y-100198366D01*
X83441079Y-100198371D01*
X83277219Y-100307859D01*
X83213243Y-100371836D01*
X83137861Y-100447218D01*
X83137858Y-100447221D01*
X76362221Y-107222858D01*
X76362218Y-107222861D01*
X76292538Y-107292540D01*
X76222859Y-107362219D01*
X76113371Y-107526079D01*
X76113366Y-107526089D01*
X76060038Y-107654835D01*
X76037950Y-107708159D01*
X76037949Y-107708163D01*
X76037949Y-107708164D01*
X76031030Y-107742949D01*
X76031030Y-107742950D01*
X75999500Y-107901456D01*
X75999500Y-133034217D01*
X75979815Y-133101256D01*
X75963181Y-133121898D01*
X71121899Y-137963181D01*
X71060576Y-137996666D01*
X71034218Y-137999500D01*
X62244376Y-137999500D01*
X62151630Y-138017949D01*
X62151629Y-138017949D01*
X62051086Y-138037947D01*
X62051078Y-138037950D01*
X61997753Y-138060037D01*
X61997753Y-138060038D01*
X61972245Y-138070604D01*
X61869008Y-138113366D01*
X61868998Y-138113371D01*
X61705138Y-138222859D01*
X61670218Y-138257780D01*
X61565780Y-138362218D01*
X61565777Y-138362221D01*
X52927221Y-147000777D01*
X52927218Y-147000780D01*
X52857538Y-147070459D01*
X52787859Y-147140138D01*
X52678371Y-147303998D01*
X52678364Y-147304011D01*
X52629250Y-147422584D01*
X52629244Y-147422599D01*
X52627517Y-147426771D01*
X52602949Y-147486083D01*
X52596506Y-147518475D01*
X52595012Y-147525983D01*
X52595010Y-147525991D01*
X52564500Y-147679375D01*
X52564500Y-148019800D01*
X52544815Y-148086839D01*
X52535506Y-148099365D01*
X52409951Y-148272179D01*
X52313444Y-148461585D01*
X52247753Y-148663760D01*
X52214500Y-148873713D01*
X52214500Y-149086287D01*
X52247754Y-149296243D01*
X52311888Y-149493627D01*
X52313444Y-149498414D01*
X52409951Y-149687820D01*
X52534890Y-149859786D01*
X52685213Y-150010109D01*
X52857179Y-150135048D01*
X52857181Y-150135049D01*
X52857184Y-150135051D01*
X53046588Y-150231557D01*
X53248757Y-150297246D01*
X53458713Y-150330500D01*
X53458714Y-150330500D01*
X53463525Y-150331262D01*
X53463357Y-150332321D01*
X53523829Y-150355362D01*
X53536503Y-150366423D01*
X58307858Y-155137778D01*
X58307861Y-155137782D01*
X58447218Y-155277139D01*
X58451503Y-155280002D01*
X58459472Y-155287894D01*
X58473676Y-155313609D01*
X58490216Y-155337889D01*
X58490375Y-155343841D01*
X58493255Y-155349054D01*
X58491301Y-155378367D01*
X58492089Y-155407734D01*
X58489004Y-155412828D01*
X58488609Y-155418769D01*
X58471117Y-155442373D01*
X58455903Y-155467503D01*
X58450555Y-155470120D01*
X58447010Y-155474905D01*
X58419532Y-155485306D01*
X58393148Y-155498221D01*
X58383174Y-155499068D01*
X58381665Y-155499640D01*
X58380175Y-155499323D01*
X58372218Y-155500000D01*
X43051362Y-155500000D01*
X42984323Y-155480315D01*
X42963681Y-155463681D01*
X40536319Y-153036319D01*
X40502834Y-152974996D01*
X40500000Y-152948638D01*
X40500000Y-29051362D01*
X40519685Y-28984323D01*
X40536319Y-28963681D01*
X40963681Y-28536319D01*
X41025004Y-28502834D01*
X41051362Y-28500000D01*
X196876000Y-28500000D01*
X196943039Y-28519685D01*
G37*
%TD.AperFunction*%
%TA.AperFunction,Conductor*%
G36*
X57220270Y-149741717D02*
G01*
X57220270Y-149741716D01*
X57259622Y-149687555D01*
X57264232Y-149678507D01*
X57312205Y-149627709D01*
X57380025Y-149610912D01*
X57446161Y-149633447D01*
X57485204Y-149678504D01*
X57489949Y-149687817D01*
X57614890Y-149859786D01*
X57765213Y-150010109D01*
X57937179Y-150135048D01*
X57937181Y-150135049D01*
X57937184Y-150135051D01*
X58126588Y-150231557D01*
X58328757Y-150297246D01*
X58538713Y-150330500D01*
X58538714Y-150330500D01*
X58751286Y-150330500D01*
X58751287Y-150330500D01*
X58961243Y-150297246D01*
X59163412Y-150231557D01*
X59352816Y-150135051D01*
X59407570Y-150095270D01*
X59524786Y-150010109D01*
X59524788Y-150010106D01*
X59524792Y-150010104D01*
X59675104Y-149859792D01*
X59675106Y-149859788D01*
X59675109Y-149859786D01*
X59800048Y-149687820D01*
X59800050Y-149687817D01*
X59800051Y-149687816D01*
X59804514Y-149679054D01*
X59852488Y-149628259D01*
X59920308Y-149611463D01*
X59986444Y-149633999D01*
X60025486Y-149679056D01*
X60029951Y-149687820D01*
X60154890Y-149859786D01*
X60305213Y-150010109D01*
X60477179Y-150135048D01*
X60477181Y-150135049D01*
X60477184Y-150135051D01*
X60666588Y-150231557D01*
X60868757Y-150297246D01*
X61078713Y-150330500D01*
X61078714Y-150330500D01*
X61291286Y-150330500D01*
X61291287Y-150330500D01*
X61501243Y-150297246D01*
X61703412Y-150231557D01*
X61892816Y-150135051D01*
X61947570Y-150095270D01*
X62064786Y-150010109D01*
X62064788Y-150010106D01*
X62064792Y-150010104D01*
X62215104Y-149859792D01*
X62215106Y-149859788D01*
X62215109Y-149859786D01*
X62340048Y-149687820D01*
X62340050Y-149687817D01*
X62340051Y-149687816D01*
X62344514Y-149679054D01*
X62392488Y-149628259D01*
X62460308Y-149611463D01*
X62526444Y-149633999D01*
X62565486Y-149679056D01*
X62569951Y-149687820D01*
X62694890Y-149859786D01*
X62845213Y-150010109D01*
X63017179Y-150135048D01*
X63017181Y-150135049D01*
X63017184Y-150135051D01*
X63206588Y-150231557D01*
X63408757Y-150297246D01*
X63618713Y-150330500D01*
X63618714Y-150330500D01*
X63831286Y-150330500D01*
X63831287Y-150330500D01*
X64041243Y-150297246D01*
X64243412Y-150231557D01*
X64432816Y-150135051D01*
X64487570Y-150095270D01*
X64604786Y-150010109D01*
X64604788Y-150010106D01*
X64604792Y-150010104D01*
X64755104Y-149859792D01*
X64755106Y-149859788D01*
X64755109Y-149859786D01*
X64880048Y-149687820D01*
X64880050Y-149687817D01*
X64880051Y-149687816D01*
X64884514Y-149679054D01*
X64932488Y-149628259D01*
X65000308Y-149611463D01*
X65066444Y-149633999D01*
X65105486Y-149679056D01*
X65109951Y-149687820D01*
X65237759Y-149863734D01*
X65236888Y-149864366D01*
X65263357Y-149923401D01*
X65264500Y-149940199D01*
X65264500Y-150363541D01*
X65278010Y-150431459D01*
X65302949Y-150556836D01*
X65313425Y-150582126D01*
X65317068Y-150590921D01*
X65317069Y-150590925D01*
X65378364Y-150738906D01*
X65378371Y-150738919D01*
X65487860Y-150902782D01*
X65631537Y-151046459D01*
X65631559Y-151046479D01*
X67872899Y-153287819D01*
X67906384Y-153349142D01*
X67901400Y-153418834D01*
X67859528Y-153474767D01*
X67794064Y-153499184D01*
X67785218Y-153499500D01*
X59550782Y-153499500D01*
X59483743Y-153479815D01*
X59463101Y-153463181D01*
X56470280Y-150470360D01*
X56436795Y-150409037D01*
X56441779Y-150339345D01*
X56483651Y-150283412D01*
X56519644Y-150264748D01*
X56623215Y-150231096D01*
X56812554Y-150134622D01*
X56866716Y-150095270D01*
X56866717Y-150095270D01*
X56234408Y-149462962D01*
X56297993Y-149445925D01*
X56412007Y-149380099D01*
X56505099Y-149287007D01*
X56570925Y-149172993D01*
X56587962Y-149109408D01*
X57220270Y-149741717D01*
G37*
%TD.AperFunction*%
%TA.AperFunction,Conductor*%
G36*
X113951839Y-122420185D02*
G01*
X113964365Y-122429493D01*
X114137182Y-122555050D01*
X114145946Y-122559516D01*
X114196742Y-122607491D01*
X114213536Y-122675312D01*
X114190998Y-122741447D01*
X114145946Y-122780484D01*
X114137182Y-122784949D01*
X113965213Y-122909890D01*
X113814890Y-123060213D01*
X113689951Y-123232179D01*
X113593444Y-123421585D01*
X113527753Y-123623760D01*
X113496371Y-123821899D01*
X113494500Y-123833713D01*
X113494500Y-124046287D01*
X113527754Y-124256243D01*
X113586668Y-124437562D01*
X113593444Y-124458414D01*
X113689951Y-124647820D01*
X113814890Y-124819786D01*
X113965213Y-124970109D01*
X114137182Y-125095050D01*
X114145946Y-125099516D01*
X114196742Y-125147491D01*
X114213536Y-125215312D01*
X114190998Y-125281447D01*
X114145946Y-125320484D01*
X114137182Y-125324949D01*
X113965213Y-125449890D01*
X113814890Y-125600213D01*
X113689951Y-125772179D01*
X113593444Y-125961585D01*
X113527753Y-126163760D01*
X113494500Y-126373713D01*
X113494500Y-126586286D01*
X113519207Y-126742284D01*
X113527754Y-126796243D01*
X113587307Y-126979528D01*
X113593444Y-126998414D01*
X113689951Y-127187820D01*
X113814890Y-127359786D01*
X113965213Y-127510109D01*
X114137182Y-127635050D01*
X114145946Y-127639516D01*
X114196742Y-127687491D01*
X114213536Y-127755312D01*
X114190998Y-127821447D01*
X114145946Y-127860484D01*
X114137182Y-127864949D01*
X113965213Y-127989890D01*
X113814890Y-128140213D01*
X113689951Y-128312179D01*
X113593444Y-128501585D01*
X113527753Y-128703760D01*
X113500140Y-128878101D01*
X113494500Y-128913713D01*
X113494500Y-129126287D01*
X113497427Y-129144766D01*
X113520705Y-129291742D01*
X113527754Y-129336243D01*
X113529377Y-129341239D01*
X113593444Y-129538414D01*
X113689951Y-129727820D01*
X113814890Y-129899786D01*
X113965213Y-130050109D01*
X114137182Y-130175050D01*
X114145946Y-130179516D01*
X114196742Y-130227491D01*
X114213536Y-130295312D01*
X114190998Y-130361447D01*
X114145946Y-130400484D01*
X114137182Y-130404949D01*
X113965213Y-130529890D01*
X113814890Y-130680213D01*
X113689951Y-130852179D01*
X113593444Y-131041585D01*
X113527753Y-131243760D01*
X113494500Y-131453713D01*
X113494500Y-131666286D01*
X113520849Y-131832651D01*
X113527754Y-131876243D01*
X113591528Y-132072519D01*
X113593444Y-132078414D01*
X113689951Y-132267820D01*
X113814890Y-132439786D01*
X113965213Y-132590109D01*
X114137182Y-132715050D01*
X114145946Y-132719516D01*
X114196742Y-132767491D01*
X114213536Y-132835312D01*
X114190998Y-132901447D01*
X114145946Y-132940484D01*
X114137182Y-132944949D01*
X113965213Y-133069890D01*
X113814890Y-133220213D01*
X113689951Y-133392179D01*
X113593444Y-133581585D01*
X113527753Y-133783760D01*
X113518741Y-133840661D01*
X113494500Y-133993713D01*
X113494500Y-134206287D01*
X113495292Y-134211286D01*
X113519411Y-134363572D01*
X113527754Y-134416243D01*
X113589085Y-134605000D01*
X113593444Y-134618414D01*
X113689951Y-134807820D01*
X113814890Y-134979786D01*
X113965213Y-135130109D01*
X114137182Y-135255050D01*
X114145946Y-135259516D01*
X114196742Y-135307491D01*
X114213536Y-135375312D01*
X114190998Y-135441447D01*
X114145946Y-135480484D01*
X114137182Y-135484949D01*
X113965213Y-135609890D01*
X113814890Y-135760213D01*
X113689951Y-135932179D01*
X113593444Y-136121585D01*
X113527753Y-136323760D01*
X113515447Y-136401460D01*
X113494500Y-136533713D01*
X113494500Y-136746287D01*
X113501715Y-136791839D01*
X113522667Y-136924129D01*
X113527754Y-136956243D01*
X113586740Y-137137783D01*
X113593444Y-137158414D01*
X113689951Y-137347820D01*
X113814890Y-137519786D01*
X113965213Y-137670109D01*
X114137182Y-137795050D01*
X114145946Y-137799516D01*
X114196742Y-137847491D01*
X114213536Y-137915312D01*
X114190998Y-137981447D01*
X114145946Y-138020484D01*
X114137182Y-138024949D01*
X113965213Y-138149890D01*
X113814890Y-138300213D01*
X113689951Y-138472179D01*
X113593444Y-138661585D01*
X113527753Y-138863760D01*
X113494500Y-139073713D01*
X113494500Y-139286286D01*
X113512741Y-139401459D01*
X113527754Y-139496243D01*
X113590001Y-139687820D01*
X113593444Y-139698414D01*
X113689951Y-139887820D01*
X113814890Y-140059786D01*
X113965213Y-140210109D01*
X114137182Y-140335050D01*
X114145946Y-140339516D01*
X114196742Y-140387491D01*
X114213536Y-140455312D01*
X114190998Y-140521447D01*
X114145946Y-140560484D01*
X114137182Y-140564949D01*
X113965213Y-140689890D01*
X113814890Y-140840213D01*
X113689951Y-141012179D01*
X113593444Y-141201585D01*
X113527753Y-141403760D01*
X113494500Y-141613713D01*
X113494500Y-141826286D01*
X113522504Y-142003100D01*
X113527754Y-142036243D01*
X113562791Y-142144076D01*
X113593444Y-142238414D01*
X113689951Y-142427820D01*
X113814890Y-142599786D01*
X113965213Y-142750109D01*
X114137182Y-142875050D01*
X114145946Y-142879516D01*
X114196742Y-142927491D01*
X114213536Y-142995312D01*
X114190998Y-143061447D01*
X114145946Y-143100484D01*
X114137182Y-143104949D01*
X113965213Y-143229890D01*
X113814890Y-143380213D01*
X113689951Y-143552179D01*
X113593444Y-143741585D01*
X113527753Y-143943760D01*
X113500015Y-144118891D01*
X113494500Y-144153713D01*
X113494500Y-144366287D01*
X113504118Y-144427011D01*
X113523141Y-144547122D01*
X113527754Y-144576243D01*
X113591455Y-144772295D01*
X113593444Y-144778414D01*
X113689951Y-144967820D01*
X113814890Y-145139786D01*
X113965213Y-145290109D01*
X114137182Y-145415050D01*
X114145946Y-145419516D01*
X114196742Y-145467491D01*
X114213536Y-145535312D01*
X114190998Y-145601447D01*
X114145946Y-145640484D01*
X114137182Y-145644949D01*
X113965213Y-145769890D01*
X113814890Y-145920213D01*
X113689951Y-146092179D01*
X113593444Y-146281585D01*
X113527753Y-146483760D01*
X113494500Y-146693713D01*
X113494500Y-146906286D01*
X113524274Y-147094275D01*
X113527754Y-147116243D01*
X113566424Y-147235257D01*
X113593444Y-147318414D01*
X113689951Y-147507820D01*
X113814890Y-147679786D01*
X113965213Y-147830109D01*
X114137179Y-147955048D01*
X114137181Y-147955049D01*
X114137184Y-147955051D01*
X114326588Y-148051557D01*
X114528757Y-148117246D01*
X114738713Y-148150500D01*
X114738714Y-148150500D01*
X114951286Y-148150500D01*
X114951287Y-148150500D01*
X115161243Y-148117246D01*
X115363412Y-148051557D01*
X115552816Y-147955051D01*
X115602948Y-147918628D01*
X115724786Y-147830109D01*
X115724788Y-147830106D01*
X115724792Y-147830104D01*
X115875104Y-147679792D01*
X115875106Y-147679788D01*
X115875109Y-147679786D01*
X116000048Y-147507820D01*
X116000047Y-147507820D01*
X116000051Y-147507816D01*
X116096557Y-147318412D01*
X116162246Y-147116243D01*
X116195500Y-146906287D01*
X116195500Y-146693713D01*
X116162246Y-146483757D01*
X116096557Y-146281588D01*
X116000051Y-146092184D01*
X116000049Y-146092181D01*
X116000048Y-146092179D01*
X115875109Y-145920213D01*
X115724786Y-145769890D01*
X115552820Y-145644951D01*
X115552115Y-145644591D01*
X115544054Y-145640485D01*
X115493259Y-145592512D01*
X115476463Y-145524692D01*
X115498999Y-145458556D01*
X115544054Y-145419515D01*
X115552816Y-145415051D01*
X115658972Y-145337925D01*
X115724786Y-145290109D01*
X115724788Y-145290106D01*
X115724792Y-145290104D01*
X115875104Y-145139792D01*
X115875106Y-145139788D01*
X115875109Y-145139786D01*
X116000048Y-144967820D01*
X116000047Y-144967820D01*
X116000051Y-144967816D01*
X116096557Y-144778412D01*
X116162246Y-144576243D01*
X116195500Y-144366287D01*
X116195500Y-144153713D01*
X116162246Y-143943757D01*
X116096557Y-143741588D01*
X116000051Y-143552184D01*
X116000049Y-143552181D01*
X116000048Y-143552179D01*
X115875109Y-143380213D01*
X115724786Y-143229890D01*
X115552820Y-143104951D01*
X115552115Y-143104591D01*
X115544054Y-143100485D01*
X115493259Y-143052512D01*
X115476463Y-142984692D01*
X115498999Y-142918556D01*
X115544054Y-142879515D01*
X115552816Y-142875051D01*
X115677721Y-142784303D01*
X115724786Y-142750109D01*
X115724788Y-142750106D01*
X115724792Y-142750104D01*
X115875104Y-142599792D01*
X115875106Y-142599788D01*
X115875109Y-142599786D01*
X116000048Y-142427820D01*
X116000047Y-142427820D01*
X116000051Y-142427816D01*
X116096557Y-142238412D01*
X116162246Y-142036243D01*
X116195500Y-141826287D01*
X116195500Y-141613713D01*
X116162246Y-141403757D01*
X116096557Y-141201588D01*
X116000051Y-141012184D01*
X116000049Y-141012181D01*
X116000048Y-141012179D01*
X115875109Y-140840213D01*
X115724786Y-140689890D01*
X115552820Y-140564951D01*
X115552115Y-140564591D01*
X115544054Y-140560485D01*
X115493259Y-140512512D01*
X115476463Y-140444692D01*
X115498999Y-140378556D01*
X115544054Y-140339515D01*
X115552816Y-140335051D01*
X115603276Y-140298390D01*
X115724786Y-140210109D01*
X115724788Y-140210106D01*
X115724792Y-140210104D01*
X115875104Y-140059792D01*
X115875106Y-140059788D01*
X115875109Y-140059786D01*
X116000048Y-139887820D01*
X116000047Y-139887820D01*
X116000051Y-139887816D01*
X116096557Y-139698412D01*
X116162246Y-139496243D01*
X116195500Y-139286287D01*
X116195500Y-139073713D01*
X116162246Y-138863757D01*
X116096557Y-138661588D01*
X116000051Y-138472184D01*
X116000049Y-138472181D01*
X116000048Y-138472179D01*
X115875109Y-138300213D01*
X115724786Y-138149890D01*
X115552820Y-138024951D01*
X115552115Y-138024591D01*
X115544054Y-138020485D01*
X115493259Y-137972512D01*
X115476463Y-137904692D01*
X115498999Y-137838556D01*
X115544054Y-137799515D01*
X115552816Y-137795051D01*
X115604275Y-137757664D01*
X115724786Y-137670109D01*
X115724788Y-137670106D01*
X115724792Y-137670104D01*
X115875104Y-137519792D01*
X115875106Y-137519788D01*
X115875109Y-137519786D01*
X116000048Y-137347820D01*
X116000047Y-137347820D01*
X116000051Y-137347816D01*
X116096557Y-137158412D01*
X116162246Y-136956243D01*
X116195500Y-136746287D01*
X116195500Y-136533713D01*
X116162246Y-136323757D01*
X116096557Y-136121588D01*
X116000051Y-135932184D01*
X116000049Y-135932181D01*
X116000048Y-135932179D01*
X115875109Y-135760213D01*
X115724786Y-135609890D01*
X115552820Y-135484951D01*
X115552115Y-135484591D01*
X115544054Y-135480485D01*
X115493259Y-135432512D01*
X115476463Y-135364692D01*
X115498999Y-135298556D01*
X115544054Y-135259515D01*
X115552816Y-135255051D01*
X115704602Y-135144773D01*
X115724786Y-135130109D01*
X115724788Y-135130106D01*
X115724792Y-135130104D01*
X115875104Y-134979792D01*
X115875106Y-134979788D01*
X115875109Y-134979786D01*
X115996609Y-134812554D01*
X116000051Y-134807816D01*
X116096557Y-134618412D01*
X116162246Y-134416243D01*
X116195500Y-134206287D01*
X116195500Y-133993713D01*
X116162246Y-133783757D01*
X116096557Y-133581588D01*
X116000051Y-133392184D01*
X116000049Y-133392181D01*
X116000048Y-133392179D01*
X115875109Y-133220213D01*
X115724786Y-133069890D01*
X115552820Y-132944951D01*
X115549489Y-132943254D01*
X115544054Y-132940485D01*
X115493259Y-132892512D01*
X115476463Y-132824692D01*
X115498999Y-132758556D01*
X115544054Y-132719515D01*
X115552816Y-132715051D01*
X115574789Y-132699086D01*
X115724786Y-132590109D01*
X115724788Y-132590106D01*
X115724792Y-132590104D01*
X115875104Y-132439792D01*
X115875106Y-132439788D01*
X115875109Y-132439786D01*
X116000048Y-132267820D01*
X116000047Y-132267820D01*
X116000051Y-132267816D01*
X116096557Y-132078412D01*
X116162246Y-131876243D01*
X116166186Y-131851368D01*
X116171930Y-131815102D01*
X116201859Y-131751967D01*
X116261171Y-131715036D01*
X116294403Y-131710500D01*
X123879429Y-131710500D01*
X123946468Y-131730185D01*
X123967110Y-131746819D01*
X124886505Y-132666215D01*
X124919990Y-132727538D01*
X124915006Y-132797230D01*
X124873134Y-132853163D01*
X124855119Y-132864381D01*
X124687180Y-132949951D01*
X124515213Y-133074890D01*
X124364890Y-133225213D01*
X124239949Y-133397182D01*
X124235202Y-133406499D01*
X124187227Y-133457293D01*
X124119405Y-133474087D01*
X124053271Y-133451548D01*
X124014234Y-133406495D01*
X124009626Y-133397452D01*
X123970270Y-133343282D01*
X123970269Y-133343282D01*
X123337962Y-133975590D01*
X123320925Y-133912007D01*
X123255099Y-133797993D01*
X123162007Y-133704901D01*
X123047993Y-133639075D01*
X122984409Y-133622037D01*
X123616716Y-132989728D01*
X123562550Y-132950375D01*
X123373217Y-132853904D01*
X123171129Y-132788242D01*
X122961246Y-132755000D01*
X122748754Y-132755000D01*
X122538872Y-132788242D01*
X122538869Y-132788242D01*
X122336782Y-132853904D01*
X122147439Y-132950380D01*
X122093282Y-132989727D01*
X122093282Y-132989728D01*
X122725591Y-133622037D01*
X122662007Y-133639075D01*
X122547993Y-133704901D01*
X122454901Y-133797993D01*
X122389075Y-133912007D01*
X122372037Y-133975591D01*
X121739728Y-133343282D01*
X121739727Y-133343282D01*
X121700380Y-133397439D01*
X121603904Y-133586782D01*
X121538242Y-133788869D01*
X121538242Y-133788872D01*
X121505000Y-133998753D01*
X121505000Y-134211246D01*
X121538242Y-134421127D01*
X121538242Y-134421130D01*
X121603904Y-134623217D01*
X121700375Y-134812550D01*
X121739728Y-134866716D01*
X122372037Y-134234408D01*
X122389075Y-134297993D01*
X122454901Y-134412007D01*
X122547993Y-134505099D01*
X122662007Y-134570925D01*
X122725590Y-134587962D01*
X122093282Y-135220269D01*
X122093282Y-135220270D01*
X122147449Y-135259624D01*
X122336782Y-135356095D01*
X122538870Y-135421757D01*
X122748754Y-135455000D01*
X122961246Y-135455000D01*
X123171127Y-135421757D01*
X123171130Y-135421757D01*
X123373217Y-135356095D01*
X123562554Y-135259622D01*
X123616716Y-135220270D01*
X123616717Y-135220270D01*
X122984408Y-134587962D01*
X123047993Y-134570925D01*
X123162007Y-134505099D01*
X123255099Y-134412007D01*
X123320925Y-134297993D01*
X123337962Y-134234409D01*
X123970270Y-134866717D01*
X123970270Y-134866716D01*
X124009622Y-134812555D01*
X124014232Y-134803507D01*
X124062205Y-134752709D01*
X124130025Y-134735912D01*
X124196161Y-134758447D01*
X124235204Y-134803504D01*
X124239949Y-134812817D01*
X124367759Y-134988734D01*
X124366888Y-134989366D01*
X124393357Y-135048401D01*
X124394500Y-135065199D01*
X124394500Y-137154217D01*
X124374815Y-137221256D01*
X124358181Y-137241898D01*
X121946797Y-139653281D01*
X121885474Y-139686766D01*
X121878515Y-139688073D01*
X121730468Y-139711522D01*
X121535778Y-139774781D01*
X121353386Y-139867715D01*
X121187786Y-139988028D01*
X121043028Y-140132786D01*
X120922715Y-140298386D01*
X120829781Y-140480776D01*
X120766522Y-140675465D01*
X120734500Y-140877648D01*
X120734500Y-141082351D01*
X120766522Y-141284534D01*
X120829781Y-141479223D01*
X120889709Y-141596836D01*
X120910571Y-141637781D01*
X120922715Y-141661613D01*
X121043028Y-141827213D01*
X121187786Y-141971971D01*
X121307084Y-142058644D01*
X121353390Y-142092287D01*
X121469607Y-142151503D01*
X121535776Y-142185218D01*
X121535778Y-142185218D01*
X121535781Y-142185220D01*
X121551570Y-142190350D01*
X121730465Y-142248477D01*
X121831557Y-142264488D01*
X121932648Y-142280500D01*
X121932649Y-142280500D01*
X122137351Y-142280500D01*
X122137352Y-142280500D01*
X122339534Y-142248477D01*
X122534219Y-142185220D01*
X122716610Y-142092287D01*
X122830873Y-142009271D01*
X122882213Y-141971971D01*
X122882215Y-141971968D01*
X122882219Y-141971966D01*
X123026966Y-141827219D01*
X123026968Y-141827215D01*
X123026971Y-141827213D01*
X123104678Y-141720257D01*
X123147287Y-141661610D01*
X123240220Y-141479219D01*
X123303477Y-141284534D01*
X123326925Y-141136483D01*
X123356854Y-141073350D01*
X123361699Y-141068219D01*
X126172140Y-138257781D01*
X126281632Y-138093914D01*
X126357052Y-137911835D01*
X126395501Y-137718540D01*
X126395501Y-137521459D01*
X126395501Y-137516347D01*
X126395500Y-137516323D01*
X126395500Y-135065199D01*
X126415185Y-134998160D01*
X126424471Y-134985664D01*
X126550048Y-134812820D01*
X126550050Y-134812817D01*
X126550051Y-134812816D01*
X126554514Y-134804054D01*
X126602488Y-134753259D01*
X126670308Y-134736463D01*
X126736444Y-134758999D01*
X126775484Y-134804054D01*
X126779591Y-134812115D01*
X126779951Y-134812820D01*
X126907759Y-134988734D01*
X126906888Y-134989366D01*
X126933357Y-135048401D01*
X126934500Y-135065199D01*
X126934500Y-139358541D01*
X126942797Y-139400250D01*
X126972949Y-139551836D01*
X126992295Y-139598540D01*
X126995685Y-139606726D01*
X126995687Y-139606731D01*
X127048364Y-139733906D01*
X127048371Y-139733919D01*
X127103482Y-139816398D01*
X127157861Y-139897782D01*
X127297218Y-140037139D01*
X127297220Y-140037140D01*
X127304286Y-140044206D01*
X127304285Y-140044206D01*
X127304289Y-140044209D01*
X128328281Y-141068201D01*
X128361766Y-141129524D01*
X128363073Y-141136483D01*
X128386523Y-141284535D01*
X128449781Y-141479223D01*
X128520379Y-141617778D01*
X128542713Y-141661610D01*
X128630819Y-141782877D01*
X128654298Y-141848681D01*
X128654500Y-141855761D01*
X128654500Y-143379217D01*
X128634815Y-143446256D01*
X128618181Y-143466898D01*
X118621899Y-153463181D01*
X118560576Y-153496666D01*
X118534218Y-153499500D01*
X100214782Y-153499500D01*
X100147743Y-153479815D01*
X100101988Y-153427011D01*
X100092044Y-153357853D01*
X100121069Y-153294297D01*
X100127101Y-153287819D01*
X104847135Y-148567786D01*
X109777140Y-143637781D01*
X109886632Y-143473914D01*
X109962052Y-143291835D01*
X110000501Y-143098540D01*
X110000501Y-142901459D01*
X110000501Y-142896349D01*
X110000500Y-142896323D01*
X110000500Y-124672889D01*
X110020185Y-124605850D01*
X110036819Y-124585208D01*
X110078325Y-124543702D01*
X110144517Y-124477510D01*
X110283343Y-124286433D01*
X110390568Y-124075992D01*
X110463553Y-123851368D01*
X110472250Y-123796456D01*
X110500500Y-123618097D01*
X110500500Y-123381902D01*
X110463553Y-123148631D01*
X110429689Y-123044412D01*
X110390568Y-122924008D01*
X110390566Y-122924005D01*
X110390566Y-122924003D01*
X110324127Y-122793611D01*
X110283343Y-122713567D01*
X110198931Y-122597385D01*
X110175452Y-122531579D01*
X110191277Y-122463525D01*
X110241383Y-122414830D01*
X110299250Y-122400500D01*
X113884800Y-122400500D01*
X113951839Y-122420185D01*
G37*
%TD.AperFunction*%
%TA.AperFunction,Conductor*%
G36*
X171601257Y-33020185D02*
G01*
X171621899Y-33036819D01*
X171808181Y-33223101D01*
X171841666Y-33284424D01*
X171844500Y-33310782D01*
X171844500Y-35019800D01*
X171824815Y-35086839D01*
X171815506Y-35099365D01*
X171689949Y-35272182D01*
X171685484Y-35280946D01*
X171637509Y-35331742D01*
X171569688Y-35348536D01*
X171503553Y-35325998D01*
X171464516Y-35280946D01*
X171460050Y-35272182D01*
X171335109Y-35100213D01*
X171184786Y-34949890D01*
X171012820Y-34824951D01*
X170823414Y-34728444D01*
X170823413Y-34728443D01*
X170823412Y-34728443D01*
X170621243Y-34662754D01*
X170621241Y-34662753D01*
X170621240Y-34662753D01*
X170459957Y-34637208D01*
X170411287Y-34629500D01*
X170198713Y-34629500D01*
X170150042Y-34637208D01*
X169988760Y-34662753D01*
X169786585Y-34728444D01*
X169597179Y-34824951D01*
X169425213Y-34949890D01*
X169274890Y-35100213D01*
X169149951Y-35272179D01*
X169053444Y-35461585D01*
X168987753Y-35663760D01*
X168953738Y-35878525D01*
X168952684Y-35878358D01*
X168929621Y-35938850D01*
X168918576Y-35951503D01*
X160952221Y-43917858D01*
X160362221Y-44507858D01*
X160362218Y-44507861D01*
X160292538Y-44577540D01*
X160222859Y-44647219D01*
X160113371Y-44811079D01*
X160113366Y-44811089D01*
X160060037Y-44939836D01*
X160040576Y-44986824D01*
X160040573Y-44986832D01*
X160037948Y-44993167D01*
X160037945Y-44993175D01*
X159999500Y-45186454D01*
X159999500Y-101033174D01*
X159979815Y-101100213D01*
X159927011Y-101145968D01*
X159894898Y-101155647D01*
X159723760Y-101182753D01*
X159521585Y-101248444D01*
X159332179Y-101344951D01*
X159160215Y-101469889D01*
X159046673Y-101583431D01*
X158985350Y-101616915D01*
X158915658Y-101611931D01*
X158859725Y-101570059D01*
X158842810Y-101539082D01*
X158793797Y-101407671D01*
X158793793Y-101407664D01*
X158707547Y-101292455D01*
X158707544Y-101292452D01*
X158592335Y-101206206D01*
X158592328Y-101206202D01*
X158457482Y-101155908D01*
X158457483Y-101155908D01*
X158397883Y-101149501D01*
X158397881Y-101149500D01*
X158397873Y-101149500D01*
X158397865Y-101149500D01*
X158115783Y-101149500D01*
X158048744Y-101129815D01*
X158028102Y-101113181D01*
X156784209Y-99869289D01*
X156784206Y-99869285D01*
X156784206Y-99869286D01*
X156777139Y-99862219D01*
X156777139Y-99862218D01*
X156637782Y-99722861D01*
X156637781Y-99722860D01*
X156637780Y-99722859D01*
X156473920Y-99613371D01*
X156473911Y-99613366D01*
X156352360Y-99563018D01*
X156352357Y-99563017D01*
X156345165Y-99560038D01*
X156291836Y-99537949D01*
X156182803Y-99516261D01*
X156178482Y-99515401D01*
X156178473Y-99515399D01*
X156098543Y-99499500D01*
X156098541Y-99499500D01*
X150901459Y-99499500D01*
X150901457Y-99499500D01*
X150817197Y-99516261D01*
X150817196Y-99516261D01*
X150708167Y-99537947D01*
X150708159Y-99537950D01*
X150654834Y-99560037D01*
X150654834Y-99560038D01*
X150609315Y-99578892D01*
X150526089Y-99613366D01*
X150526079Y-99613371D01*
X150362219Y-99722859D01*
X150301427Y-99783652D01*
X150222861Y-99862218D01*
X150222858Y-99862221D01*
X149405179Y-100679901D01*
X148621899Y-101463181D01*
X148560576Y-101496666D01*
X148534218Y-101499500D01*
X148381903Y-101499500D01*
X148148631Y-101536446D01*
X147924003Y-101609433D01*
X147713566Y-101716657D01*
X147609620Y-101792179D01*
X147522490Y-101855483D01*
X147522488Y-101855485D01*
X147522487Y-101855485D01*
X147355485Y-102022487D01*
X147355485Y-102022488D01*
X147355483Y-102022490D01*
X147299240Y-102099901D01*
X147216657Y-102213566D01*
X147109433Y-102424003D01*
X147036446Y-102648631D01*
X146999500Y-102881902D01*
X146999500Y-103118097D01*
X147036446Y-103351368D01*
X147109433Y-103575996D01*
X147198651Y-103751095D01*
X147216657Y-103786433D01*
X147355483Y-103977510D01*
X147522490Y-104144517D01*
X147713567Y-104283343D01*
X147757665Y-104305812D01*
X147924003Y-104390566D01*
X147924005Y-104390566D01*
X147924008Y-104390568D01*
X148044412Y-104429689D01*
X148148631Y-104463553D01*
X148381903Y-104500500D01*
X148381908Y-104500500D01*
X148618097Y-104500500D01*
X148851368Y-104463553D01*
X149075992Y-104390568D01*
X149286433Y-104283343D01*
X149477510Y-104144517D01*
X149644517Y-103977510D01*
X149783343Y-103786433D01*
X149890568Y-103575992D01*
X149963553Y-103351368D01*
X150000500Y-103118097D01*
X150000500Y-102965782D01*
X150020185Y-102898743D01*
X150036819Y-102878101D01*
X151378101Y-101536819D01*
X151439424Y-101503334D01*
X151465782Y-101500500D01*
X155534218Y-101500500D01*
X155601257Y-101520185D01*
X155621899Y-101536819D01*
X156113181Y-102028101D01*
X156146666Y-102089424D01*
X156149500Y-102115782D01*
X156149500Y-103397870D01*
X156149501Y-103397876D01*
X156155908Y-103457483D01*
X156206202Y-103592328D01*
X156206206Y-103592335D01*
X156292452Y-103707544D01*
X156292455Y-103707547D01*
X156407664Y-103793793D01*
X156407671Y-103793797D01*
X156542517Y-103844091D01*
X156542516Y-103844091D01*
X156549444Y-103844835D01*
X156602127Y-103850500D01*
X158397872Y-103850499D01*
X158457483Y-103844091D01*
X158592331Y-103793796D01*
X158707546Y-103707546D01*
X158793796Y-103592331D01*
X158842810Y-103460916D01*
X158884681Y-103404984D01*
X158950145Y-103380566D01*
X159018418Y-103395417D01*
X159046673Y-103416569D01*
X159160213Y-103530109D01*
X159332179Y-103655048D01*
X159332181Y-103655049D01*
X159332184Y-103655051D01*
X159521588Y-103751557D01*
X159623739Y-103784748D01*
X159624958Y-103785144D01*
X159682634Y-103824582D01*
X159709832Y-103888940D01*
X159697917Y-103957787D01*
X159674321Y-103990756D01*
X158701899Y-104963181D01*
X158640576Y-104996666D01*
X158614218Y-104999500D01*
X140401458Y-104999500D01*
X140383949Y-105002983D01*
X140348929Y-105009949D01*
X140208167Y-105037947D01*
X140208159Y-105037950D01*
X140154834Y-105060037D01*
X140154834Y-105060038D01*
X140109315Y-105078892D01*
X140026089Y-105113366D01*
X140026079Y-105113371D01*
X139862219Y-105222859D01*
X139804871Y-105280208D01*
X139722861Y-105362218D01*
X139722858Y-105362221D01*
X127828837Y-117256242D01*
X127828834Y-117256245D01*
X127759579Y-117325500D01*
X127689475Y-117395603D01*
X127579987Y-117559463D01*
X127579980Y-117559476D01*
X127504566Y-117741544D01*
X127504563Y-117741554D01*
X127466116Y-117934840D01*
X127466116Y-122565159D01*
X127480011Y-122635014D01*
X127480014Y-122635026D01*
X127480562Y-122637781D01*
X127504565Y-122758452D01*
X127515541Y-122784949D01*
X127519126Y-122793605D01*
X127519128Y-122793611D01*
X127579980Y-122940522D01*
X127579987Y-122940535D01*
X127689476Y-123104398D01*
X127833153Y-123248075D01*
X127833175Y-123248095D01*
X130702899Y-126117819D01*
X130736384Y-126179142D01*
X130731400Y-126248834D01*
X130689528Y-126304767D01*
X130624064Y-126329184D01*
X130615218Y-126329500D01*
X116294403Y-126329500D01*
X116227364Y-126309815D01*
X116181609Y-126257011D01*
X116171930Y-126224898D01*
X116162246Y-126163756D01*
X116096555Y-125961583D01*
X116000048Y-125772179D01*
X115875109Y-125600213D01*
X115724786Y-125449890D01*
X115552820Y-125324951D01*
X115552115Y-125324591D01*
X115544054Y-125320485D01*
X115493259Y-125272512D01*
X115476463Y-125204692D01*
X115498999Y-125138556D01*
X115544054Y-125099515D01*
X115552816Y-125095051D01*
X115567769Y-125084186D01*
X115728734Y-124967241D01*
X115729364Y-124968108D01*
X115788419Y-124941641D01*
X115805200Y-124940500D01*
X123372111Y-124940500D01*
X123439150Y-124960185D01*
X123459792Y-124976819D01*
X123460483Y-124977510D01*
X123627490Y-125144517D01*
X123818567Y-125283343D01*
X123910040Y-125329951D01*
X124029003Y-125390566D01*
X124029005Y-125390566D01*
X124029008Y-125390568D01*
X124149412Y-125429689D01*
X124253631Y-125463553D01*
X124486903Y-125500500D01*
X124486908Y-125500500D01*
X124723097Y-125500500D01*
X124956368Y-125463553D01*
X124983011Y-125454896D01*
X125180992Y-125390568D01*
X125391433Y-125283343D01*
X125582510Y-125144517D01*
X125749517Y-124977510D01*
X125888343Y-124786433D01*
X125995568Y-124575992D01*
X126068553Y-124351368D01*
X126079327Y-124283342D01*
X126105500Y-124118097D01*
X126105500Y-123881902D01*
X126068553Y-123648631D01*
X125995566Y-123424003D01*
X125939002Y-123312991D01*
X125888343Y-123213567D01*
X125749517Y-123022490D01*
X125582510Y-122855483D01*
X125391433Y-122716657D01*
X125345873Y-122693443D01*
X125180996Y-122609433D01*
X124956368Y-122536446D01*
X124723097Y-122499500D01*
X124723092Y-122499500D01*
X124486908Y-122499500D01*
X124486903Y-122499500D01*
X124253631Y-122536446D01*
X124029003Y-122609433D01*
X123818566Y-122716657D01*
X123717687Y-122789951D01*
X123627490Y-122855483D01*
X123627488Y-122855485D01*
X123627487Y-122855485D01*
X123579792Y-122903181D01*
X123518469Y-122936666D01*
X123492111Y-122939500D01*
X115805200Y-122939500D01*
X115738161Y-122919815D01*
X115725634Y-122910506D01*
X115552820Y-122784951D01*
X115552115Y-122784591D01*
X115544054Y-122780485D01*
X115493259Y-122732512D01*
X115476463Y-122664692D01*
X115498999Y-122598556D01*
X115544054Y-122559515D01*
X115552816Y-122555051D01*
X115597633Y-122522490D01*
X115724786Y-122430109D01*
X115724788Y-122430106D01*
X115724792Y-122430104D01*
X115875104Y-122279792D01*
X115875106Y-122279788D01*
X115875109Y-122279786D01*
X116000048Y-122107820D01*
X116000047Y-122107820D01*
X116000051Y-122107816D01*
X116096557Y-121918412D01*
X116162246Y-121716243D01*
X116195500Y-121506287D01*
X116195500Y-121293713D01*
X116162246Y-121083757D01*
X116096557Y-120881588D01*
X116000051Y-120692184D01*
X116000049Y-120692181D01*
X116000048Y-120692179D01*
X115875109Y-120520213D01*
X115724786Y-120369890D01*
X115552820Y-120244951D01*
X115552115Y-120244591D01*
X115544054Y-120240485D01*
X115493259Y-120192512D01*
X115476463Y-120124692D01*
X115498999Y-120058556D01*
X115544054Y-120019515D01*
X115552816Y-120015051D01*
X115601061Y-119979999D01*
X115724786Y-119890109D01*
X115724788Y-119890106D01*
X115724792Y-119890104D01*
X115875104Y-119739792D01*
X115875106Y-119739788D01*
X115875109Y-119739786D01*
X116000048Y-119567820D01*
X116000047Y-119567820D01*
X116000051Y-119567816D01*
X116096557Y-119378412D01*
X116162246Y-119176243D01*
X116195500Y-118966287D01*
X116195500Y-118753713D01*
X116162246Y-118543757D01*
X116096557Y-118341588D01*
X116000051Y-118152184D01*
X116000049Y-118152181D01*
X116000048Y-118152179D01*
X115875109Y-117980213D01*
X115724786Y-117829890D01*
X115552817Y-117704949D01*
X115543504Y-117700204D01*
X115492707Y-117652230D01*
X115475912Y-117584409D01*
X115498449Y-117518274D01*
X115543507Y-117479232D01*
X115552555Y-117474622D01*
X115606716Y-117435270D01*
X115606717Y-117435270D01*
X114974408Y-116802962D01*
X115037993Y-116785925D01*
X115152007Y-116720099D01*
X115245099Y-116627007D01*
X115310925Y-116512993D01*
X115327962Y-116449408D01*
X115960270Y-117081717D01*
X115960270Y-117081716D01*
X115999622Y-117027554D01*
X116096095Y-116838217D01*
X116161757Y-116636130D01*
X116161757Y-116636127D01*
X116195000Y-116426246D01*
X116195000Y-116213753D01*
X116161757Y-116003872D01*
X116161757Y-116003869D01*
X116096095Y-115801782D01*
X115999624Y-115612449D01*
X115960270Y-115558282D01*
X115960269Y-115558282D01*
X115327962Y-116190590D01*
X115310925Y-116127007D01*
X115245099Y-116012993D01*
X115152007Y-115919901D01*
X115037993Y-115854075D01*
X114974409Y-115837037D01*
X115606716Y-115204728D01*
X115552547Y-115165373D01*
X115552547Y-115165372D01*
X115543500Y-115160763D01*
X115492706Y-115112788D01*
X115475912Y-115044966D01*
X115498451Y-114978832D01*
X115543508Y-114939793D01*
X115552816Y-114935051D01*
X115648862Y-114865270D01*
X115724786Y-114810109D01*
X115724788Y-114810106D01*
X115724792Y-114810104D01*
X115875104Y-114659792D01*
X115875106Y-114659788D01*
X115875109Y-114659786D01*
X116000048Y-114487820D01*
X116000047Y-114487820D01*
X116000051Y-114487816D01*
X116096557Y-114298412D01*
X116162246Y-114096243D01*
X116195500Y-113886287D01*
X116195500Y-113886285D01*
X116196262Y-113881475D01*
X116197321Y-113881642D01*
X116220361Y-113821172D01*
X116231416Y-113808503D01*
X119277140Y-110762781D01*
X119386632Y-110598914D01*
X119462052Y-110416835D01*
X119500501Y-110223540D01*
X119500501Y-110026459D01*
X119500501Y-110021349D01*
X119500500Y-110021323D01*
X119500500Y-93901458D01*
X119500499Y-93901457D01*
X119494121Y-93869389D01*
X119462052Y-93708165D01*
X119420005Y-93606655D01*
X119386633Y-93526088D01*
X119386628Y-93526079D01*
X119277140Y-93362219D01*
X119277137Y-93362215D01*
X116284209Y-90369289D01*
X116284206Y-90369285D01*
X116284206Y-90369286D01*
X116277139Y-90362219D01*
X116277139Y-90362218D01*
X116137782Y-90222861D01*
X116137781Y-90222860D01*
X116137780Y-90222859D01*
X115973920Y-90113371D01*
X115973911Y-90113366D01*
X115901315Y-90083296D01*
X115845165Y-90060038D01*
X115791836Y-90037949D01*
X115791832Y-90037948D01*
X115791828Y-90037946D01*
X115695188Y-90018724D01*
X115598544Y-89999500D01*
X115598541Y-89999500D01*
X104965782Y-89999500D01*
X104898743Y-89979815D01*
X104878101Y-89963181D01*
X101036819Y-86121899D01*
X101003334Y-86060576D01*
X101000500Y-86034218D01*
X101000500Y-83360966D01*
X101020185Y-83293927D01*
X101072989Y-83248172D01*
X101134230Y-83237348D01*
X101189728Y-83241716D01*
X101822037Y-82609408D01*
X101839075Y-82672993D01*
X101904901Y-82787007D01*
X101997993Y-82880099D01*
X102112007Y-82945925D01*
X102175590Y-82962962D01*
X101543282Y-83595269D01*
X101543282Y-83595270D01*
X101597449Y-83634624D01*
X101786782Y-83731095D01*
X101988870Y-83796757D01*
X102198754Y-83830000D01*
X102411246Y-83830000D01*
X102621127Y-83796757D01*
X102621130Y-83796757D01*
X102823217Y-83731095D01*
X103012554Y-83634622D01*
X103066716Y-83595270D01*
X103066717Y-83595270D01*
X102434408Y-82962962D01*
X102497993Y-82945925D01*
X102612007Y-82880099D01*
X102705099Y-82787007D01*
X102770925Y-82672993D01*
X102787962Y-82609408D01*
X103420270Y-83241717D01*
X103420270Y-83241716D01*
X103459622Y-83187555D01*
X103464232Y-83178507D01*
X103512205Y-83127709D01*
X103580025Y-83110912D01*
X103646161Y-83133447D01*
X103685204Y-83178504D01*
X103689949Y-83187817D01*
X103814890Y-83359786D01*
X103965213Y-83510109D01*
X104137179Y-83635048D01*
X104137181Y-83635049D01*
X104137184Y-83635051D01*
X104326588Y-83731557D01*
X104528757Y-83797246D01*
X104738713Y-83830500D01*
X104738714Y-83830500D01*
X104951286Y-83830500D01*
X104951287Y-83830500D01*
X105161243Y-83797246D01*
X105363412Y-83731557D01*
X105552816Y-83635051D01*
X105639138Y-83572335D01*
X105724786Y-83510109D01*
X105724788Y-83510106D01*
X105724792Y-83510104D01*
X105875104Y-83359792D01*
X105875106Y-83359788D01*
X105875109Y-83359786D01*
X106000048Y-83187820D01*
X106000050Y-83187817D01*
X106000051Y-83187816D01*
X106004514Y-83179054D01*
X106052488Y-83128259D01*
X106120308Y-83111463D01*
X106186444Y-83133999D01*
X106225486Y-83179056D01*
X106229951Y-83187820D01*
X106354890Y-83359786D01*
X106505213Y-83510109D01*
X106677179Y-83635048D01*
X106677181Y-83635049D01*
X106677184Y-83635051D01*
X106866588Y-83731557D01*
X107068757Y-83797246D01*
X107278713Y-83830500D01*
X107278714Y-83830500D01*
X107491286Y-83830500D01*
X107491287Y-83830500D01*
X107701243Y-83797246D01*
X107903412Y-83731557D01*
X108092816Y-83635051D01*
X108179138Y-83572335D01*
X108264786Y-83510109D01*
X108264788Y-83510106D01*
X108264792Y-83510104D01*
X108415104Y-83359792D01*
X108415106Y-83359788D01*
X108415109Y-83359786D01*
X108540048Y-83187820D01*
X108540050Y-83187817D01*
X108540051Y-83187816D01*
X108636557Y-82998412D01*
X108702246Y-82796243D01*
X108735500Y-82586287D01*
X108735500Y-82373713D01*
X108702246Y-82163757D01*
X108636557Y-81961588D01*
X108540051Y-81772184D01*
X108540049Y-81772181D01*
X108540048Y-81772179D01*
X108415109Y-81600213D01*
X108264786Y-81449890D01*
X108092820Y-81324951D01*
X107903414Y-81228444D01*
X107903413Y-81228443D01*
X107903412Y-81228443D01*
X107701243Y-81162754D01*
X107701241Y-81162753D01*
X107701240Y-81162753D01*
X107539957Y-81137208D01*
X107491287Y-81129500D01*
X107278713Y-81129500D01*
X107230042Y-81137208D01*
X107068760Y-81162753D01*
X106866585Y-81228444D01*
X106677179Y-81324951D01*
X106505213Y-81449890D01*
X106354890Y-81600213D01*
X106229949Y-81772182D01*
X106225484Y-81780946D01*
X106177509Y-81831742D01*
X106109688Y-81848536D01*
X106043553Y-81825998D01*
X106004516Y-81780946D01*
X106000050Y-81772182D01*
X105875109Y-81600213D01*
X105724786Y-81449890D01*
X105552820Y-81324951D01*
X105363414Y-81228444D01*
X105363413Y-81228443D01*
X105363412Y-81228443D01*
X105161243Y-81162754D01*
X105161241Y-81162753D01*
X105161240Y-81162753D01*
X104999957Y-81137208D01*
X104951287Y-81129500D01*
X104738713Y-81129500D01*
X104690042Y-81137208D01*
X104528760Y-81162753D01*
X104326585Y-81228444D01*
X104137179Y-81324951D01*
X103965213Y-81449890D01*
X103814890Y-81600213D01*
X103689949Y-81772182D01*
X103685202Y-81781499D01*
X103637227Y-81832293D01*
X103569405Y-81849087D01*
X103503271Y-81826548D01*
X103464234Y-81781495D01*
X103459626Y-81772452D01*
X103420270Y-81718282D01*
X103420269Y-81718282D01*
X102787962Y-82350590D01*
X102770925Y-82287007D01*
X102705099Y-82172993D01*
X102612007Y-82079901D01*
X102497993Y-82014075D01*
X102434409Y-81997037D01*
X103066716Y-81364728D01*
X103012550Y-81325375D01*
X102823217Y-81228904D01*
X102621129Y-81163242D01*
X102411246Y-81130000D01*
X102198754Y-81130000D01*
X101988872Y-81163242D01*
X101988869Y-81163242D01*
X101786782Y-81228904D01*
X101597439Y-81325380D01*
X101543282Y-81364727D01*
X101543282Y-81364728D01*
X102175591Y-81997037D01*
X102112007Y-82014075D01*
X101997993Y-82079901D01*
X101904901Y-82172993D01*
X101839075Y-82287007D01*
X101822037Y-82350591D01*
X101189728Y-81718282D01*
X101189727Y-81718282D01*
X101150380Y-81772440D01*
X101150376Y-81772446D01*
X101145760Y-81781505D01*
X101097781Y-81832297D01*
X101029959Y-81849087D01*
X100963826Y-81826543D01*
X100924794Y-81781493D01*
X100920051Y-81772184D01*
X100920049Y-81772181D01*
X100920048Y-81772179D01*
X100795109Y-81600213D01*
X100644786Y-81449890D01*
X100472820Y-81324951D01*
X100283414Y-81228444D01*
X100283413Y-81228443D01*
X100283412Y-81228443D01*
X100081243Y-81162754D01*
X100081241Y-81162753D01*
X100081240Y-81162753D01*
X99919957Y-81137208D01*
X99871287Y-81129500D01*
X99658713Y-81129500D01*
X99610042Y-81137208D01*
X99448760Y-81162753D01*
X99246585Y-81228444D01*
X99057179Y-81324951D01*
X98885215Y-81449889D01*
X98771673Y-81563431D01*
X98710350Y-81596915D01*
X98640658Y-81591931D01*
X98584725Y-81550059D01*
X98567810Y-81519082D01*
X98518797Y-81387671D01*
X98518793Y-81387664D01*
X98432547Y-81272455D01*
X98432544Y-81272452D01*
X98317335Y-81186206D01*
X98317328Y-81186202D01*
X98182482Y-81135908D01*
X98182483Y-81135908D01*
X98122883Y-81129501D01*
X98122881Y-81129500D01*
X98122873Y-81129500D01*
X98122864Y-81129500D01*
X96327129Y-81129500D01*
X96327123Y-81129501D01*
X96267516Y-81135908D01*
X96132671Y-81186202D01*
X96132664Y-81186206D01*
X96017455Y-81272452D01*
X96017452Y-81272455D01*
X95931206Y-81387664D01*
X95931202Y-81387671D01*
X95880908Y-81522517D01*
X95874501Y-81582116D01*
X95874500Y-81582135D01*
X95874500Y-83377870D01*
X95874501Y-83377876D01*
X95880908Y-83437483D01*
X95931202Y-83572328D01*
X95931206Y-83572335D01*
X96017452Y-83687544D01*
X96017455Y-83687547D01*
X96132665Y-83773794D01*
X96132667Y-83773794D01*
X96132669Y-83773796D01*
X96143830Y-83777958D01*
X96199764Y-83819826D01*
X96224184Y-83885289D01*
X96224500Y-83894141D01*
X96224500Y-92374312D01*
X96204815Y-92441351D01*
X96152011Y-92487106D01*
X96004060Y-92554672D01*
X96004044Y-92554681D01*
X95823487Y-92670719D01*
X95823480Y-92670725D01*
X95661276Y-92811274D01*
X95661274Y-92811276D01*
X95520725Y-92973480D01*
X95520719Y-92973487D01*
X95404681Y-93154044D01*
X95404672Y-93154060D01*
X95315517Y-93349282D01*
X95255047Y-93555223D01*
X95255044Y-93555233D01*
X95224500Y-93767680D01*
X95224500Y-94182319D01*
X95255044Y-94394766D01*
X95255047Y-94394776D01*
X95315517Y-94600717D01*
X95404672Y-94795939D01*
X95404681Y-94795955D01*
X95520719Y-94976512D01*
X95622347Y-95093797D01*
X95651372Y-95157353D01*
X95641428Y-95226512D01*
X95622347Y-95256201D01*
X95599368Y-95282721D01*
X95520719Y-95373487D01*
X95404681Y-95554044D01*
X95404672Y-95554060D01*
X95315517Y-95749282D01*
X95255047Y-95955223D01*
X95255044Y-95955233D01*
X95224500Y-96167680D01*
X95224500Y-96582319D01*
X95255044Y-96794766D01*
X95255047Y-96794776D01*
X95315517Y-97000717D01*
X95404672Y-97195939D01*
X95404681Y-97195955D01*
X95520719Y-97376512D01*
X95520725Y-97376519D01*
X95661274Y-97538723D01*
X95661276Y-97538725D01*
X95823480Y-97679274D01*
X95823487Y-97679280D01*
X96004049Y-97795321D01*
X96152014Y-97862894D01*
X96204815Y-97908647D01*
X96224500Y-97975686D01*
X96224500Y-98823543D01*
X96257209Y-98987984D01*
X96257210Y-98987984D01*
X96257210Y-98987986D01*
X96262949Y-99016835D01*
X96262950Y-99016837D01*
X96262950Y-99016839D01*
X96338364Y-99198907D01*
X96338371Y-99198920D01*
X96447860Y-99362781D01*
X96447863Y-99362785D01*
X96591537Y-99506459D01*
X96591559Y-99506479D01*
X97148225Y-100063145D01*
X97213780Y-100128701D01*
X97213779Y-100128701D01*
X97289655Y-100204577D01*
X97289673Y-100204593D01*
X97461488Y-100333212D01*
X97461496Y-100333217D01*
X97649866Y-100436075D01*
X97649869Y-100436077D01*
X97649872Y-100436078D01*
X97725306Y-100464213D01*
X97781238Y-100506083D01*
X97805655Y-100571547D01*
X97790804Y-100639820D01*
X97790803Y-100639820D01*
X97754939Y-100705499D01*
X97754936Y-100705505D01*
X97679926Y-100906614D01*
X97634305Y-101116337D01*
X97634304Y-101116344D01*
X97618992Y-101330432D01*
X97618992Y-101330435D01*
X97634304Y-101544527D01*
X97679925Y-101754244D01*
X97679927Y-101754250D01*
X97679928Y-101754253D01*
X97750156Y-101942539D01*
X97754938Y-101955360D01*
X97857796Y-102143730D01*
X97857801Y-102143738D01*
X97986419Y-102315553D01*
X97986425Y-102315559D01*
X97986426Y-102315561D01*
X98062311Y-102391446D01*
X98127867Y-102457002D01*
X98127870Y-102457004D01*
X98165281Y-102494415D01*
X98203731Y-102532866D01*
X98279616Y-102608752D01*
X98281946Y-102610496D01*
X98451438Y-102737377D01*
X98451446Y-102737382D01*
X98639817Y-102840241D01*
X98639821Y-102840243D01*
X98639823Y-102840244D01*
X98840927Y-102915252D01*
X98840930Y-102915252D01*
X98840931Y-102915253D01*
X98849785Y-102917179D01*
X99050659Y-102960876D01*
X99205454Y-102971947D01*
X99270918Y-102996364D01*
X99312790Y-103052297D01*
X99320292Y-103086784D01*
X99331364Y-103241587D01*
X99376985Y-103451304D01*
X99376987Y-103451310D01*
X99376988Y-103451313D01*
X99451996Y-103652415D01*
X99451998Y-103652420D01*
X99554856Y-103840790D01*
X99554861Y-103840798D01*
X99683479Y-104012613D01*
X99683485Y-104012619D01*
X99683486Y-104012621D01*
X99759371Y-104088506D01*
X99824927Y-104154062D01*
X99824930Y-104154064D01*
X99829269Y-104158403D01*
X99868011Y-104197145D01*
X99868012Y-104197147D01*
X99900790Y-104229925D01*
X99900791Y-104229926D01*
X99976676Y-104305812D01*
X100060579Y-104368621D01*
X100148498Y-104434437D01*
X100148506Y-104434442D01*
X100336877Y-104537301D01*
X100336879Y-104537302D01*
X100336883Y-104537304D01*
X100537987Y-104612312D01*
X100537990Y-104612312D01*
X100537991Y-104612313D01*
X100607897Y-104627520D01*
X100747719Y-104657936D01*
X100946496Y-104672152D01*
X100961808Y-104673248D01*
X100961809Y-104673248D01*
X100961810Y-104673248D01*
X100977122Y-104672152D01*
X101175898Y-104657936D01*
X101175908Y-104657934D01*
X101211901Y-104650104D01*
X101385630Y-104612311D01*
X101538031Y-104555466D01*
X101607723Y-104550482D01*
X101669044Y-104583964D01*
X101669047Y-104583967D01*
X104022215Y-106937137D01*
X104022217Y-106937139D01*
X104186079Y-107046628D01*
X104186085Y-107046631D01*
X104186086Y-107046632D01*
X104368165Y-107122052D01*
X104561455Y-107160500D01*
X104561458Y-107160501D01*
X104561460Y-107160501D01*
X104764655Y-107160501D01*
X104764675Y-107160500D01*
X113884800Y-107160500D01*
X113951839Y-107180185D01*
X113964365Y-107189493D01*
X114137182Y-107315050D01*
X114145946Y-107319516D01*
X114196742Y-107367491D01*
X114213536Y-107435312D01*
X114190998Y-107501447D01*
X114145946Y-107540484D01*
X114137182Y-107544949D01*
X113965213Y-107669890D01*
X113814890Y-107820213D01*
X113689951Y-107992179D01*
X113593444Y-108181585D01*
X113527753Y-108383760D01*
X113525380Y-108398743D01*
X113494500Y-108593713D01*
X113494500Y-108806287D01*
X113527754Y-109016243D01*
X113529377Y-109021239D01*
X113593444Y-109218414D01*
X113689951Y-109407820D01*
X113814890Y-109579786D01*
X113965213Y-109730109D01*
X114137182Y-109855050D01*
X114145946Y-109859516D01*
X114196742Y-109907491D01*
X114213536Y-109975312D01*
X114190998Y-110041447D01*
X114145946Y-110080484D01*
X114137182Y-110084949D01*
X113965213Y-110209890D01*
X113814890Y-110360213D01*
X113689951Y-110532179D01*
X113593444Y-110721585D01*
X113527753Y-110923760D01*
X113494500Y-111133713D01*
X113494500Y-111346286D01*
X113524677Y-111536819D01*
X113527754Y-111556243D01*
X113565375Y-111672029D01*
X113593444Y-111758414D01*
X113689951Y-111947820D01*
X113814890Y-112119786D01*
X113965213Y-112270109D01*
X114137182Y-112395050D01*
X114145946Y-112399516D01*
X114196742Y-112447491D01*
X114213536Y-112515312D01*
X114190998Y-112581447D01*
X114145946Y-112620484D01*
X114137182Y-112624949D01*
X113965213Y-112749890D01*
X113814890Y-112900213D01*
X113689951Y-113072179D01*
X113593444Y-113261585D01*
X113593443Y-113261587D01*
X113593443Y-113261588D01*
X113584748Y-113288349D01*
X113527753Y-113463760D01*
X113494500Y-113673713D01*
X113494500Y-113886287D01*
X113503481Y-113942993D01*
X113521539Y-114057007D01*
X113527754Y-114096243D01*
X113583695Y-114268412D01*
X113593444Y-114298414D01*
X113689951Y-114487820D01*
X113814890Y-114659786D01*
X113965213Y-114810109D01*
X114137179Y-114935048D01*
X114137181Y-114935049D01*
X114137184Y-114935051D01*
X114146493Y-114939794D01*
X114197290Y-114987766D01*
X114214087Y-115055587D01*
X114191552Y-115121722D01*
X114146505Y-115160760D01*
X114137446Y-115165376D01*
X114137440Y-115165380D01*
X114083282Y-115204727D01*
X114083282Y-115204728D01*
X114715591Y-115837037D01*
X114652007Y-115854075D01*
X114537993Y-115919901D01*
X114444901Y-116012993D01*
X114379075Y-116127007D01*
X114362037Y-116190591D01*
X113729728Y-115558282D01*
X113729727Y-115558282D01*
X113690380Y-115612439D01*
X113593904Y-115801782D01*
X113528242Y-116003869D01*
X113528242Y-116003872D01*
X113495000Y-116213753D01*
X113495000Y-116426246D01*
X113528242Y-116636127D01*
X113528242Y-116636130D01*
X113593904Y-116838217D01*
X113690375Y-117027550D01*
X113729728Y-117081716D01*
X114362037Y-116449408D01*
X114379075Y-116512993D01*
X114444901Y-116627007D01*
X114537993Y-116720099D01*
X114652007Y-116785925D01*
X114715590Y-116802962D01*
X114083282Y-117435269D01*
X114083282Y-117435270D01*
X114137452Y-117474626D01*
X114137451Y-117474626D01*
X114146495Y-117479234D01*
X114197292Y-117527208D01*
X114214087Y-117595029D01*
X114191550Y-117661164D01*
X114146499Y-117700202D01*
X114137182Y-117704949D01*
X113965213Y-117829890D01*
X113814890Y-117980213D01*
X113689951Y-118152179D01*
X113593444Y-118341585D01*
X113527753Y-118543760D01*
X113494500Y-118753713D01*
X113494500Y-118966286D01*
X113522728Y-119144514D01*
X113527754Y-119176243D01*
X113583980Y-119349289D01*
X113593444Y-119378414D01*
X113689951Y-119567820D01*
X113814890Y-119739786D01*
X113965213Y-119890109D01*
X114137182Y-120015050D01*
X114145946Y-120019516D01*
X114196742Y-120067491D01*
X114213536Y-120135312D01*
X114190998Y-120201447D01*
X114145946Y-120240484D01*
X114137182Y-120244949D01*
X113961266Y-120372759D01*
X113960635Y-120371891D01*
X113901581Y-120398359D01*
X113884800Y-120399500D01*
X108501455Y-120399500D01*
X108408727Y-120417945D01*
X108408723Y-120417946D01*
X108404812Y-120418724D01*
X108308164Y-120437949D01*
X108269622Y-120453914D01*
X108262045Y-120457052D01*
X108262039Y-120457054D01*
X108126082Y-120513369D01*
X107998617Y-120598540D01*
X107998616Y-120598541D01*
X107962215Y-120622862D01*
X107962214Y-120622863D01*
X106009087Y-122575992D01*
X105362220Y-123222859D01*
X105362218Y-123222861D01*
X105301737Y-123283342D01*
X105222859Y-123362219D01*
X105113371Y-123526079D01*
X105113364Y-123526092D01*
X105037950Y-123708160D01*
X105037947Y-123708170D01*
X104999500Y-123901456D01*
X104999500Y-127150573D01*
X105030044Y-127363020D01*
X105030047Y-127363030D01*
X105048232Y-127424961D01*
X105080818Y-127535939D01*
X105090516Y-127568965D01*
X105123959Y-127642196D01*
X105133902Y-127711355D01*
X105104876Y-127774910D01*
X105046100Y-127812684D01*
X104974281Y-127833772D01*
X104779060Y-127922926D01*
X104779044Y-127922935D01*
X104598487Y-128038973D01*
X104598480Y-128038979D01*
X104436276Y-128179528D01*
X104436274Y-128179530D01*
X104295725Y-128341734D01*
X104295719Y-128341741D01*
X104179681Y-128522298D01*
X104179672Y-128522314D01*
X104090517Y-128717536D01*
X104030047Y-128923477D01*
X104030044Y-128923487D01*
X103999500Y-129135934D01*
X103999500Y-129550573D01*
X104030044Y-129763020D01*
X104030047Y-129763030D01*
X104090517Y-129968971D01*
X104179672Y-130164193D01*
X104179681Y-130164209D01*
X104295719Y-130344766D01*
X104310173Y-130361447D01*
X104364382Y-130424008D01*
X104397347Y-130462051D01*
X104426372Y-130525607D01*
X104416428Y-130594766D01*
X104397347Y-130624457D01*
X104295719Y-130741741D01*
X104179681Y-130922298D01*
X104179672Y-130922314D01*
X104090517Y-131117536D01*
X104030047Y-131323477D01*
X104030044Y-131323487D01*
X103999500Y-131535934D01*
X103999500Y-131950573D01*
X104030044Y-132163020D01*
X104030047Y-132163030D01*
X104090517Y-132368971D01*
X104179672Y-132564193D01*
X104179681Y-132564209D01*
X104285573Y-132728978D01*
X104295720Y-132744767D01*
X104390287Y-132853904D01*
X104397347Y-132862051D01*
X104426372Y-132925607D01*
X104416428Y-132994766D01*
X104397347Y-133024457D01*
X104295719Y-133141741D01*
X104179681Y-133322298D01*
X104179672Y-133322314D01*
X104090517Y-133517536D01*
X104030047Y-133723477D01*
X104030044Y-133723487D01*
X103999500Y-133935934D01*
X103999500Y-134350573D01*
X104030044Y-134563020D01*
X104030047Y-134563030D01*
X104090517Y-134768971D01*
X104179672Y-134964193D01*
X104179681Y-134964209D01*
X104295719Y-135144766D01*
X104295725Y-135144773D01*
X104436274Y-135306977D01*
X104436276Y-135306979D01*
X104598480Y-135447528D01*
X104598487Y-135447534D01*
X104664485Y-135489949D01*
X104779049Y-135563575D01*
X104927014Y-135631148D01*
X104979815Y-135676901D01*
X104999500Y-135743940D01*
X104999500Y-136034216D01*
X104979815Y-136101255D01*
X104963181Y-136121897D01*
X104427130Y-136657948D01*
X104408659Y-136676419D01*
X104382586Y-136702492D01*
X104332775Y-136752302D01*
X104332764Y-136752315D01*
X104204146Y-136924125D01*
X104101280Y-137112510D01*
X104101280Y-137112511D01*
X104073145Y-137187944D01*
X104031273Y-137243877D01*
X103965808Y-137268294D01*
X103897537Y-137253443D01*
X103831853Y-137217577D01*
X103752404Y-137187944D01*
X103630747Y-137142568D01*
X103630744Y-137142567D01*
X103630738Y-137142565D01*
X103421021Y-137096944D01*
X103206928Y-137081632D01*
X103206926Y-137081632D01*
X102992831Y-137096944D01*
X102783114Y-137142565D01*
X102581997Y-137217578D01*
X102393627Y-137320436D01*
X102393619Y-137320441D01*
X102221804Y-137449060D01*
X102221794Y-137449069D01*
X102191049Y-137479815D01*
X102145911Y-137524953D01*
X102144232Y-137526632D01*
X102070047Y-137600816D01*
X102070044Y-137600819D01*
X102070042Y-137600820D01*
X102070041Y-137600821D01*
X101934818Y-137736045D01*
X101928599Y-137742265D01*
X101799979Y-137914082D01*
X101799974Y-137914089D01*
X101697117Y-138102459D01*
X101697115Y-138102464D01*
X101655224Y-138214780D01*
X101623360Y-138300213D01*
X101622106Y-138303574D01*
X101576484Y-138513292D01*
X101561172Y-138727385D01*
X101561172Y-138727388D01*
X101576484Y-138941476D01*
X101576485Y-138941483D01*
X101622106Y-139151198D01*
X101622108Y-139151205D01*
X101657446Y-139245951D01*
X101678952Y-139303611D01*
X101683936Y-139373303D01*
X101650453Y-139434624D01*
X101605079Y-139480000D01*
X101566334Y-139518745D01*
X101566333Y-139518745D01*
X101566332Y-139518746D01*
X101566333Y-139518746D01*
X101198502Y-139886577D01*
X101198502Y-139886578D01*
X101132946Y-139952133D01*
X101132945Y-139952132D01*
X101057069Y-140028008D01*
X101057051Y-140028029D01*
X100928433Y-140199839D01*
X100825567Y-140388224D01*
X100825563Y-140388233D01*
X100797431Y-140463658D01*
X100755560Y-140519591D01*
X100690095Y-140544007D01*
X100621824Y-140529156D01*
X100556140Y-140493290D01*
X100440075Y-140450000D01*
X100355034Y-140418281D01*
X100355031Y-140418280D01*
X100355025Y-140418278D01*
X100145308Y-140372657D01*
X99931215Y-140357345D01*
X99931213Y-140357345D01*
X99717118Y-140372657D01*
X99507401Y-140418278D01*
X99306284Y-140493291D01*
X99117914Y-140596149D01*
X99117906Y-140596154D01*
X98946091Y-140724773D01*
X98946081Y-140724782D01*
X98908140Y-140762724D01*
X98870198Y-140800666D01*
X98854768Y-140816096D01*
X98794334Y-140876529D01*
X98794331Y-140876532D01*
X98794329Y-140876533D01*
X98794328Y-140876534D01*
X98659105Y-141011758D01*
X98652886Y-141017978D01*
X98524266Y-141189795D01*
X98524261Y-141189802D01*
X98421404Y-141378172D01*
X98421402Y-141378177D01*
X98346393Y-141579287D01*
X98300771Y-141789005D01*
X98289699Y-141943807D01*
X98265282Y-142009271D01*
X98209348Y-142051142D01*
X98174862Y-142058644D01*
X98020059Y-142069716D01*
X97810342Y-142115337D01*
X97609225Y-142190350D01*
X97420855Y-142293208D01*
X97420847Y-142293213D01*
X97249032Y-142421832D01*
X97249022Y-142421841D01*
X97211081Y-142459783D01*
X97173139Y-142497725D01*
X97171404Y-142499460D01*
X97097275Y-142573588D01*
X97097272Y-142573591D01*
X97097270Y-142573592D01*
X97097269Y-142573593D01*
X96962046Y-142708817D01*
X96955827Y-142715037D01*
X96827207Y-142886854D01*
X96827202Y-142886861D01*
X96724345Y-143075231D01*
X96724343Y-143075236D01*
X96649334Y-143276346D01*
X96603712Y-143486064D01*
X96592640Y-143640866D01*
X96568223Y-143706330D01*
X96512289Y-143748201D01*
X96477803Y-143755703D01*
X96323000Y-143766775D01*
X96113283Y-143812396D01*
X95912166Y-143887409D01*
X95723796Y-143990267D01*
X95723788Y-143990272D01*
X95551973Y-144118891D01*
X95551963Y-144118900D01*
X95528717Y-144142147D01*
X95476080Y-144194784D01*
X95474345Y-144196519D01*
X95400216Y-144270647D01*
X95400213Y-144270650D01*
X95400211Y-144270651D01*
X95400210Y-144270652D01*
X95264987Y-144405876D01*
X95258768Y-144412096D01*
X95130148Y-144583913D01*
X95130143Y-144583920D01*
X95027286Y-144772290D01*
X95027284Y-144772295D01*
X94970411Y-144924779D01*
X94952495Y-144972816D01*
X94952275Y-144973405D01*
X94906653Y-145183123D01*
X94895581Y-145337925D01*
X94871164Y-145403389D01*
X94815230Y-145445260D01*
X94780744Y-145452762D01*
X94625941Y-145463834D01*
X94416224Y-145509455D01*
X94215107Y-145584468D01*
X94026737Y-145687326D01*
X94026729Y-145687331D01*
X93854914Y-145815950D01*
X93854904Y-145815959D01*
X93816963Y-145853901D01*
X93779021Y-145891843D01*
X93777286Y-145893578D01*
X93703157Y-145967706D01*
X93703154Y-145967709D01*
X93703152Y-145967710D01*
X93703151Y-145967711D01*
X93567928Y-146102935D01*
X93561709Y-146109155D01*
X93433089Y-146280972D01*
X93433084Y-146280979D01*
X93330227Y-146469349D01*
X93330225Y-146469354D01*
X93255216Y-146670464D01*
X93209594Y-146880182D01*
X93194282Y-147094275D01*
X93194282Y-147094278D01*
X93209594Y-147308366D01*
X93209595Y-147308373D01*
X93254070Y-147512820D01*
X93255218Y-147518095D01*
X93282432Y-147591059D01*
X93330225Y-147719198D01*
X93366095Y-147784890D01*
X93380946Y-147853163D01*
X93356528Y-147918628D01*
X93300596Y-147960497D01*
X93225163Y-147988633D01*
X93225162Y-147988633D01*
X93036778Y-148091500D01*
X92864964Y-148220119D01*
X92864948Y-148220133D01*
X92826828Y-148258255D01*
X92826825Y-148258258D01*
X92717330Y-148367750D01*
X92669379Y-148415700D01*
X92577975Y-148507104D01*
X92160940Y-148924138D01*
X92099617Y-148957623D01*
X92029925Y-148952639D01*
X91992057Y-148930170D01*
X91871520Y-148825725D01*
X91871512Y-148825719D01*
X91690955Y-148709681D01*
X91690939Y-148709672D01*
X91495717Y-148620517D01*
X91289776Y-148560047D01*
X91289766Y-148560044D01*
X91098756Y-148532582D01*
X91077320Y-148529500D01*
X91068541Y-148529500D01*
X90862707Y-148529500D01*
X90769997Y-148529500D01*
X90662680Y-148529500D01*
X90450233Y-148560044D01*
X90450223Y-148560047D01*
X90244282Y-148620517D01*
X90049060Y-148709672D01*
X90049044Y-148709681D01*
X89868487Y-148825719D01*
X89751203Y-148927347D01*
X89687647Y-148956372D01*
X89618488Y-148946428D01*
X89588797Y-148927347D01*
X89471512Y-148825719D01*
X89290955Y-148709681D01*
X89290939Y-148709672D01*
X89095717Y-148620517D01*
X88889776Y-148560047D01*
X88889766Y-148560044D01*
X88698756Y-148532582D01*
X88677320Y-148529500D01*
X88668541Y-148529500D01*
X88462707Y-148529500D01*
X88369997Y-148529500D01*
X88262680Y-148529500D01*
X88050233Y-148560044D01*
X88050223Y-148560047D01*
X87844282Y-148620517D01*
X87649060Y-148709672D01*
X87649044Y-148709681D01*
X87468487Y-148825719D01*
X87468480Y-148825725D01*
X87306276Y-148966274D01*
X87306274Y-148966276D01*
X87165725Y-149128480D01*
X87165719Y-149128487D01*
X87049681Y-149309044D01*
X87049672Y-149309060D01*
X86960518Y-149504281D01*
X86939430Y-149576100D01*
X86901655Y-149634878D01*
X86838099Y-149663902D01*
X86768942Y-149653959D01*
X86750132Y-149645369D01*
X86695712Y-149620516D01*
X86616332Y-149597207D01*
X86489776Y-149560047D01*
X86489766Y-149560044D01*
X86298756Y-149532582D01*
X86277320Y-149529500D01*
X86277319Y-149529500D01*
X76184782Y-149529500D01*
X76117743Y-149509815D01*
X76071988Y-149457011D01*
X76062044Y-149387853D01*
X76091069Y-149324297D01*
X76097101Y-149317819D01*
X80590655Y-144824266D01*
X85277140Y-140137781D01*
X85386632Y-139973914D01*
X85462052Y-139791835D01*
X85493558Y-139633445D01*
X85500501Y-139598541D01*
X85500501Y-139396349D01*
X85500500Y-139396323D01*
X85500500Y-128965782D01*
X85520185Y-128898743D01*
X85536819Y-128878101D01*
X86878101Y-127536819D01*
X86939424Y-127503334D01*
X86965782Y-127500500D01*
X87598542Y-127500500D01*
X87661970Y-127487883D01*
X87686162Y-127485500D01*
X88054800Y-127485500D01*
X88121839Y-127505185D01*
X88134365Y-127514493D01*
X88307182Y-127640050D01*
X88315946Y-127644516D01*
X88366742Y-127692491D01*
X88383536Y-127760312D01*
X88360998Y-127826447D01*
X88315946Y-127865484D01*
X88307182Y-127869949D01*
X88135213Y-127994890D01*
X87984890Y-128145213D01*
X87859951Y-128317179D01*
X87763444Y-128506585D01*
X87763443Y-128506587D01*
X87763443Y-128506588D01*
X87758337Y-128522303D01*
X87697753Y-128708760D01*
X87680114Y-128820128D01*
X87664500Y-128918713D01*
X87664500Y-129131287D01*
X87697754Y-129341243D01*
X87761818Y-129538412D01*
X87763444Y-129543414D01*
X87859951Y-129732820D01*
X87984890Y-129904786D01*
X88135213Y-130055109D01*
X88307182Y-130180050D01*
X88315946Y-130184516D01*
X88366742Y-130232491D01*
X88383536Y-130300312D01*
X88360998Y-130366447D01*
X88315946Y-130405484D01*
X88307182Y-130409949D01*
X88135213Y-130534890D01*
X87984890Y-130685213D01*
X87859951Y-130857179D01*
X87763444Y-131046585D01*
X87697753Y-131248760D01*
X87664500Y-131458713D01*
X87664500Y-131671286D01*
X87691737Y-131843257D01*
X87697754Y-131881243D01*
X87761818Y-132078412D01*
X87763444Y-132083414D01*
X87859951Y-132272820D01*
X87984890Y-132444786D01*
X88135213Y-132595109D01*
X88307179Y-132720048D01*
X88307181Y-132720049D01*
X88307184Y-132720051D01*
X88316493Y-132724794D01*
X88367290Y-132772766D01*
X88384087Y-132840587D01*
X88361552Y-132906722D01*
X88316505Y-132945760D01*
X88307446Y-132950376D01*
X88307440Y-132950380D01*
X88253282Y-132989727D01*
X88253282Y-132989728D01*
X88885591Y-133622037D01*
X88822007Y-133639075D01*
X88707993Y-133704901D01*
X88614901Y-133797993D01*
X88549075Y-133912007D01*
X88532037Y-133975591D01*
X87899728Y-133343282D01*
X87899727Y-133343282D01*
X87860380Y-133397439D01*
X87763904Y-133586782D01*
X87698242Y-133788869D01*
X87698242Y-133788872D01*
X87665000Y-133998753D01*
X87665000Y-134211246D01*
X87698242Y-134421127D01*
X87698242Y-134421130D01*
X87763904Y-134623217D01*
X87860375Y-134812550D01*
X87899728Y-134866716D01*
X88532037Y-134234408D01*
X88549075Y-134297993D01*
X88614901Y-134412007D01*
X88707993Y-134505099D01*
X88822007Y-134570925D01*
X88885590Y-134587962D01*
X88253282Y-135220269D01*
X88253282Y-135220270D01*
X88307452Y-135259626D01*
X88307451Y-135259626D01*
X88316495Y-135264234D01*
X88367292Y-135312208D01*
X88384087Y-135380029D01*
X88361550Y-135446164D01*
X88316499Y-135485202D01*
X88307182Y-135489949D01*
X88135213Y-135614890D01*
X87984890Y-135765213D01*
X87859951Y-135937179D01*
X87763444Y-136126585D01*
X87697753Y-136328760D01*
X87664500Y-136538713D01*
X87664500Y-136751286D01*
X87691875Y-136924129D01*
X87697754Y-136961243D01*
X87761818Y-137158412D01*
X87763444Y-137163414D01*
X87859951Y-137352820D01*
X87984890Y-137524786D01*
X88135213Y-137675109D01*
X88307182Y-137800050D01*
X88315946Y-137804516D01*
X88366742Y-137852491D01*
X88383536Y-137920312D01*
X88360998Y-137986447D01*
X88315946Y-138025484D01*
X88307182Y-138029949D01*
X88135213Y-138154890D01*
X87984890Y-138305213D01*
X87859951Y-138477179D01*
X87763444Y-138666585D01*
X87697753Y-138868760D01*
X87669709Y-139045826D01*
X87664500Y-139078713D01*
X87664500Y-139291287D01*
X87674016Y-139351368D01*
X87697305Y-139498412D01*
X87697754Y-139501243D01*
X87761818Y-139698412D01*
X87763444Y-139703414D01*
X87859951Y-139892820D01*
X87984890Y-140064786D01*
X88135213Y-140215109D01*
X88307182Y-140340050D01*
X88315946Y-140344516D01*
X88366742Y-140392491D01*
X88383536Y-140460312D01*
X88360998Y-140526447D01*
X88315946Y-140565484D01*
X88307182Y-140569949D01*
X88135213Y-140694890D01*
X87984890Y-140845213D01*
X87859951Y-141017179D01*
X87763444Y-141206585D01*
X87697753Y-141408760D01*
X87664500Y-141618713D01*
X87664500Y-141831286D01*
X87691712Y-142003100D01*
X87697754Y-142041243D01*
X87761818Y-142238412D01*
X87763444Y-142243414D01*
X87859951Y-142432820D01*
X87984890Y-142604786D01*
X88135213Y-142755109D01*
X88307182Y-142880050D01*
X88315946Y-142884516D01*
X88366742Y-142932491D01*
X88383536Y-143000312D01*
X88360998Y-143066447D01*
X88315946Y-143105484D01*
X88307182Y-143109949D01*
X88135213Y-143234890D01*
X87984890Y-143385213D01*
X87859951Y-143557179D01*
X87763444Y-143746585D01*
X87697753Y-143948760D01*
X87683806Y-144036819D01*
X87664500Y-144158713D01*
X87664500Y-144371287D01*
X87669436Y-144402450D01*
X87693469Y-144554192D01*
X87697754Y-144581243D01*
X87761818Y-144778412D01*
X87763444Y-144783414D01*
X87859951Y-144972820D01*
X87984890Y-145144786D01*
X88135213Y-145295109D01*
X88307182Y-145420050D01*
X88315946Y-145424516D01*
X88366742Y-145472491D01*
X88383536Y-145540312D01*
X88360998Y-145606447D01*
X88315946Y-145645484D01*
X88307182Y-145649949D01*
X88135213Y-145774890D01*
X87984890Y-145925213D01*
X87859951Y-146097179D01*
X87763444Y-146286585D01*
X87697753Y-146488760D01*
X87664500Y-146698713D01*
X87664500Y-146911286D01*
X87693482Y-147094275D01*
X87697754Y-147121243D01*
X87761818Y-147318412D01*
X87763444Y-147323414D01*
X87859951Y-147512820D01*
X87984890Y-147684786D01*
X88135213Y-147835109D01*
X88307179Y-147960048D01*
X88307181Y-147960049D01*
X88307184Y-147960051D01*
X88496588Y-148056557D01*
X88698757Y-148122246D01*
X88908713Y-148155500D01*
X88908714Y-148155500D01*
X89121286Y-148155500D01*
X89121287Y-148155500D01*
X89331243Y-148122246D01*
X89533412Y-148056557D01*
X89722816Y-147960051D01*
X89779830Y-147918628D01*
X89894786Y-147835109D01*
X89894788Y-147835106D01*
X89894792Y-147835104D01*
X90045104Y-147684792D01*
X90045106Y-147684788D01*
X90045109Y-147684786D01*
X90163224Y-147522213D01*
X90170051Y-147512816D01*
X90266557Y-147323412D01*
X90332246Y-147121243D01*
X90365500Y-146911287D01*
X90365500Y-146698713D01*
X90332246Y-146488757D01*
X90266557Y-146286588D01*
X90170051Y-146097184D01*
X90170049Y-146097181D01*
X90170048Y-146097179D01*
X90045109Y-145925213D01*
X89894786Y-145774890D01*
X89722820Y-145649951D01*
X89722115Y-145649591D01*
X89714054Y-145645485D01*
X89663259Y-145597512D01*
X89646463Y-145529692D01*
X89668999Y-145463556D01*
X89714054Y-145424515D01*
X89722816Y-145420051D01*
X89835854Y-145337925D01*
X89894786Y-145295109D01*
X89894788Y-145295106D01*
X89894792Y-145295104D01*
X90045104Y-145144792D01*
X90045106Y-145144788D01*
X90045109Y-145144786D01*
X90170048Y-144972820D01*
X90170047Y-144972820D01*
X90170051Y-144972816D01*
X90266557Y-144783412D01*
X90332246Y-144581243D01*
X90365500Y-144371287D01*
X90365500Y-144158713D01*
X90332246Y-143948757D01*
X90266557Y-143746588D01*
X90170051Y-143557184D01*
X90170049Y-143557181D01*
X90170048Y-143557179D01*
X90045109Y-143385213D01*
X89894786Y-143234890D01*
X89722820Y-143109951D01*
X89722115Y-143109591D01*
X89714054Y-143105485D01*
X89663259Y-143057512D01*
X89646463Y-142989692D01*
X89668999Y-142923556D01*
X89714054Y-142884515D01*
X89722816Y-142880051D01*
X89854603Y-142784303D01*
X89894786Y-142755109D01*
X89894788Y-142755106D01*
X89894792Y-142755104D01*
X90045104Y-142604792D01*
X90045106Y-142604788D01*
X90045109Y-142604786D01*
X90170048Y-142432820D01*
X90170047Y-142432820D01*
X90170051Y-142432816D01*
X90266557Y-142243412D01*
X90332246Y-142041243D01*
X90365500Y-141831287D01*
X90365500Y-141618713D01*
X90332246Y-141408757D01*
X90266557Y-141206588D01*
X90170051Y-141017184D01*
X90170049Y-141017181D01*
X90170048Y-141017179D01*
X90045109Y-140845213D01*
X89894786Y-140694890D01*
X89722820Y-140569951D01*
X89722115Y-140569591D01*
X89714054Y-140565485D01*
X89663259Y-140517512D01*
X89646463Y-140449692D01*
X89668999Y-140383556D01*
X89714054Y-140344515D01*
X89722816Y-140340051D01*
X89780158Y-140298390D01*
X89894786Y-140215109D01*
X89894788Y-140215106D01*
X89894792Y-140215104D01*
X90045104Y-140064792D01*
X90045106Y-140064788D01*
X90045109Y-140064786D01*
X90170048Y-139892820D01*
X90170047Y-139892820D01*
X90170051Y-139892816D01*
X90266557Y-139703412D01*
X90332246Y-139501243D01*
X90365500Y-139291287D01*
X90365500Y-139078713D01*
X90332246Y-138868757D01*
X90266557Y-138666588D01*
X90170051Y-138477184D01*
X90170049Y-138477181D01*
X90170048Y-138477179D01*
X90045109Y-138305213D01*
X89894786Y-138154890D01*
X89722820Y-138029951D01*
X89722115Y-138029591D01*
X89714054Y-138025485D01*
X89663259Y-137977512D01*
X89646463Y-137909692D01*
X89668999Y-137843556D01*
X89714054Y-137804515D01*
X89722816Y-137800051D01*
X89744789Y-137784086D01*
X89894786Y-137675109D01*
X89894788Y-137675106D01*
X89894792Y-137675104D01*
X90045104Y-137524792D01*
X90045106Y-137524788D01*
X90045109Y-137524786D01*
X90170048Y-137352820D01*
X90170047Y-137352820D01*
X90170051Y-137352816D01*
X90266557Y-137163412D01*
X90332246Y-136961243D01*
X90365500Y-136751287D01*
X90365500Y-136538713D01*
X90332246Y-136328757D01*
X90266557Y-136126588D01*
X90170051Y-135937184D01*
X90170049Y-135937181D01*
X90170048Y-135937179D01*
X90045109Y-135765213D01*
X89894786Y-135614890D01*
X89722817Y-135489949D01*
X89713504Y-135485204D01*
X89662707Y-135437230D01*
X89645912Y-135369409D01*
X89668449Y-135303274D01*
X89713507Y-135264232D01*
X89722555Y-135259622D01*
X89776716Y-135220270D01*
X89776717Y-135220270D01*
X89144408Y-134587962D01*
X89207993Y-134570925D01*
X89322007Y-134505099D01*
X89415099Y-134412007D01*
X89480925Y-134297993D01*
X89497962Y-134234408D01*
X90130270Y-134866717D01*
X90130270Y-134866716D01*
X90169622Y-134812554D01*
X90266095Y-134623217D01*
X90331757Y-134421130D01*
X90331757Y-134421127D01*
X90365000Y-134211246D01*
X90365000Y-133998753D01*
X90331757Y-133788872D01*
X90331757Y-133788869D01*
X90266095Y-133586782D01*
X90169624Y-133397449D01*
X90130270Y-133343282D01*
X90130269Y-133343282D01*
X89497962Y-133975590D01*
X89480925Y-133912007D01*
X89415099Y-133797993D01*
X89322007Y-133704901D01*
X89207993Y-133639075D01*
X89144409Y-133622037D01*
X89776716Y-132989728D01*
X89722547Y-132950373D01*
X89722547Y-132950372D01*
X89713500Y-132945763D01*
X89662706Y-132897788D01*
X89645912Y-132829966D01*
X89668451Y-132763832D01*
X89713508Y-132724793D01*
X89722816Y-132720051D01*
X89802007Y-132662515D01*
X89894786Y-132595109D01*
X89894788Y-132595106D01*
X89894792Y-132595104D01*
X90045104Y-132444792D01*
X90045106Y-132444788D01*
X90045109Y-132444786D01*
X90170048Y-132272820D01*
X90170047Y-132272820D01*
X90170051Y-132272816D01*
X90266557Y-132083412D01*
X90332246Y-131881243D01*
X90365500Y-131671287D01*
X90365500Y-131458713D01*
X90332246Y-131248757D01*
X90266557Y-131046588D01*
X90170051Y-130857184D01*
X90170049Y-130857181D01*
X90170048Y-130857179D01*
X90045109Y-130685213D01*
X89894786Y-130534890D01*
X89722820Y-130409951D01*
X89722115Y-130409591D01*
X89714054Y-130405485D01*
X89663259Y-130357512D01*
X89646463Y-130289692D01*
X89668999Y-130223556D01*
X89714054Y-130184515D01*
X89722816Y-130180051D01*
X89805643Y-130119874D01*
X89894786Y-130055109D01*
X89894788Y-130055106D01*
X89894792Y-130055104D01*
X90045104Y-129904792D01*
X90045106Y-129904788D01*
X90045109Y-129904786D01*
X90170048Y-129732820D01*
X90170047Y-129732820D01*
X90170051Y-129732816D01*
X90266557Y-129543412D01*
X90332246Y-129341243D01*
X90365500Y-129131287D01*
X90365500Y-128918713D01*
X90332246Y-128708757D01*
X90266557Y-128506588D01*
X90170051Y-128317184D01*
X90170049Y-128317181D01*
X90170048Y-128317179D01*
X90045109Y-128145213D01*
X89894786Y-127994890D01*
X89722820Y-127869951D01*
X89722115Y-127869591D01*
X89714054Y-127865485D01*
X89663259Y-127817512D01*
X89646463Y-127749692D01*
X89668999Y-127683556D01*
X89714054Y-127644515D01*
X89722816Y-127640051D01*
X89737769Y-127629186D01*
X89898734Y-127512241D01*
X89899364Y-127513108D01*
X89958419Y-127486641D01*
X89975200Y-127485500D01*
X96113543Y-127485500D01*
X96154456Y-127477361D01*
X96231426Y-127462051D01*
X96306836Y-127447051D01*
X96360165Y-127424961D01*
X96488914Y-127371632D01*
X96652782Y-127262139D01*
X96792139Y-127122782D01*
X96792139Y-127122780D01*
X96802347Y-127112573D01*
X96802348Y-127112570D01*
X102277139Y-121637782D01*
X102333881Y-121552862D01*
X102365001Y-121506288D01*
X102365002Y-121506286D01*
X102386627Y-121473922D01*
X102386628Y-121473919D01*
X102386632Y-121473914D01*
X102455994Y-121306459D01*
X102462051Y-121291836D01*
X102500500Y-121098541D01*
X102500500Y-120901460D01*
X102500500Y-112672889D01*
X102520185Y-112605850D01*
X102536819Y-112585208D01*
X102588584Y-112533443D01*
X102644517Y-112477510D01*
X102783343Y-112286433D01*
X102890568Y-112075992D01*
X102963553Y-111851368D01*
X103000500Y-111618097D01*
X103000500Y-111381902D01*
X102963553Y-111148631D01*
X102890566Y-110924003D01*
X102808418Y-110762780D01*
X102783343Y-110713567D01*
X102644517Y-110522490D01*
X102477510Y-110355483D01*
X102286433Y-110216657D01*
X102264935Y-110205703D01*
X102075996Y-110109433D01*
X101851368Y-110036446D01*
X101618097Y-109999500D01*
X101618092Y-109999500D01*
X101381908Y-109999500D01*
X101381903Y-109999500D01*
X101148631Y-110036446D01*
X100924003Y-110109433D01*
X100713566Y-110216657D01*
X100604550Y-110295862D01*
X100522490Y-110355483D01*
X100522488Y-110355485D01*
X100522487Y-110355485D01*
X100355485Y-110522487D01*
X100355485Y-110522488D01*
X100355483Y-110522490D01*
X100299960Y-110598911D01*
X100216657Y-110713566D01*
X100109433Y-110924003D01*
X100036446Y-111148631D01*
X99999500Y-111381902D01*
X99999500Y-111618097D01*
X100036446Y-111851368D01*
X100109433Y-112075996D01*
X100210885Y-112275104D01*
X100216657Y-112286433D01*
X100355483Y-112477510D01*
X100355485Y-112477512D01*
X100463181Y-112585208D01*
X100496666Y-112646531D01*
X100499500Y-112672889D01*
X100499500Y-120534217D01*
X100479815Y-120601256D01*
X100463181Y-120621898D01*
X97182566Y-123902512D01*
X97121243Y-123935997D01*
X97051551Y-123931013D01*
X96995618Y-123889141D01*
X96971201Y-123823677D01*
X96972412Y-123795433D01*
X96973838Y-123786433D01*
X96986235Y-123708160D01*
X97000500Y-123618097D01*
X97000500Y-123381902D01*
X96963553Y-123148631D01*
X96929689Y-123044412D01*
X96890568Y-122924008D01*
X96890566Y-122924005D01*
X96890566Y-122924003D01*
X96824127Y-122793611D01*
X96783343Y-122713567D01*
X96644517Y-122522490D01*
X96477510Y-122355483D01*
X96286433Y-122216657D01*
X96280369Y-122213567D01*
X96075996Y-122109433D01*
X95851368Y-122036446D01*
X95618097Y-121999500D01*
X95618092Y-121999500D01*
X95381908Y-121999500D01*
X95381903Y-121999500D01*
X95148631Y-122036446D01*
X94924003Y-122109433D01*
X94713566Y-122216657D01*
X94604550Y-122295862D01*
X94522490Y-122355483D01*
X94522488Y-122355485D01*
X94522487Y-122355485D01*
X94355485Y-122522487D01*
X94355485Y-122522488D01*
X94355483Y-122522490D01*
X94301068Y-122597386D01*
X94216657Y-122713566D01*
X94133488Y-122876795D01*
X94085513Y-122927591D01*
X94023003Y-122944500D01*
X89975200Y-122944500D01*
X89908161Y-122924815D01*
X89895634Y-122915506D01*
X89722820Y-122789951D01*
X89715915Y-122786433D01*
X89714054Y-122785485D01*
X89663259Y-122737512D01*
X89646463Y-122669692D01*
X89668999Y-122603556D01*
X89714054Y-122564515D01*
X89722816Y-122560051D01*
X89774515Y-122522490D01*
X89894786Y-122435109D01*
X89894788Y-122435106D01*
X89894792Y-122435104D01*
X90045104Y-122284792D01*
X90045106Y-122284788D01*
X90045109Y-122284786D01*
X90170048Y-122112820D01*
X90170047Y-122112820D01*
X90170051Y-122112816D01*
X90266557Y-121923412D01*
X90332246Y-121721243D01*
X90365500Y-121511287D01*
X90365500Y-121298713D01*
X90332246Y-121088757D01*
X90266557Y-120886588D01*
X90170051Y-120697184D01*
X90170049Y-120697181D01*
X90170048Y-120697179D01*
X90045109Y-120525213D01*
X89894786Y-120374890D01*
X89722820Y-120249951D01*
X89722115Y-120249591D01*
X89714054Y-120245485D01*
X89663259Y-120197512D01*
X89646463Y-120129692D01*
X89668999Y-120063556D01*
X89714054Y-120024515D01*
X89722816Y-120020051D01*
X89777943Y-119979999D01*
X89894786Y-119895109D01*
X89894788Y-119895106D01*
X89894792Y-119895104D01*
X90045104Y-119744792D01*
X90045106Y-119744788D01*
X90045109Y-119744786D01*
X90170048Y-119572820D01*
X90170047Y-119572820D01*
X90170051Y-119572816D01*
X90266557Y-119383412D01*
X90332246Y-119181243D01*
X90365500Y-118971287D01*
X90365500Y-118758713D01*
X90332246Y-118548757D01*
X90266557Y-118346588D01*
X90170051Y-118157184D01*
X90170049Y-118157181D01*
X90170048Y-118157179D01*
X90045109Y-117985213D01*
X89894786Y-117834890D01*
X89722820Y-117709951D01*
X89722115Y-117709591D01*
X89714054Y-117705485D01*
X89663259Y-117657512D01*
X89646463Y-117589692D01*
X89668999Y-117523556D01*
X89714054Y-117484515D01*
X89722816Y-117480051D01*
X89885550Y-117361819D01*
X89894786Y-117355109D01*
X89894788Y-117355106D01*
X89894792Y-117355104D01*
X90045104Y-117204792D01*
X90045106Y-117204788D01*
X90045109Y-117204786D01*
X90170048Y-117032820D01*
X90170047Y-117032820D01*
X90170051Y-117032816D01*
X90266557Y-116843412D01*
X90332246Y-116641243D01*
X90365500Y-116431287D01*
X90365500Y-116218713D01*
X90332246Y-116008757D01*
X90266557Y-115806588D01*
X90170051Y-115617184D01*
X90170049Y-115617181D01*
X90170048Y-115617179D01*
X90045109Y-115445213D01*
X89894786Y-115294890D01*
X89722820Y-115169951D01*
X89722115Y-115169591D01*
X89714054Y-115165485D01*
X89663259Y-115117512D01*
X89646463Y-115049692D01*
X89668999Y-114983556D01*
X89714054Y-114944515D01*
X89722816Y-114940051D01*
X89770994Y-114905048D01*
X89894786Y-114815109D01*
X89894788Y-114815106D01*
X89894792Y-114815104D01*
X90045104Y-114664792D01*
X90045106Y-114664788D01*
X90045109Y-114664786D01*
X90166294Y-114497987D01*
X90170051Y-114492816D01*
X90266557Y-114303412D01*
X90332246Y-114101243D01*
X90365500Y-113891287D01*
X90365500Y-113678713D01*
X90332246Y-113468757D01*
X90266557Y-113266588D01*
X90170051Y-113077184D01*
X90170049Y-113077181D01*
X90170048Y-113077179D01*
X90045109Y-112905213D01*
X89894786Y-112754890D01*
X89722820Y-112629951D01*
X89722115Y-112629591D01*
X89714054Y-112625485D01*
X89663259Y-112577512D01*
X89646463Y-112509692D01*
X89668999Y-112443556D01*
X89714054Y-112404515D01*
X89722816Y-112400051D01*
X89773020Y-112363576D01*
X89894786Y-112275109D01*
X89894788Y-112275106D01*
X89894792Y-112275104D01*
X90045104Y-112124792D01*
X90045106Y-112124788D01*
X90045109Y-112124786D01*
X90170048Y-111952820D01*
X90170047Y-111952820D01*
X90170051Y-111952816D01*
X90266557Y-111763412D01*
X90332246Y-111561243D01*
X90365500Y-111351287D01*
X90365500Y-111138713D01*
X90332246Y-110928757D01*
X90266557Y-110726588D01*
X90170051Y-110537184D01*
X90170049Y-110537181D01*
X90170048Y-110537179D01*
X90045109Y-110365213D01*
X89894786Y-110214890D01*
X89722820Y-110089951D01*
X89722115Y-110089591D01*
X89714054Y-110085485D01*
X89663259Y-110037512D01*
X89646463Y-109969692D01*
X89668999Y-109903556D01*
X89714054Y-109864515D01*
X89722816Y-109860051D01*
X89744789Y-109844086D01*
X89894786Y-109735109D01*
X89894788Y-109735106D01*
X89894792Y-109735104D01*
X90045104Y-109584792D01*
X90045106Y-109584788D01*
X90045109Y-109584786D01*
X90170048Y-109412820D01*
X90170047Y-109412820D01*
X90170051Y-109412816D01*
X90266557Y-109223412D01*
X90332246Y-109021243D01*
X90365500Y-108811287D01*
X90365500Y-108598713D01*
X90332246Y-108388757D01*
X90266557Y-108186588D01*
X90170051Y-107997184D01*
X90170049Y-107997181D01*
X90170048Y-107997179D01*
X90045109Y-107825213D01*
X89894786Y-107674890D01*
X89722820Y-107549951D01*
X89722115Y-107549591D01*
X89714054Y-107545485D01*
X89663259Y-107497512D01*
X89646463Y-107429692D01*
X89668999Y-107363556D01*
X89714054Y-107324515D01*
X89722816Y-107320051D01*
X89744789Y-107304086D01*
X89894786Y-107195109D01*
X89894788Y-107195106D01*
X89894792Y-107195104D01*
X90045104Y-107044792D01*
X90045106Y-107044788D01*
X90045109Y-107044786D01*
X90170048Y-106872820D01*
X90170047Y-106872820D01*
X90170051Y-106872816D01*
X90266557Y-106683412D01*
X90332246Y-106481243D01*
X90365500Y-106271287D01*
X90365500Y-106058713D01*
X90332246Y-105848757D01*
X90266557Y-105646588D01*
X90170051Y-105457184D01*
X90170049Y-105457181D01*
X90170048Y-105457179D01*
X90045109Y-105285213D01*
X89894786Y-105134890D01*
X89722820Y-105009951D01*
X89722115Y-105009591D01*
X89714054Y-105005485D01*
X89663259Y-104957512D01*
X89646463Y-104889692D01*
X89668999Y-104823556D01*
X89714054Y-104784515D01*
X89722816Y-104780051D01*
X89869819Y-104673248D01*
X89894786Y-104655109D01*
X89894788Y-104655106D01*
X89894792Y-104655104D01*
X90045104Y-104504792D01*
X90045106Y-104504788D01*
X90045109Y-104504786D01*
X90170048Y-104332820D01*
X90170047Y-104332820D01*
X90170051Y-104332816D01*
X90266557Y-104143412D01*
X90332246Y-103941243D01*
X90365500Y-103731287D01*
X90365500Y-103518713D01*
X90332246Y-103308757D01*
X90266557Y-103106588D01*
X90170051Y-102917184D01*
X90170049Y-102917181D01*
X90170048Y-102917179D01*
X90045109Y-102745213D01*
X89931569Y-102631673D01*
X89898084Y-102570350D01*
X89903068Y-102500658D01*
X89944940Y-102444725D01*
X89975915Y-102427810D01*
X90107331Y-102378796D01*
X90222546Y-102292546D01*
X90308796Y-102177331D01*
X90359091Y-102042483D01*
X90365500Y-101982873D01*
X90365499Y-100187128D01*
X90359091Y-100127517D01*
X90357387Y-100122949D01*
X90308797Y-99992671D01*
X90308793Y-99992664D01*
X90222547Y-99877455D01*
X90222544Y-99877452D01*
X90107335Y-99791206D01*
X90107332Y-99791205D01*
X90107331Y-99791204D01*
X90096161Y-99787038D01*
X90040231Y-99745166D01*
X90015816Y-99679701D01*
X90015500Y-99670858D01*
X90015500Y-95916456D01*
X89977052Y-95723170D01*
X89977051Y-95723169D01*
X89977051Y-95723165D01*
X89975630Y-95719735D01*
X89901635Y-95541092D01*
X89901628Y-95541079D01*
X89792140Y-95377219D01*
X89788408Y-95373487D01*
X89652782Y-95237861D01*
X89652781Y-95237860D01*
X88784208Y-94369288D01*
X88784206Y-94369285D01*
X88784206Y-94369286D01*
X88777139Y-94362219D01*
X88777139Y-94362218D01*
X88637782Y-94222861D01*
X88637781Y-94222860D01*
X88637780Y-94222859D01*
X88473920Y-94113371D01*
X88473907Y-94113364D01*
X88334068Y-94055442D01*
X88334065Y-94055441D01*
X88325569Y-94051922D01*
X88291836Y-94037949D01*
X88157742Y-94011276D01*
X88154065Y-94010544D01*
X88098543Y-93999500D01*
X88098541Y-93999500D01*
X72465782Y-93999500D01*
X72398743Y-93979815D01*
X72378101Y-93963181D01*
X65381819Y-86966899D01*
X65348334Y-86905576D01*
X65345500Y-86879218D01*
X65345500Y-76940199D01*
X65365185Y-76873160D01*
X65374471Y-76860664D01*
X65460890Y-76741717D01*
X65500051Y-76687816D01*
X65504793Y-76678508D01*
X65552763Y-76627711D01*
X65620583Y-76610911D01*
X65686719Y-76633445D01*
X65725763Y-76678500D01*
X65730373Y-76687547D01*
X65769728Y-76741716D01*
X66402037Y-76109408D01*
X66419075Y-76172993D01*
X66484901Y-76287007D01*
X66577993Y-76380099D01*
X66692007Y-76445925D01*
X66755590Y-76462962D01*
X66123282Y-77095269D01*
X66123282Y-77095270D01*
X66177449Y-77134624D01*
X66366782Y-77231095D01*
X66568870Y-77296757D01*
X66778754Y-77330000D01*
X66991246Y-77330000D01*
X67201127Y-77296757D01*
X67201130Y-77296757D01*
X67403217Y-77231095D01*
X67592554Y-77134622D01*
X67646716Y-77095270D01*
X67646717Y-77095270D01*
X67014408Y-76462962D01*
X67077993Y-76445925D01*
X67192007Y-76380099D01*
X67285099Y-76287007D01*
X67350925Y-76172993D01*
X67367962Y-76109408D01*
X68000270Y-76741717D01*
X68000270Y-76741716D01*
X68039622Y-76687554D01*
X68136095Y-76498217D01*
X68201757Y-76296130D01*
X68201757Y-76296127D01*
X68235000Y-76086246D01*
X68235000Y-75873753D01*
X68201757Y-75663872D01*
X68201757Y-75663869D01*
X68136095Y-75461782D01*
X68039624Y-75272449D01*
X68000270Y-75218282D01*
X68000269Y-75218282D01*
X67367962Y-75850590D01*
X67350925Y-75787007D01*
X67285099Y-75672993D01*
X67192007Y-75579901D01*
X67077993Y-75514075D01*
X67014409Y-75497037D01*
X67646716Y-74864728D01*
X67592550Y-74825375D01*
X67403217Y-74728904D01*
X67201129Y-74663242D01*
X66991246Y-74630000D01*
X66778754Y-74630000D01*
X66568872Y-74663242D01*
X66568869Y-74663242D01*
X66366782Y-74728904D01*
X66177439Y-74825380D01*
X66123282Y-74864727D01*
X66123282Y-74864728D01*
X66755591Y-75497037D01*
X66692007Y-75514075D01*
X66577993Y-75579901D01*
X66484901Y-75672993D01*
X66419075Y-75787007D01*
X66402037Y-75850591D01*
X65769728Y-75218282D01*
X65769727Y-75218282D01*
X65730380Y-75272440D01*
X65730376Y-75272446D01*
X65725760Y-75281505D01*
X65677781Y-75332297D01*
X65609959Y-75349087D01*
X65543826Y-75326543D01*
X65504794Y-75281493D01*
X65500051Y-75272184D01*
X65500049Y-75272181D01*
X65500048Y-75272179D01*
X65372241Y-75096266D01*
X65373108Y-75095635D01*
X65346641Y-75036581D01*
X65345500Y-75019800D01*
X65345500Y-66120782D01*
X65365185Y-66053743D01*
X65381819Y-66033101D01*
X70378102Y-61036819D01*
X70439425Y-61003334D01*
X70465783Y-61000500D01*
X98598542Y-61000500D01*
X98629566Y-60994328D01*
X98695188Y-60981275D01*
X98791836Y-60962051D01*
X98845165Y-60939961D01*
X98973914Y-60886632D01*
X99137782Y-60777139D01*
X99277139Y-60637782D01*
X99277140Y-60637779D01*
X99284206Y-60630714D01*
X99284209Y-60630710D01*
X100402778Y-59512141D01*
X100402782Y-59512139D01*
X100542139Y-59372782D01*
X100651632Y-59208914D01*
X100704961Y-59080165D01*
X100727051Y-59026836D01*
X100765500Y-58833540D01*
X100765500Y-58636460D01*
X100765500Y-57890199D01*
X100785185Y-57823160D01*
X100794471Y-57810664D01*
X100880890Y-57691717D01*
X100920051Y-57637816D01*
X100924793Y-57628508D01*
X100972763Y-57577711D01*
X101040583Y-57560911D01*
X101106719Y-57583445D01*
X101145763Y-57628500D01*
X101150373Y-57637547D01*
X101189728Y-57691716D01*
X101822037Y-57059408D01*
X101839075Y-57122993D01*
X101904901Y-57237007D01*
X101997993Y-57330099D01*
X102112007Y-57395925D01*
X102175590Y-57412962D01*
X101543282Y-58045269D01*
X101543282Y-58045270D01*
X101597449Y-58084624D01*
X101786782Y-58181095D01*
X101988870Y-58246757D01*
X102198754Y-58280000D01*
X102411246Y-58280000D01*
X102621127Y-58246757D01*
X102621130Y-58246757D01*
X102823217Y-58181095D01*
X103012554Y-58084622D01*
X103066716Y-58045270D01*
X103066717Y-58045270D01*
X102434408Y-57412962D01*
X102497993Y-57395925D01*
X102612007Y-57330099D01*
X102705099Y-57237007D01*
X102770925Y-57122993D01*
X102787962Y-57059408D01*
X103420270Y-57691717D01*
X103420270Y-57691716D01*
X103459622Y-57637555D01*
X103464232Y-57628507D01*
X103512205Y-57577709D01*
X103580025Y-57560912D01*
X103646161Y-57583447D01*
X103685204Y-57628504D01*
X103689949Y-57637817D01*
X103814890Y-57809786D01*
X103965213Y-57960109D01*
X104137179Y-58085048D01*
X104137181Y-58085049D01*
X104137184Y-58085051D01*
X104326588Y-58181557D01*
X104528757Y-58247246D01*
X104738713Y-58280500D01*
X104738714Y-58280500D01*
X104951286Y-58280500D01*
X104951287Y-58280500D01*
X105161243Y-58247246D01*
X105363412Y-58181557D01*
X105552816Y-58085051D01*
X105639142Y-58022332D01*
X105724786Y-57960109D01*
X105724788Y-57960106D01*
X105724792Y-57960104D01*
X105875104Y-57809792D01*
X105875106Y-57809788D01*
X105875109Y-57809786D01*
X106000048Y-57637820D01*
X106000047Y-57637820D01*
X106000051Y-57637816D01*
X106004514Y-57629054D01*
X106052488Y-57578259D01*
X106120308Y-57561463D01*
X106186444Y-57583999D01*
X106225486Y-57629056D01*
X106229951Y-57637820D01*
X106354890Y-57809786D01*
X106505213Y-57960109D01*
X106677179Y-58085048D01*
X106677181Y-58085049D01*
X106677184Y-58085051D01*
X106866588Y-58181557D01*
X107068757Y-58247246D01*
X107278713Y-58280500D01*
X107278714Y-58280500D01*
X107491286Y-58280500D01*
X107491287Y-58280500D01*
X107701243Y-58247246D01*
X107903412Y-58181557D01*
X108092816Y-58085051D01*
X108179142Y-58022332D01*
X108264786Y-57960109D01*
X108264788Y-57960106D01*
X108264792Y-57960104D01*
X108415104Y-57809792D01*
X108415106Y-57809788D01*
X108415109Y-57809786D01*
X108540048Y-57637820D01*
X108540047Y-57637820D01*
X108540051Y-57637816D01*
X108636557Y-57448412D01*
X108702246Y-57246243D01*
X108735500Y-57036287D01*
X108735500Y-56823713D01*
X108702246Y-56613757D01*
X108636557Y-56411588D01*
X108540051Y-56222184D01*
X108540049Y-56222181D01*
X108540048Y-56222179D01*
X108412241Y-56046266D01*
X108413108Y-56045635D01*
X108386641Y-55986581D01*
X108385500Y-55969800D01*
X108385500Y-55286456D01*
X108347052Y-55093170D01*
X108347051Y-55093169D01*
X108347051Y-55093165D01*
X108308668Y-55000500D01*
X108271635Y-54911092D01*
X108271628Y-54911079D01*
X108162139Y-54747218D01*
X108162136Y-54747214D01*
X108019686Y-54604764D01*
X108019655Y-54604735D01*
X106781479Y-53366559D01*
X106781459Y-53366537D01*
X106637785Y-53222863D01*
X106637781Y-53222860D01*
X106473920Y-53113371D01*
X106473911Y-53113366D01*
X106401315Y-53083296D01*
X106345165Y-53060038D01*
X106291836Y-53037949D01*
X106291832Y-53037948D01*
X106291828Y-53037946D01*
X106195188Y-53018724D01*
X106098544Y-52999500D01*
X106098541Y-52999500D01*
X100401459Y-52999500D01*
X100401455Y-52999500D01*
X100304812Y-53018724D01*
X100208167Y-53037947D01*
X100208161Y-53037949D01*
X100154834Y-53060037D01*
X100154834Y-53060038D01*
X100109315Y-53078892D01*
X100026089Y-53113366D01*
X100026079Y-53113371D01*
X99862219Y-53222859D01*
X99792540Y-53292538D01*
X99722861Y-53362218D01*
X99722858Y-53362221D01*
X99127221Y-53957858D01*
X99127218Y-53957861D01*
X99057538Y-54027540D01*
X98987859Y-54097219D01*
X98878371Y-54261080D01*
X98878366Y-54261089D01*
X98829463Y-54379153D01*
X98829460Y-54379160D01*
X98827249Y-54384500D01*
X98802949Y-54443164D01*
X98791968Y-54498368D01*
X98790720Y-54504641D01*
X98790719Y-54504645D01*
X98764500Y-54636456D01*
X98764500Y-55809140D01*
X98744815Y-55876179D01*
X98692011Y-55921934D01*
X98622853Y-55931878D01*
X98559297Y-55902853D01*
X98524318Y-55852473D01*
X98518797Y-55837671D01*
X98518793Y-55837664D01*
X98432547Y-55722455D01*
X98432544Y-55722452D01*
X98317335Y-55636206D01*
X98317328Y-55636202D01*
X98182482Y-55585908D01*
X98182483Y-55585908D01*
X98122883Y-55579501D01*
X98122881Y-55579500D01*
X98122873Y-55579500D01*
X98122864Y-55579500D01*
X96327129Y-55579500D01*
X96327123Y-55579501D01*
X96267516Y-55585908D01*
X96132671Y-55636202D01*
X96132664Y-55636206D01*
X96017455Y-55722452D01*
X96017452Y-55722455D01*
X95931206Y-55837664D01*
X95931202Y-55837671D01*
X95880908Y-55972517D01*
X95874501Y-56032116D01*
X95874500Y-56032135D01*
X95874500Y-57827870D01*
X95874501Y-57827876D01*
X95880908Y-57887483D01*
X95931202Y-58022328D01*
X95931206Y-58022335D01*
X96017452Y-58137544D01*
X96017455Y-58137547D01*
X96132664Y-58223793D01*
X96132671Y-58223797D01*
X96267517Y-58274091D01*
X96267516Y-58274091D01*
X96274444Y-58274835D01*
X96327127Y-58280500D01*
X98122872Y-58280499D01*
X98182483Y-58274091D01*
X98317331Y-58223796D01*
X98432546Y-58137546D01*
X98518796Y-58022331D01*
X98524318Y-58007525D01*
X98566188Y-57951593D01*
X98631652Y-57927175D01*
X98699925Y-57942026D01*
X98749331Y-57991430D01*
X98764500Y-58050859D01*
X98764500Y-58269218D01*
X98744815Y-58336257D01*
X98728181Y-58356899D01*
X98121899Y-58963181D01*
X98060576Y-58996666D01*
X98034218Y-58999500D01*
X69901454Y-58999500D01*
X69869391Y-59005876D01*
X69869392Y-59005877D01*
X69708170Y-59037946D01*
X69708164Y-59037948D01*
X69526088Y-59113366D01*
X69526079Y-59113371D01*
X69362219Y-59222859D01*
X69362215Y-59222862D01*
X63707220Y-64877859D01*
X63707218Y-64877861D01*
X63637538Y-64947540D01*
X63567859Y-65017219D01*
X63458371Y-65181079D01*
X63458364Y-65181092D01*
X63382950Y-65363160D01*
X63382947Y-65363170D01*
X63344500Y-65556456D01*
X63344500Y-75019800D01*
X63324815Y-75086839D01*
X63315506Y-75099365D01*
X63189949Y-75272182D01*
X63185484Y-75280946D01*
X63137509Y-75331742D01*
X63069688Y-75348536D01*
X63003553Y-75325998D01*
X62964516Y-75280946D01*
X62960050Y-75272182D01*
X62832241Y-75096266D01*
X62833108Y-75095635D01*
X62806641Y-75036581D01*
X62805500Y-75019800D01*
X62805500Y-45160782D01*
X62825185Y-45093743D01*
X62841819Y-45073101D01*
X74878101Y-33036819D01*
X74939424Y-33003334D01*
X74965782Y-33000500D01*
X171534218Y-33000500D01*
X171601257Y-33020185D01*
G37*
%TD.AperFunction*%
%TA.AperFunction,Conductor*%
G36*
X65853647Y-140020185D02*
G01*
X65899402Y-140072989D01*
X65909346Y-140142147D01*
X65880321Y-140205703D01*
X65865275Y-140220352D01*
X65862212Y-140222865D01*
X65722863Y-140362214D01*
X65722860Y-140362218D01*
X65613371Y-140526079D01*
X65613366Y-140526089D01*
X65572867Y-140623862D01*
X65545987Y-140664090D01*
X58616503Y-147593576D01*
X58555180Y-147627061D01*
X58539643Y-147629352D01*
X58328760Y-147662753D01*
X58126585Y-147728444D01*
X57937179Y-147824951D01*
X57765213Y-147949890D01*
X57614890Y-148100213D01*
X57489949Y-148272182D01*
X57485202Y-148281499D01*
X57437227Y-148332293D01*
X57369405Y-148349087D01*
X57303271Y-148326548D01*
X57264234Y-148281495D01*
X57259626Y-148272452D01*
X57220270Y-148218282D01*
X57220269Y-148218282D01*
X56587962Y-148850590D01*
X56570925Y-148787007D01*
X56505099Y-148672993D01*
X56412007Y-148579901D01*
X56297993Y-148514075D01*
X56234409Y-148497037D01*
X56866716Y-147864728D01*
X56812550Y-147825375D01*
X56623217Y-147728904D01*
X56421129Y-147663242D01*
X56211246Y-147630000D01*
X55998754Y-147630000D01*
X55788872Y-147663242D01*
X55788869Y-147663242D01*
X55586782Y-147728904D01*
X55397439Y-147825380D01*
X55343282Y-147864727D01*
X55343282Y-147864728D01*
X55975591Y-148497037D01*
X55912007Y-148514075D01*
X55797993Y-148579901D01*
X55704901Y-148672993D01*
X55639075Y-148787007D01*
X55622037Y-148850591D01*
X54989728Y-148218282D01*
X54989727Y-148218282D01*
X54950380Y-148272440D01*
X54950376Y-148272446D01*
X54945760Y-148281505D01*
X54897781Y-148332297D01*
X54829959Y-148349087D01*
X54763826Y-148326543D01*
X54732508Y-148294584D01*
X54728253Y-148288281D01*
X54720051Y-148272184D01*
X54682391Y-148220350D01*
X54681210Y-148218600D01*
X54671235Y-148187271D01*
X54660184Y-148156298D01*
X54660686Y-148154136D01*
X54660014Y-148152023D01*
X54668561Y-148120271D01*
X54676009Y-148088243D01*
X54677827Y-148085849D01*
X54678176Y-148084555D01*
X54680218Y-148082702D01*
X54696297Y-148061540D01*
X62721020Y-140036819D01*
X62782343Y-140003334D01*
X62808701Y-140000500D01*
X65786608Y-140000500D01*
X65853647Y-140020185D01*
G37*
%TD.AperFunction*%
%TA.AperFunction,Conductor*%
G36*
X152680603Y-130040185D02*
G01*
X152726358Y-130092989D01*
X152736302Y-130162147D01*
X152717575Y-130208413D01*
X152719203Y-130209411D01*
X152716661Y-130213558D01*
X152609433Y-130424003D01*
X152536446Y-130648631D01*
X152499500Y-130881902D01*
X152499500Y-131118097D01*
X152536446Y-131351368D01*
X152609433Y-131575996D01*
X152698372Y-131750547D01*
X152716657Y-131786433D01*
X152855483Y-131977510D01*
X152855485Y-131977512D01*
X152963181Y-132085208D01*
X152996666Y-132146531D01*
X152999500Y-132172889D01*
X152999500Y-136034218D01*
X152979815Y-136101257D01*
X152963181Y-136121899D01*
X147121899Y-141963181D01*
X147060576Y-141996666D01*
X147034218Y-141999500D01*
X141965782Y-141999500D01*
X141898743Y-141979815D01*
X141878101Y-141963181D01*
X140841819Y-140926899D01*
X140808334Y-140865576D01*
X140805500Y-140839218D01*
X140805500Y-139940199D01*
X140825185Y-139873160D01*
X140834471Y-139860664D01*
X140920890Y-139741717D01*
X140960051Y-139687816D01*
X140964793Y-139678508D01*
X141012763Y-139627711D01*
X141080583Y-139610911D01*
X141146719Y-139633445D01*
X141185763Y-139678500D01*
X141190373Y-139687547D01*
X141229728Y-139741716D01*
X141862037Y-139109408D01*
X141879075Y-139172993D01*
X141944901Y-139287007D01*
X142037993Y-139380099D01*
X142152007Y-139445925D01*
X142215590Y-139462962D01*
X141583282Y-140095269D01*
X141583282Y-140095270D01*
X141637449Y-140134624D01*
X141826782Y-140231095D01*
X142028870Y-140296757D01*
X142238754Y-140330000D01*
X142451246Y-140330000D01*
X142661127Y-140296757D01*
X142661130Y-140296757D01*
X142863217Y-140231095D01*
X143052554Y-140134622D01*
X143106716Y-140095270D01*
X143106717Y-140095270D01*
X142474408Y-139462962D01*
X142537993Y-139445925D01*
X142652007Y-139380099D01*
X142745099Y-139287007D01*
X142810925Y-139172993D01*
X142827962Y-139109408D01*
X143460270Y-139741717D01*
X143460270Y-139741716D01*
X143499622Y-139687555D01*
X143504232Y-139678507D01*
X143552205Y-139627709D01*
X143620025Y-139610912D01*
X143686161Y-139633447D01*
X143725204Y-139678504D01*
X143729949Y-139687817D01*
X143854890Y-139859786D01*
X144005213Y-140010109D01*
X144177179Y-140135048D01*
X144177181Y-140135049D01*
X144177184Y-140135051D01*
X144366588Y-140231557D01*
X144568757Y-140297246D01*
X144778713Y-140330500D01*
X144778714Y-140330500D01*
X144991286Y-140330500D01*
X144991287Y-140330500D01*
X145201243Y-140297246D01*
X145403412Y-140231557D01*
X145592816Y-140135051D01*
X145675489Y-140074986D01*
X145764786Y-140010109D01*
X145764788Y-140010106D01*
X145764792Y-140010104D01*
X145915104Y-139859792D01*
X145915106Y-139859788D01*
X145915109Y-139859786D01*
X146040048Y-139687820D01*
X146040047Y-139687820D01*
X146040051Y-139687816D01*
X146136557Y-139498412D01*
X146202246Y-139296243D01*
X146235500Y-139086287D01*
X146235500Y-138873713D01*
X146202246Y-138663757D01*
X146136557Y-138461588D01*
X146040051Y-138272184D01*
X146040049Y-138272181D01*
X146040048Y-138272179D01*
X145912241Y-138096266D01*
X145913108Y-138095635D01*
X145886641Y-138036581D01*
X145885500Y-138019800D01*
X145885500Y-135786456D01*
X145847052Y-135593170D01*
X145847051Y-135593169D01*
X145847051Y-135593165D01*
X145827137Y-135545089D01*
X145797656Y-135473914D01*
X145771632Y-135411086D01*
X145771630Y-135411083D01*
X145771628Y-135411079D01*
X145662140Y-135247219D01*
X145635190Y-135220269D01*
X145522782Y-135107861D01*
X145522781Y-135107860D01*
X141284208Y-130869288D01*
X141284206Y-130869285D01*
X141284206Y-130869286D01*
X141277139Y-130862219D01*
X141277139Y-130862218D01*
X141137782Y-130722861D01*
X141137781Y-130722860D01*
X141137780Y-130722859D01*
X140973920Y-130613371D01*
X140973907Y-130613364D01*
X140820144Y-130549674D01*
X140820139Y-130549672D01*
X140811480Y-130546086D01*
X140791836Y-130537949D01*
X140695188Y-130518724D01*
X140692419Y-130518173D01*
X140692406Y-130518170D01*
X140598544Y-130499500D01*
X140598541Y-130499500D01*
X133172889Y-130499500D01*
X133105850Y-130479815D01*
X133085208Y-130463181D01*
X132977512Y-130355485D01*
X132977510Y-130355483D01*
X132825192Y-130244817D01*
X132782528Y-130189488D01*
X132776549Y-130119874D01*
X132809155Y-130058079D01*
X132869994Y-130023722D01*
X132898079Y-130020500D01*
X152613564Y-130020500D01*
X152680603Y-130040185D01*
G37*
%TD.AperFunction*%
%TA.AperFunction,Conductor*%
G36*
X173601257Y-95020185D02*
G01*
X173621899Y-95036819D01*
X175463181Y-96878101D01*
X175496666Y-96939424D01*
X175499500Y-96965782D01*
X175499500Y-138534217D01*
X175479815Y-138601256D01*
X175463181Y-138621898D01*
X172121899Y-141963181D01*
X172060576Y-141996666D01*
X172034218Y-141999500D01*
X160465783Y-141999500D01*
X160398744Y-141979815D01*
X160378102Y-141963181D01*
X157296823Y-138881902D01*
X161599500Y-138881902D01*
X161599500Y-139118097D01*
X161636446Y-139351368D01*
X161709433Y-139575996D01*
X161810720Y-139774781D01*
X161816657Y-139786433D01*
X161955483Y-139977510D01*
X162122490Y-140144517D01*
X162313567Y-140283343D01*
X162405137Y-140330000D01*
X162524003Y-140390566D01*
X162524005Y-140390566D01*
X162524008Y-140390568D01*
X162644412Y-140429689D01*
X162748631Y-140463553D01*
X162981903Y-140500500D01*
X162981908Y-140500500D01*
X163218097Y-140500500D01*
X163451368Y-140463553D01*
X163477691Y-140455000D01*
X163675992Y-140390568D01*
X163886433Y-140283343D01*
X164077510Y-140144517D01*
X164244517Y-139977510D01*
X164383343Y-139786433D01*
X164490568Y-139575992D01*
X164563553Y-139351368D01*
X164578365Y-139257848D01*
X164600500Y-139118097D01*
X164600500Y-138965782D01*
X164620185Y-138898743D01*
X164636819Y-138878101D01*
X167770980Y-135743940D01*
X171010623Y-132504297D01*
X171071944Y-132470814D01*
X171078884Y-132469510D01*
X171282745Y-132437222D01*
X171282748Y-132437221D01*
X171282749Y-132437221D01*
X171500255Y-132366549D01*
X171500255Y-132366548D01*
X171500258Y-132366548D01*
X171704038Y-132262717D01*
X171889066Y-132128286D01*
X172050786Y-131966566D01*
X172185217Y-131781538D01*
X172289048Y-131577758D01*
X172329353Y-131453713D01*
X172359721Y-131360249D01*
X172359721Y-131360248D01*
X172359722Y-131360245D01*
X172395500Y-131134354D01*
X172395500Y-130905646D01*
X172359722Y-130679755D01*
X172359721Y-130679751D01*
X172359721Y-130679750D01*
X172289049Y-130462244D01*
X172235685Y-130357512D01*
X172185217Y-130258462D01*
X172050786Y-130073434D01*
X171889066Y-129911714D01*
X171804134Y-129850007D01*
X171761470Y-129794678D01*
X171755491Y-129725064D01*
X171788097Y-129663269D01*
X171804137Y-129649371D01*
X171888739Y-129587905D01*
X172050402Y-129426242D01*
X172184788Y-129241276D01*
X172288582Y-129037570D01*
X172359234Y-128820128D01*
X172373509Y-128730000D01*
X171385748Y-128730000D01*
X171407518Y-128692292D01*
X171445000Y-128552409D01*
X171445000Y-128407591D01*
X171407518Y-128267708D01*
X171385748Y-128230000D01*
X172373509Y-128230000D01*
X172359234Y-128139871D01*
X172288582Y-127922429D01*
X172184788Y-127718723D01*
X172051988Y-127535940D01*
X172028508Y-127470133D01*
X172044333Y-127402079D01*
X172094439Y-127353384D01*
X172108966Y-127346875D01*
X172137331Y-127336296D01*
X172252546Y-127250046D01*
X172338796Y-127134831D01*
X172389091Y-126999983D01*
X172395500Y-126940373D01*
X172395499Y-124939628D01*
X172389091Y-124880017D01*
X172373338Y-124837782D01*
X172338797Y-124745171D01*
X172338793Y-124745164D01*
X172252547Y-124629955D01*
X172252544Y-124629952D01*
X172137335Y-124543706D01*
X172137328Y-124543702D01*
X172002482Y-124493408D01*
X171994938Y-124491626D01*
X171995474Y-124489353D01*
X171941688Y-124467071D01*
X171901843Y-124409677D01*
X171895500Y-124370524D01*
X171895500Y-123796456D01*
X171895499Y-123796454D01*
X171857053Y-123603174D01*
X171857049Y-123603158D01*
X171855136Y-123598541D01*
X171855133Y-123598535D01*
X171829570Y-123536819D01*
X171803514Y-123473914D01*
X171781632Y-123421086D01*
X171781630Y-123421083D01*
X171781628Y-123421079D01*
X171672140Y-123257219D01*
X171628487Y-123213566D01*
X171532782Y-123117861D01*
X171532781Y-123117860D01*
X169364208Y-120949288D01*
X169364206Y-120949285D01*
X169364206Y-120949286D01*
X169357139Y-120942219D01*
X169357139Y-120942218D01*
X169217782Y-120802861D01*
X169217781Y-120802860D01*
X169217780Y-120802859D01*
X169053920Y-120693371D01*
X169053907Y-120693364D01*
X168904172Y-120631343D01*
X168904170Y-120631342D01*
X168895765Y-120627861D01*
X168871836Y-120617949D01*
X168774260Y-120598540D01*
X168721444Y-120588034D01*
X168678543Y-120579500D01*
X168678541Y-120579500D01*
X165920762Y-120579500D01*
X165853723Y-120559815D01*
X165847877Y-120555818D01*
X165726613Y-120467715D01*
X165726612Y-120467714D01*
X165726610Y-120467713D01*
X165630464Y-120418724D01*
X165544223Y-120374781D01*
X165349534Y-120311522D01*
X165174995Y-120283878D01*
X165147352Y-120279500D01*
X164942648Y-120279500D01*
X164918329Y-120283351D01*
X164740465Y-120311522D01*
X164545776Y-120374781D01*
X164363386Y-120467715D01*
X164197786Y-120588028D01*
X164053028Y-120732786D01*
X163932715Y-120898386D01*
X163839781Y-121080776D01*
X163776522Y-121275465D01*
X163744500Y-121477648D01*
X163744500Y-121682351D01*
X163776522Y-121884534D01*
X163839781Y-122079223D01*
X163879718Y-122157602D01*
X163932713Y-122261610D01*
X164020819Y-122382877D01*
X164044298Y-122448681D01*
X164044500Y-122455761D01*
X164044500Y-124754237D01*
X164024815Y-124821276D01*
X164020818Y-124827122D01*
X163932715Y-124948386D01*
X163839781Y-125130776D01*
X163776522Y-125325465D01*
X163744500Y-125527648D01*
X163744500Y-125732351D01*
X163776522Y-125934534D01*
X163839781Y-126129223D01*
X163888531Y-126224898D01*
X163931798Y-126309815D01*
X163932715Y-126311613D01*
X164053028Y-126477213D01*
X164197786Y-126621971D01*
X164336751Y-126722933D01*
X164363390Y-126742287D01*
X164479607Y-126801503D01*
X164545776Y-126835218D01*
X164545778Y-126835218D01*
X164545781Y-126835220D01*
X164650137Y-126869127D01*
X164740465Y-126898477D01*
X164841557Y-126914488D01*
X164942648Y-126930500D01*
X164942649Y-126930500D01*
X165147351Y-126930500D01*
X165147352Y-126930500D01*
X165349534Y-126898477D01*
X165544219Y-126835220D01*
X165726610Y-126742287D01*
X165853379Y-126650185D01*
X165892213Y-126621971D01*
X165892215Y-126621968D01*
X165892219Y-126621966D01*
X166036966Y-126477219D01*
X166036968Y-126477215D01*
X166036971Y-126477213D01*
X166144289Y-126329500D01*
X166157287Y-126311610D01*
X166250220Y-126129219D01*
X166313477Y-125934534D01*
X166345500Y-125732352D01*
X166345500Y-125527648D01*
X166335348Y-125463553D01*
X166313477Y-125325465D01*
X166252746Y-125138556D01*
X166250220Y-125130781D01*
X166250218Y-125130778D01*
X166250218Y-125130776D01*
X166216503Y-125064607D01*
X166157287Y-124948390D01*
X166076928Y-124837784D01*
X166069182Y-124827122D01*
X166045702Y-124761316D01*
X166045500Y-124754237D01*
X166045500Y-122704500D01*
X166065185Y-122637461D01*
X166117989Y-122591706D01*
X166169500Y-122580500D01*
X168114218Y-122580500D01*
X168181257Y-122600185D01*
X168201899Y-122616819D01*
X169858181Y-124273101D01*
X169891666Y-124334424D01*
X169894500Y-124360782D01*
X169894500Y-124370523D01*
X169874815Y-124437562D01*
X169822011Y-124483317D01*
X169794865Y-124490766D01*
X169795068Y-124491624D01*
X169787520Y-124493407D01*
X169652671Y-124543702D01*
X169652664Y-124543706D01*
X169537455Y-124629952D01*
X169537452Y-124629955D01*
X169451206Y-124745164D01*
X169451202Y-124745171D01*
X169400908Y-124880017D01*
X169394501Y-124939616D01*
X169394501Y-124939623D01*
X169394500Y-124939635D01*
X169394500Y-126940370D01*
X169394501Y-126940376D01*
X169400908Y-126999983D01*
X169451202Y-127134828D01*
X169451206Y-127134835D01*
X169537452Y-127250044D01*
X169537455Y-127250047D01*
X169652664Y-127336293D01*
X169652667Y-127336295D01*
X169652668Y-127336295D01*
X169652669Y-127336296D01*
X169681025Y-127346872D01*
X169736958Y-127388742D01*
X169761376Y-127454206D01*
X169746525Y-127522479D01*
X169738010Y-127535939D01*
X169605213Y-127718719D01*
X169501417Y-127922429D01*
X169430765Y-128139871D01*
X169416491Y-128230000D01*
X170404252Y-128230000D01*
X170382482Y-128267708D01*
X170345000Y-128407591D01*
X170345000Y-128552409D01*
X170382482Y-128692292D01*
X170404252Y-128730000D01*
X169416491Y-128730000D01*
X169430765Y-128820128D01*
X169501417Y-129037570D01*
X169605211Y-129241276D01*
X169739597Y-129426242D01*
X169901257Y-129587902D01*
X169901263Y-129587907D01*
X169985863Y-129649372D01*
X170028529Y-129704701D01*
X170034508Y-129774315D01*
X170001903Y-129836110D01*
X169985864Y-129850007D01*
X169900940Y-129911709D01*
X169900931Y-129911716D01*
X169739216Y-130073431D01*
X169739216Y-130073432D01*
X169739214Y-130073434D01*
X169702851Y-130123483D01*
X169604783Y-130258461D01*
X169500950Y-130462244D01*
X169430278Y-130679750D01*
X169430278Y-130679753D01*
X169394500Y-130905646D01*
X169394500Y-131134359D01*
X169405976Y-131206814D01*
X169397022Y-131276107D01*
X169371184Y-131313893D01*
X163221899Y-137463181D01*
X163160576Y-137496666D01*
X163134218Y-137499500D01*
X162981903Y-137499500D01*
X162748631Y-137536446D01*
X162524003Y-137609433D01*
X162313566Y-137716657D01*
X162257119Y-137757669D01*
X162122490Y-137855483D01*
X162122488Y-137855485D01*
X162122487Y-137855485D01*
X161955485Y-138022487D01*
X161955485Y-138022488D01*
X161955483Y-138022490D01*
X161903590Y-138093914D01*
X161816657Y-138213566D01*
X161709433Y-138424003D01*
X161636446Y-138648631D01*
X161599500Y-138881902D01*
X157296823Y-138881902D01*
X157036818Y-138621897D01*
X157003333Y-138560574D01*
X157000499Y-138534216D01*
X157000499Y-137952129D01*
X157000498Y-137952123D01*
X156996077Y-137910997D01*
X156994091Y-137892517D01*
X156985065Y-137868318D01*
X156943797Y-137757671D01*
X156943793Y-137757664D01*
X156857547Y-137642455D01*
X156857544Y-137642452D01*
X156742335Y-137556206D01*
X156742328Y-137556202D01*
X156607482Y-137505908D01*
X156607483Y-137505908D01*
X156547883Y-137499501D01*
X156547881Y-137499500D01*
X156547873Y-137499500D01*
X156547865Y-137499500D01*
X154714780Y-137499500D01*
X154647741Y-137479815D01*
X154601986Y-137427011D01*
X154592042Y-137357853D01*
X154621067Y-137294297D01*
X154627085Y-137287833D01*
X154637778Y-137277141D01*
X154637782Y-137277139D01*
X154777139Y-137137782D01*
X154886632Y-136973914D01*
X154891881Y-136961243D01*
X154962049Y-136791839D01*
X154962050Y-136791837D01*
X154962051Y-136791835D01*
X154977655Y-136713391D01*
X155000500Y-136598543D01*
X155000500Y-132172889D01*
X155020185Y-132105850D01*
X155036819Y-132085208D01*
X155076182Y-132045845D01*
X155144517Y-131977510D01*
X155283343Y-131786433D01*
X155390568Y-131575992D01*
X155463553Y-131351368D01*
X155467970Y-131323483D01*
X155500500Y-131118097D01*
X155500500Y-130881902D01*
X155463553Y-130648631D01*
X155429689Y-130544412D01*
X155390568Y-130424008D01*
X155390566Y-130424005D01*
X155390566Y-130424003D01*
X155324835Y-130295000D01*
X155283343Y-130213567D01*
X155283341Y-130213565D01*
X155283338Y-130213558D01*
X155280797Y-130209411D01*
X155282785Y-130208192D01*
X155262625Y-130151338D01*
X155278582Y-130083315D01*
X155328783Y-130034718D01*
X155386436Y-130020500D01*
X157118543Y-130020500D01*
X157172273Y-130009811D01*
X157292978Y-129985802D01*
X157311836Y-129982051D01*
X157365165Y-129959961D01*
X157493914Y-129906632D01*
X157657782Y-129797139D01*
X157797139Y-129657782D01*
X157870906Y-129547379D01*
X157886320Y-129528598D01*
X162137778Y-125277141D01*
X162137782Y-125277139D01*
X162277139Y-125137782D01*
X162386632Y-124973914D01*
X162462051Y-124791835D01*
X162490698Y-124647820D01*
X162500500Y-124598543D01*
X162500500Y-120375782D01*
X162520185Y-120308743D01*
X162536819Y-120288101D01*
X165098836Y-117726084D01*
X167688499Y-115136421D01*
X167749820Y-115102938D01*
X167765291Y-115100657D01*
X167766282Y-115100500D01*
X167766287Y-115100500D01*
X167976243Y-115067246D01*
X168178412Y-115001557D01*
X168367816Y-114905051D01*
X168422572Y-114865269D01*
X168539786Y-114780109D01*
X168539788Y-114780106D01*
X168539792Y-114780104D01*
X168690104Y-114629792D01*
X168690106Y-114629788D01*
X168690109Y-114629786D01*
X168815048Y-114457820D01*
X168815047Y-114457820D01*
X168815051Y-114457816D01*
X168819514Y-114449054D01*
X168867488Y-114398259D01*
X168935308Y-114381463D01*
X169001444Y-114403999D01*
X169040486Y-114449056D01*
X169044951Y-114457820D01*
X169169890Y-114629786D01*
X169320213Y-114780109D01*
X169492179Y-114905048D01*
X169492181Y-114905049D01*
X169492184Y-114905051D01*
X169681588Y-115001557D01*
X169883757Y-115067246D01*
X170093713Y-115100500D01*
X170093714Y-115100500D01*
X170306286Y-115100500D01*
X170306287Y-115100500D01*
X170516243Y-115067246D01*
X170718412Y-115001557D01*
X170907816Y-114905051D01*
X170962572Y-114865269D01*
X171079786Y-114780109D01*
X171079788Y-114780106D01*
X171079792Y-114780104D01*
X171230104Y-114629792D01*
X171230106Y-114629788D01*
X171230109Y-114629786D01*
X171355048Y-114457820D01*
X171355047Y-114457820D01*
X171355051Y-114457816D01*
X171451557Y-114268412D01*
X171517246Y-114066243D01*
X171550500Y-113856287D01*
X171550500Y-113643713D01*
X171517246Y-113433757D01*
X171451557Y-113231588D01*
X171355051Y-113042184D01*
X171355049Y-113042181D01*
X171355048Y-113042179D01*
X171230109Y-112870213D01*
X171079786Y-112719890D01*
X170907820Y-112594951D01*
X170718414Y-112498444D01*
X170718413Y-112498443D01*
X170718412Y-112498443D01*
X170516243Y-112432754D01*
X170516241Y-112432753D01*
X170516240Y-112432753D01*
X170349544Y-112406351D01*
X170306287Y-112399500D01*
X170306286Y-112399500D01*
X170301475Y-112398738D01*
X170301641Y-112397684D01*
X170241150Y-112374621D01*
X170228497Y-112363576D01*
X167869419Y-110004499D01*
X167869416Y-110004495D01*
X167869416Y-110004496D01*
X167862349Y-109997429D01*
X167862349Y-109997428D01*
X167722992Y-109858071D01*
X167722991Y-109858070D01*
X167722990Y-109858069D01*
X167559130Y-109748581D01*
X167559121Y-109748576D01*
X167437606Y-109698243D01*
X167437604Y-109698242D01*
X167430375Y-109695248D01*
X167377046Y-109673159D01*
X167266073Y-109651085D01*
X167261800Y-109650235D01*
X167183753Y-109634710D01*
X167183751Y-109634710D01*
X164779572Y-109634710D01*
X164712533Y-109615025D01*
X164666778Y-109562221D01*
X164656834Y-109493063D01*
X164685859Y-109429507D01*
X164691891Y-109423029D01*
X167337781Y-106777139D01*
X170228499Y-103886421D01*
X170289820Y-103852938D01*
X170305291Y-103850657D01*
X170306282Y-103850500D01*
X170306287Y-103850500D01*
X170516243Y-103817246D01*
X170718412Y-103751557D01*
X170907816Y-103655051D01*
X170994138Y-103592335D01*
X171079786Y-103530109D01*
X171079788Y-103530106D01*
X171079792Y-103530104D01*
X171230104Y-103379792D01*
X171230106Y-103379788D01*
X171230109Y-103379786D01*
X171355048Y-103207820D01*
X171355047Y-103207820D01*
X171355051Y-103207816D01*
X171451557Y-103018412D01*
X171517246Y-102816243D01*
X171550500Y-102606287D01*
X171550500Y-102393713D01*
X171517246Y-102183757D01*
X171451557Y-101981588D01*
X171355051Y-101792184D01*
X171355049Y-101792181D01*
X171355048Y-101792179D01*
X171230109Y-101620213D01*
X171079786Y-101469890D01*
X170907820Y-101344951D01*
X170718414Y-101248444D01*
X170718413Y-101248443D01*
X170718412Y-101248443D01*
X170516243Y-101182754D01*
X170516241Y-101182753D01*
X170516240Y-101182753D01*
X170354957Y-101157208D01*
X170306287Y-101149500D01*
X170093713Y-101149500D01*
X170045042Y-101157208D01*
X169883760Y-101182753D01*
X169681585Y-101248444D01*
X169492179Y-101344951D01*
X169320213Y-101469890D01*
X169169890Y-101620213D01*
X169044949Y-101792182D01*
X169040484Y-101800946D01*
X168992509Y-101851742D01*
X168924688Y-101868536D01*
X168858553Y-101845998D01*
X168819516Y-101800946D01*
X168815050Y-101792182D01*
X168690109Y-101620213D01*
X168539786Y-101469890D01*
X168367820Y-101344951D01*
X168178414Y-101248444D01*
X168178413Y-101248443D01*
X168178412Y-101248443D01*
X167976243Y-101182754D01*
X167976241Y-101182753D01*
X167976240Y-101182753D01*
X167814957Y-101157208D01*
X167766287Y-101149500D01*
X167553713Y-101149500D01*
X167505042Y-101157208D01*
X167343760Y-101182753D01*
X167141585Y-101248444D01*
X166952179Y-101344951D01*
X166780213Y-101469890D01*
X166629890Y-101620213D01*
X166504949Y-101792182D01*
X166500202Y-101801499D01*
X166452227Y-101852293D01*
X166384405Y-101869087D01*
X166318271Y-101846548D01*
X166279234Y-101801495D01*
X166274626Y-101792452D01*
X166235270Y-101738282D01*
X166235269Y-101738282D01*
X165602962Y-102370590D01*
X165585925Y-102307007D01*
X165520099Y-102192993D01*
X165427007Y-102099901D01*
X165312993Y-102034075D01*
X165249408Y-102017037D01*
X165881716Y-101384728D01*
X165827550Y-101345375D01*
X165638217Y-101248904D01*
X165534642Y-101215251D01*
X165476967Y-101175814D01*
X165449768Y-101111455D01*
X165461682Y-101042609D01*
X165485276Y-101009642D01*
X165637778Y-100857141D01*
X165637782Y-100857139D01*
X165777139Y-100717782D01*
X165886632Y-100553914D01*
X165943595Y-100416392D01*
X165962051Y-100371836D01*
X165994607Y-100208165D01*
X166000500Y-100178541D01*
X166000500Y-95965782D01*
X166020185Y-95898743D01*
X166036819Y-95878101D01*
X166878102Y-95036819D01*
X166939425Y-95003334D01*
X166965783Y-95000500D01*
X173534218Y-95000500D01*
X173601257Y-95020185D01*
G37*
%TD.AperFunction*%
%TA.AperFunction,Conductor*%
G36*
X131168960Y-130040185D02*
G01*
X131214715Y-130092989D01*
X131224659Y-130162147D01*
X131195634Y-130225703D01*
X131174807Y-130244817D01*
X131022490Y-130355483D01*
X131022488Y-130355485D01*
X131022487Y-130355485D01*
X130855485Y-130522487D01*
X130855485Y-130522488D01*
X130855483Y-130522490D01*
X130835733Y-130549674D01*
X130716657Y-130713566D01*
X130609433Y-130924003D01*
X130536446Y-131148631D01*
X130499500Y-131381902D01*
X130499500Y-131618097D01*
X130536446Y-131851368D01*
X130609433Y-132075996D01*
X130704573Y-132262717D01*
X130716657Y-132286433D01*
X130855483Y-132477510D01*
X131022490Y-132644517D01*
X131213567Y-132783343D01*
X131294719Y-132824692D01*
X131424003Y-132890566D01*
X131424005Y-132890566D01*
X131424008Y-132890568D01*
X131473725Y-132906722D01*
X131648631Y-132963553D01*
X131881903Y-133000500D01*
X131881908Y-133000500D01*
X132118097Y-133000500D01*
X132351368Y-132963553D01*
X132391910Y-132950380D01*
X132575992Y-132890568D01*
X132786433Y-132783343D01*
X132977510Y-132644517D01*
X133085208Y-132536819D01*
X133146531Y-132503334D01*
X133172889Y-132500500D01*
X140034218Y-132500500D01*
X140101257Y-132520185D01*
X140121899Y-132536819D01*
X143848181Y-136263101D01*
X143881666Y-136324424D01*
X143884500Y-136350782D01*
X143884500Y-138019800D01*
X143864815Y-138086839D01*
X143855506Y-138099365D01*
X143729949Y-138272182D01*
X143725202Y-138281499D01*
X143677227Y-138332293D01*
X143609405Y-138349087D01*
X143543271Y-138326548D01*
X143504234Y-138281495D01*
X143499626Y-138272452D01*
X143460270Y-138218282D01*
X143460269Y-138218282D01*
X142827962Y-138850590D01*
X142810925Y-138787007D01*
X142745099Y-138672993D01*
X142652007Y-138579901D01*
X142537993Y-138514075D01*
X142474409Y-138497037D01*
X143106716Y-137864728D01*
X143052550Y-137825375D01*
X142863217Y-137728904D01*
X142661129Y-137663242D01*
X142451246Y-137630000D01*
X142238754Y-137630000D01*
X142028872Y-137663242D01*
X142028869Y-137663242D01*
X141826782Y-137728904D01*
X141637439Y-137825380D01*
X141583282Y-137864727D01*
X141583282Y-137864728D01*
X142215591Y-138497037D01*
X142152007Y-138514075D01*
X142037993Y-138579901D01*
X141944901Y-138672993D01*
X141879075Y-138787007D01*
X141862037Y-138850591D01*
X141229728Y-138218282D01*
X141229727Y-138218282D01*
X141190380Y-138272440D01*
X141190376Y-138272446D01*
X141185760Y-138281505D01*
X141137781Y-138332297D01*
X141069959Y-138349087D01*
X141003826Y-138326543D01*
X140964794Y-138281493D01*
X140960051Y-138272184D01*
X140960049Y-138272181D01*
X140960048Y-138272179D01*
X140835109Y-138100213D01*
X140684786Y-137949890D01*
X140512820Y-137824951D01*
X140323414Y-137728444D01*
X140323413Y-137728443D01*
X140323412Y-137728443D01*
X140121243Y-137662754D01*
X140121241Y-137662753D01*
X140121240Y-137662753D01*
X139959957Y-137637208D01*
X139911287Y-137629500D01*
X139698713Y-137629500D01*
X139650042Y-137637208D01*
X139488760Y-137662753D01*
X139286585Y-137728444D01*
X139097179Y-137824951D01*
X138925213Y-137949890D01*
X138774890Y-138100213D01*
X138649951Y-138272179D01*
X138553444Y-138461585D01*
X138487753Y-138663760D01*
X138468233Y-138787007D01*
X138455285Y-138868760D01*
X138453738Y-138878525D01*
X138452684Y-138878358D01*
X138429621Y-138938850D01*
X138418576Y-138951503D01*
X137426899Y-139943181D01*
X137365576Y-139976666D01*
X137339218Y-139979500D01*
X130530762Y-139979500D01*
X130463723Y-139959815D01*
X130457877Y-139955818D01*
X130455863Y-139954355D01*
X130336610Y-139867713D01*
X130279653Y-139838691D01*
X130154223Y-139774781D01*
X129959535Y-139711523D01*
X129811483Y-139688073D01*
X129748349Y-139658143D01*
X129743201Y-139653281D01*
X128971819Y-138881898D01*
X128938334Y-138820575D01*
X128935500Y-138794217D01*
X128935500Y-135065199D01*
X128955185Y-134998160D01*
X128964471Y-134985664D01*
X129090048Y-134812820D01*
X129090050Y-134812817D01*
X129090051Y-134812816D01*
X129186557Y-134623412D01*
X129252246Y-134421243D01*
X129285500Y-134211287D01*
X129285500Y-133998713D01*
X129252246Y-133788757D01*
X129186557Y-133586588D01*
X129090051Y-133397184D01*
X129090049Y-133397181D01*
X129090048Y-133397179D01*
X128965109Y-133225213D01*
X128814786Y-133074890D01*
X128642820Y-132949951D01*
X128453414Y-132853444D01*
X128453413Y-132853443D01*
X128453412Y-132853443D01*
X128251243Y-132787754D01*
X128251241Y-132787753D01*
X128251240Y-132787753D01*
X128066895Y-132758556D01*
X128041287Y-132754500D01*
X127828713Y-132754500D01*
X127803105Y-132758556D01*
X127618760Y-132787753D01*
X127618757Y-132787754D01*
X127416588Y-132853443D01*
X127416586Y-132853443D01*
X127411954Y-132854949D01*
X127411604Y-132853873D01*
X127347454Y-132860754D01*
X127284982Y-132829464D01*
X127249344Y-132769367D01*
X127245500Y-132738730D01*
X127245500Y-132511245D01*
X127220546Y-132385798D01*
X127207051Y-132317953D01*
X127193995Y-132286433D01*
X127160460Y-132205471D01*
X127131635Y-132135881D01*
X127131628Y-132135868D01*
X127022140Y-131972008D01*
X126991873Y-131941741D01*
X126882782Y-131832650D01*
X126882781Y-131832649D01*
X125282311Y-130232180D01*
X125248827Y-130170858D01*
X125253811Y-130101166D01*
X125295683Y-130045233D01*
X125361147Y-130020816D01*
X125369993Y-130020500D01*
X131101921Y-130020500D01*
X131168960Y-130040185D01*
G37*
%TD.AperFunction*%
%TA.AperFunction,Conductor*%
G36*
X164654075Y-113942993D02*
G01*
X164719901Y-114057007D01*
X164812993Y-114150099D01*
X164927007Y-114215925D01*
X164990590Y-114232962D01*
X164358282Y-114865269D01*
X164358282Y-114865270D01*
X164412449Y-114904624D01*
X164601784Y-115001096D01*
X164705354Y-115034747D01*
X164763030Y-115074183D01*
X164790229Y-115138542D01*
X164778315Y-115207388D01*
X164754718Y-115240359D01*
X161772222Y-118222857D01*
X160862220Y-119132859D01*
X160862218Y-119132861D01*
X160818840Y-119176239D01*
X160722859Y-119272219D01*
X160613371Y-119436079D01*
X160613364Y-119436092D01*
X160537950Y-119618160D01*
X160537947Y-119618170D01*
X160499500Y-119811456D01*
X160499500Y-124034217D01*
X160479815Y-124101256D01*
X160463181Y-124121898D01*
X158937181Y-125647898D01*
X158875858Y-125681383D01*
X158806166Y-125676399D01*
X158750233Y-125634527D01*
X158725816Y-125569063D01*
X158725500Y-125560217D01*
X158725500Y-125527648D01*
X158693477Y-125325465D01*
X158632746Y-125138556D01*
X158630220Y-125130781D01*
X158630218Y-125130778D01*
X158630218Y-125130776D01*
X158596503Y-125064607D01*
X158537287Y-124948390D01*
X158529556Y-124937749D01*
X158416971Y-124782786D01*
X158272213Y-124638028D01*
X158106613Y-124517715D01*
X158106612Y-124517714D01*
X158106610Y-124517713D01*
X158032231Y-124479815D01*
X157924223Y-124424781D01*
X157729534Y-124361522D01*
X157554995Y-124333878D01*
X157527352Y-124329500D01*
X157322648Y-124329500D01*
X157298329Y-124333351D01*
X157120465Y-124361522D01*
X156925776Y-124424781D01*
X156743386Y-124517715D01*
X156622123Y-124605818D01*
X156556317Y-124629298D01*
X156549238Y-124629500D01*
X155277453Y-124629500D01*
X155210414Y-124609815D01*
X155164659Y-124557011D01*
X155154715Y-124487853D01*
X155177133Y-124432616D01*
X155283343Y-124286433D01*
X155390568Y-124075992D01*
X155463553Y-123851368D01*
X155472250Y-123796456D01*
X155500500Y-123618097D01*
X155500500Y-123381902D01*
X155463553Y-123148631D01*
X155429689Y-123044412D01*
X155390568Y-122924008D01*
X155390566Y-122924005D01*
X155390566Y-122924003D01*
X155324127Y-122793611D01*
X155283343Y-122713567D01*
X155239552Y-122653294D01*
X155216073Y-122587487D01*
X155231899Y-122519433D01*
X155252186Y-122492732D01*
X155944387Y-121800531D01*
X156005708Y-121767048D01*
X156075400Y-121772032D01*
X156131333Y-121813904D01*
X156154539Y-121868817D01*
X156157009Y-121884416D01*
X156157009Y-121884417D01*
X156220244Y-122079031D01*
X156313141Y-122261350D01*
X156313147Y-122261359D01*
X156345523Y-122305921D01*
X156345524Y-122305922D01*
X157025000Y-121626446D01*
X157025000Y-121632661D01*
X157052259Y-121734394D01*
X157104920Y-121825606D01*
X157179394Y-121900080D01*
X157270606Y-121952741D01*
X157372339Y-121980000D01*
X157378553Y-121980000D01*
X156699076Y-122659474D01*
X156743650Y-122691859D01*
X156925968Y-122784755D01*
X157120582Y-122847990D01*
X157322683Y-122880000D01*
X157527317Y-122880000D01*
X157729417Y-122847990D01*
X157924031Y-122784755D01*
X158106349Y-122691859D01*
X158150921Y-122659474D01*
X157471447Y-121980000D01*
X157477661Y-121980000D01*
X157579394Y-121952741D01*
X157670606Y-121900080D01*
X157745080Y-121825606D01*
X157797741Y-121734394D01*
X157825000Y-121632661D01*
X157825000Y-121626447D01*
X158504474Y-122305921D01*
X158536859Y-122261349D01*
X158629755Y-122079031D01*
X158692990Y-121884417D01*
X158725000Y-121682317D01*
X158725000Y-121477682D01*
X158692990Y-121275582D01*
X158629755Y-121080968D01*
X158536859Y-120898650D01*
X158504474Y-120854077D01*
X158504474Y-120854076D01*
X157825000Y-121533551D01*
X157825000Y-121527339D01*
X157797741Y-121425606D01*
X157745080Y-121334394D01*
X157670606Y-121259920D01*
X157579394Y-121207259D01*
X157477661Y-121180000D01*
X157471446Y-121180000D01*
X158150922Y-120500524D01*
X158150921Y-120500523D01*
X158106359Y-120468147D01*
X158106350Y-120468141D01*
X157924031Y-120375244D01*
X157729417Y-120312009D01*
X157713817Y-120309539D01*
X157650682Y-120279610D01*
X157613751Y-120220298D01*
X157614749Y-120150435D01*
X157645532Y-120099386D01*
X162608499Y-115136421D01*
X162669820Y-115102938D01*
X162685291Y-115100657D01*
X162686282Y-115100500D01*
X162686287Y-115100500D01*
X162896243Y-115067246D01*
X163098412Y-115001557D01*
X163287816Y-114905051D01*
X163342572Y-114865269D01*
X163459786Y-114780109D01*
X163459788Y-114780106D01*
X163459792Y-114780104D01*
X163610104Y-114629792D01*
X163610106Y-114629788D01*
X163610109Y-114629786D01*
X163677515Y-114537007D01*
X163735051Y-114457816D01*
X163739793Y-114448508D01*
X163787763Y-114397711D01*
X163855583Y-114380911D01*
X163921719Y-114403445D01*
X163960763Y-114448500D01*
X163965373Y-114457547D01*
X164004728Y-114511716D01*
X164637037Y-113879408D01*
X164654075Y-113942993D01*
G37*
%TD.AperFunction*%
%TA.AperFunction,Conductor*%
G36*
X164654075Y-102692993D02*
G01*
X164719901Y-102807007D01*
X164812993Y-102900099D01*
X164927007Y-102965925D01*
X164990590Y-102982962D01*
X164358282Y-103615269D01*
X164358282Y-103615270D01*
X164412449Y-103654624D01*
X164601782Y-103751095D01*
X164705355Y-103784748D01*
X164763030Y-103824185D01*
X164790229Y-103888544D01*
X164778315Y-103957390D01*
X164754718Y-103990360D01*
X160781899Y-107963181D01*
X160720576Y-107996666D01*
X160694218Y-107999500D01*
X143401455Y-107999500D01*
X143304812Y-108018724D01*
X143208167Y-108037947D01*
X143208161Y-108037949D01*
X143154834Y-108060037D01*
X143154834Y-108060038D01*
X143109315Y-108078892D01*
X143026089Y-108113366D01*
X143026079Y-108113371D01*
X142862219Y-108222859D01*
X142792540Y-108292538D01*
X142722861Y-108362218D01*
X142722858Y-108362221D01*
X133867221Y-117217858D01*
X133867218Y-117217861D01*
X133828837Y-117256242D01*
X133727859Y-117357219D01*
X133618371Y-117521080D01*
X133618364Y-117521093D01*
X133582184Y-117608442D01*
X133544176Y-117700202D01*
X133542949Y-117703164D01*
X133538390Y-117726086D01*
X133504500Y-117896456D01*
X133504500Y-119019800D01*
X133484815Y-119086839D01*
X133475506Y-119099365D01*
X133349949Y-119272182D01*
X133345202Y-119281499D01*
X133297227Y-119332293D01*
X133229405Y-119349087D01*
X133163271Y-119326548D01*
X133124234Y-119281495D01*
X133119626Y-119272452D01*
X133080270Y-119218282D01*
X133080269Y-119218282D01*
X132447962Y-119850590D01*
X132430925Y-119787007D01*
X132365099Y-119672993D01*
X132272007Y-119579901D01*
X132157993Y-119514075D01*
X132094409Y-119497037D01*
X132726716Y-118864728D01*
X132672550Y-118825375D01*
X132483217Y-118728904D01*
X132281129Y-118663242D01*
X132071246Y-118630000D01*
X131858754Y-118630000D01*
X131648872Y-118663242D01*
X131648869Y-118663242D01*
X131446782Y-118728904D01*
X131257439Y-118825380D01*
X131203282Y-118864727D01*
X131203282Y-118864728D01*
X131835591Y-119497037D01*
X131772007Y-119514075D01*
X131657993Y-119579901D01*
X131564901Y-119672993D01*
X131499075Y-119787007D01*
X131482037Y-119850591D01*
X130849728Y-119218282D01*
X130849727Y-119218282D01*
X130810380Y-119272439D01*
X130713904Y-119461782D01*
X130648242Y-119663869D01*
X130648242Y-119663872D01*
X130615000Y-119873753D01*
X130615000Y-120086246D01*
X130648242Y-120296127D01*
X130648242Y-120296130D01*
X130713904Y-120498217D01*
X130810375Y-120687550D01*
X130849728Y-120741716D01*
X131482037Y-120109408D01*
X131499075Y-120172993D01*
X131564901Y-120287007D01*
X131657993Y-120380099D01*
X131772007Y-120445925D01*
X131835590Y-120462962D01*
X131203282Y-121095269D01*
X131203282Y-121095270D01*
X131257449Y-121134624D01*
X131446782Y-121231095D01*
X131648870Y-121296757D01*
X131858754Y-121330000D01*
X132071246Y-121330000D01*
X132281127Y-121296757D01*
X132281130Y-121296757D01*
X132483217Y-121231095D01*
X132672554Y-121134622D01*
X132726716Y-121095270D01*
X132726717Y-121095270D01*
X132094408Y-120462962D01*
X132157993Y-120445925D01*
X132272007Y-120380099D01*
X132365099Y-120287007D01*
X132430925Y-120172993D01*
X132447962Y-120109408D01*
X133080270Y-120741717D01*
X133080270Y-120741716D01*
X133119622Y-120687555D01*
X133124232Y-120678507D01*
X133172205Y-120627709D01*
X133240025Y-120610912D01*
X133306161Y-120633447D01*
X133345204Y-120678504D01*
X133349949Y-120687817D01*
X133474890Y-120859786D01*
X133625213Y-121010109D01*
X133797179Y-121135048D01*
X133797181Y-121135049D01*
X133797184Y-121135051D01*
X133986588Y-121231557D01*
X134188757Y-121297246D01*
X134398713Y-121330500D01*
X134398714Y-121330500D01*
X134611286Y-121330500D01*
X134611287Y-121330500D01*
X134821243Y-121297246D01*
X135023412Y-121231557D01*
X135212816Y-121135051D01*
X135283417Y-121083757D01*
X135384786Y-121010109D01*
X135384788Y-121010106D01*
X135384792Y-121010104D01*
X135535104Y-120859792D01*
X135535106Y-120859788D01*
X135535109Y-120859786D01*
X135660048Y-120687820D01*
X135660050Y-120687817D01*
X135660051Y-120687816D01*
X135664514Y-120679054D01*
X135712488Y-120628259D01*
X135780308Y-120611463D01*
X135846444Y-120633999D01*
X135885486Y-120679056D01*
X135889951Y-120687820D01*
X136014890Y-120859786D01*
X136165213Y-121010109D01*
X136337179Y-121135048D01*
X136337181Y-121135049D01*
X136337184Y-121135051D01*
X136526588Y-121231557D01*
X136728757Y-121297246D01*
X136938713Y-121330500D01*
X136938714Y-121330500D01*
X137151286Y-121330500D01*
X137151287Y-121330500D01*
X137361243Y-121297246D01*
X137563412Y-121231557D01*
X137752816Y-121135051D01*
X137924792Y-121010104D01*
X138038329Y-120896566D01*
X138099648Y-120863084D01*
X138169340Y-120868068D01*
X138225274Y-120909939D01*
X138242189Y-120940917D01*
X138291202Y-121072328D01*
X138291206Y-121072335D01*
X138377452Y-121187544D01*
X138377455Y-121187547D01*
X138492664Y-121273793D01*
X138492671Y-121273797D01*
X138627517Y-121324091D01*
X138627516Y-121324091D01*
X138634444Y-121324835D01*
X138687127Y-121330500D01*
X140482872Y-121330499D01*
X140542483Y-121324091D01*
X140677331Y-121273796D01*
X140792546Y-121187546D01*
X140861625Y-121095269D01*
X140878789Y-121072341D01*
X140878790Y-121072338D01*
X140878796Y-121072331D01*
X140878799Y-121072322D01*
X140881913Y-121066619D01*
X140931313Y-121017208D01*
X140999584Y-121002349D01*
X141065052Y-121026759D01*
X141078433Y-121038353D01*
X141463181Y-121423101D01*
X141496666Y-121484424D01*
X141499500Y-121510782D01*
X141499500Y-123034218D01*
X141479815Y-123101257D01*
X141463181Y-123121899D01*
X140121899Y-124463181D01*
X140060576Y-124496666D01*
X140034218Y-124499500D01*
X131965782Y-124499500D01*
X131898743Y-124479815D01*
X131878101Y-124463181D01*
X129503435Y-122088515D01*
X129469950Y-122027192D01*
X129467116Y-122000834D01*
X129467116Y-118499166D01*
X129486801Y-118432127D01*
X129503435Y-118411485D01*
X140878101Y-107036819D01*
X140939424Y-107003334D01*
X140965782Y-107000500D01*
X159178542Y-107000500D01*
X159192832Y-106997657D01*
X159275188Y-106981275D01*
X159371836Y-106962051D01*
X159431978Y-106937139D01*
X159553914Y-106886632D01*
X159717782Y-106777139D01*
X159857139Y-106637782D01*
X159857139Y-106637780D01*
X159867347Y-106627573D01*
X159867348Y-106627570D01*
X162608499Y-103886421D01*
X162669820Y-103852938D01*
X162685291Y-103850657D01*
X162686282Y-103850500D01*
X162686287Y-103850500D01*
X162896243Y-103817246D01*
X163098412Y-103751557D01*
X163287816Y-103655051D01*
X163374138Y-103592335D01*
X163459786Y-103530109D01*
X163459788Y-103530106D01*
X163459792Y-103530104D01*
X163610104Y-103379792D01*
X163610106Y-103379788D01*
X163610109Y-103379786D01*
X163677515Y-103287007D01*
X163735051Y-103207816D01*
X163739793Y-103198508D01*
X163787763Y-103147711D01*
X163855583Y-103130911D01*
X163921719Y-103153445D01*
X163960763Y-103198500D01*
X163965373Y-103207547D01*
X164004728Y-103261716D01*
X164637037Y-102629408D01*
X164654075Y-102692993D01*
G37*
%TD.AperFunction*%
%TA.AperFunction,Conductor*%
G36*
X166686467Y-111655395D02*
G01*
X166707109Y-111672029D01*
X167294322Y-112259243D01*
X167327807Y-112320566D01*
X167322823Y-112390258D01*
X167280951Y-112446191D01*
X167244960Y-112464855D01*
X167141583Y-112498444D01*
X166952179Y-112594951D01*
X166780213Y-112719890D01*
X166629890Y-112870213D01*
X166504949Y-113042182D01*
X166500202Y-113051499D01*
X166452227Y-113102293D01*
X166384405Y-113119087D01*
X166318271Y-113096548D01*
X166279234Y-113051495D01*
X166274626Y-113042452D01*
X166235270Y-112988282D01*
X166235269Y-112988282D01*
X165602962Y-113620590D01*
X165585925Y-113557007D01*
X165520099Y-113442993D01*
X165427007Y-113349901D01*
X165312993Y-113284075D01*
X165249409Y-113267037D01*
X165881716Y-112634728D01*
X165827550Y-112595375D01*
X165638217Y-112498904D01*
X165436129Y-112433242D01*
X165226246Y-112400000D01*
X165013754Y-112400000D01*
X164803872Y-112433242D01*
X164803869Y-112433242D01*
X164601782Y-112498904D01*
X164412439Y-112595380D01*
X164358282Y-112634727D01*
X164358282Y-112634728D01*
X164990591Y-113267037D01*
X164927007Y-113284075D01*
X164812993Y-113349901D01*
X164719901Y-113442993D01*
X164654075Y-113557007D01*
X164637037Y-113620591D01*
X164004728Y-112988282D01*
X164004727Y-112988282D01*
X163965380Y-113042440D01*
X163965376Y-113042446D01*
X163960760Y-113051505D01*
X163912781Y-113102297D01*
X163844959Y-113119087D01*
X163778826Y-113096543D01*
X163748719Y-113066344D01*
X163743738Y-113059233D01*
X163735051Y-113042184D01*
X163644226Y-112917173D01*
X163643594Y-112916271D01*
X163632746Y-112884127D01*
X163621357Y-112852206D01*
X163621608Y-112851123D01*
X163621253Y-112850069D01*
X163629507Y-112817159D01*
X163637183Y-112784153D01*
X163638082Y-112782968D01*
X163638251Y-112782298D01*
X163639441Y-112781180D01*
X163657474Y-112757447D01*
X163695031Y-112719890D01*
X163777139Y-112637782D01*
X163777139Y-112637780D01*
X163787343Y-112627577D01*
X163787346Y-112627572D01*
X164742892Y-111672029D01*
X164804215Y-111638544D01*
X164830573Y-111635710D01*
X166619428Y-111635710D01*
X166686467Y-111655395D01*
G37*
%TD.AperFunction*%
%TA.AperFunction,Conductor*%
G36*
X98743418Y-83375417D02*
G01*
X98771673Y-83396569D01*
X98885208Y-83510104D01*
X98948864Y-83556352D01*
X98949210Y-83556608D01*
X98970025Y-83584067D01*
X98991051Y-83611333D01*
X98991168Y-83611958D01*
X98991418Y-83612288D01*
X98991550Y-83613990D01*
X98999500Y-83656322D01*
X98999500Y-86598541D01*
X98999500Y-86598543D01*
X98999499Y-86598543D01*
X99037947Y-86791829D01*
X99037950Y-86791839D01*
X99113364Y-86973907D01*
X99113371Y-86973920D01*
X99222860Y-87137781D01*
X99222863Y-87137785D01*
X99366537Y-87281459D01*
X99366559Y-87281479D01*
X103719735Y-91634655D01*
X103719764Y-91634686D01*
X103862214Y-91777136D01*
X103862218Y-91777139D01*
X104026082Y-91886630D01*
X104026084Y-91886630D01*
X104026086Y-91886632D01*
X104150255Y-91938064D01*
X104208164Y-91962051D01*
X104304812Y-91981275D01*
X104353980Y-91991055D01*
X104401458Y-92000500D01*
X104401459Y-92000500D01*
X104401460Y-92000500D01*
X104598540Y-92000500D01*
X115034218Y-92000500D01*
X115101257Y-92020185D01*
X115121899Y-92036819D01*
X117463181Y-94378101D01*
X117496666Y-94439424D01*
X117499500Y-94465782D01*
X117499500Y-109659216D01*
X117479815Y-109726255D01*
X117463181Y-109746897D01*
X116335756Y-110874321D01*
X116274433Y-110907806D01*
X116204741Y-110902822D01*
X116148808Y-110860950D01*
X116130144Y-110824958D01*
X116109941Y-110762781D01*
X116096557Y-110721588D01*
X116000051Y-110532184D01*
X116000049Y-110532181D01*
X116000048Y-110532179D01*
X115875109Y-110360213D01*
X115724786Y-110209890D01*
X115552820Y-110084951D01*
X115552115Y-110084591D01*
X115544054Y-110080485D01*
X115493259Y-110032512D01*
X115476463Y-109964692D01*
X115498999Y-109898556D01*
X115544054Y-109859515D01*
X115552816Y-109855051D01*
X115574789Y-109839086D01*
X115724786Y-109730109D01*
X115724788Y-109730106D01*
X115724792Y-109730104D01*
X115875104Y-109579792D01*
X115875106Y-109579788D01*
X115875109Y-109579786D01*
X116000048Y-109407820D01*
X116000047Y-109407820D01*
X116000051Y-109407816D01*
X116096557Y-109218412D01*
X116162246Y-109016243D01*
X116195500Y-108806287D01*
X116195500Y-108593713D01*
X116162246Y-108383757D01*
X116096557Y-108181588D01*
X116000051Y-107992184D01*
X116000049Y-107992181D01*
X116000048Y-107992179D01*
X115875109Y-107820213D01*
X115724786Y-107669890D01*
X115552820Y-107544951D01*
X115552115Y-107544591D01*
X115544054Y-107540485D01*
X115493259Y-107492512D01*
X115476463Y-107424692D01*
X115498999Y-107358556D01*
X115544054Y-107319515D01*
X115552816Y-107315051D01*
X115574789Y-107299086D01*
X115724786Y-107190109D01*
X115724788Y-107190106D01*
X115724792Y-107190104D01*
X115875104Y-107039792D01*
X115875106Y-107039788D01*
X115875109Y-107039786D01*
X116000048Y-106867820D01*
X116000047Y-106867820D01*
X116000051Y-106867816D01*
X116096557Y-106678412D01*
X116162246Y-106476243D01*
X116195500Y-106266287D01*
X116195500Y-106053713D01*
X116162246Y-105843757D01*
X116096557Y-105641588D01*
X116000051Y-105452184D01*
X116000049Y-105452181D01*
X116000048Y-105452179D01*
X115875109Y-105280213D01*
X115724786Y-105129890D01*
X115552820Y-105004951D01*
X115552115Y-105004591D01*
X115544054Y-105000485D01*
X115493259Y-104952512D01*
X115476463Y-104884692D01*
X115498999Y-104818556D01*
X115544054Y-104779515D01*
X115552816Y-104775051D01*
X115692937Y-104673248D01*
X115724786Y-104650109D01*
X115724788Y-104650106D01*
X115724792Y-104650104D01*
X115875104Y-104499792D01*
X115875106Y-104499788D01*
X115875109Y-104499786D01*
X116000048Y-104327820D01*
X116000047Y-104327820D01*
X116000051Y-104327816D01*
X116096557Y-104138412D01*
X116162246Y-103936243D01*
X116195500Y-103726287D01*
X116195500Y-103513713D01*
X116162246Y-103303757D01*
X116096557Y-103101588D01*
X116000051Y-102912184D01*
X116000049Y-102912181D01*
X116000048Y-102912179D01*
X115875109Y-102740213D01*
X115761181Y-102626285D01*
X115727696Y-102564962D01*
X115732680Y-102495270D01*
X115774552Y-102439337D01*
X115805529Y-102422422D01*
X115937086Y-102373354D01*
X115937093Y-102373350D01*
X116052187Y-102287190D01*
X116052190Y-102287187D01*
X116138350Y-102172093D01*
X116138354Y-102172086D01*
X116188596Y-102037379D01*
X116188598Y-102037372D01*
X116194999Y-101977844D01*
X116195000Y-101977827D01*
X116195000Y-101330000D01*
X115278012Y-101330000D01*
X115310925Y-101272993D01*
X115345000Y-101145826D01*
X115345000Y-101014174D01*
X115310925Y-100887007D01*
X115278012Y-100830000D01*
X116195000Y-100830000D01*
X116195000Y-100182172D01*
X116194999Y-100182155D01*
X116188598Y-100122627D01*
X116188596Y-100122620D01*
X116138354Y-99987913D01*
X116138350Y-99987906D01*
X116052190Y-99872812D01*
X116052187Y-99872809D01*
X115937093Y-99786649D01*
X115937086Y-99786645D01*
X115802379Y-99736403D01*
X115802372Y-99736401D01*
X115742844Y-99730000D01*
X115095000Y-99730000D01*
X115095000Y-100646988D01*
X115037993Y-100614075D01*
X114910826Y-100580000D01*
X114779174Y-100580000D01*
X114652007Y-100614075D01*
X114595000Y-100646988D01*
X114595000Y-99730000D01*
X113947155Y-99730000D01*
X113887627Y-99736401D01*
X113887620Y-99736403D01*
X113752913Y-99786645D01*
X113752906Y-99786649D01*
X113637812Y-99872809D01*
X113637809Y-99872812D01*
X113551649Y-99987906D01*
X113551645Y-99987913D01*
X113501403Y-100122620D01*
X113501401Y-100122627D01*
X113495000Y-100182155D01*
X113495000Y-100830000D01*
X114411988Y-100830000D01*
X114379075Y-100887007D01*
X114345000Y-101014174D01*
X114345000Y-101145826D01*
X114379075Y-101272993D01*
X114411988Y-101330000D01*
X113495000Y-101330000D01*
X113495000Y-101875500D01*
X113475315Y-101942539D01*
X113422511Y-101988294D01*
X113371000Y-101999500D01*
X110172889Y-101999500D01*
X110105850Y-101979815D01*
X110085208Y-101963181D01*
X109977512Y-101855485D01*
X109977510Y-101855483D01*
X109786433Y-101716657D01*
X109575996Y-101609433D01*
X109351368Y-101536446D01*
X109118097Y-101499500D01*
X109118092Y-101499500D01*
X108881908Y-101499500D01*
X108881903Y-101499500D01*
X108648631Y-101536446D01*
X108424003Y-101609433D01*
X108213566Y-101716657D01*
X108109620Y-101792179D01*
X108022490Y-101855483D01*
X108022488Y-101855485D01*
X108022487Y-101855485D01*
X107855485Y-102022487D01*
X107855485Y-102022488D01*
X107855483Y-102022490D01*
X107799240Y-102099901D01*
X107716657Y-102213566D01*
X107609433Y-102424003D01*
X107536446Y-102648631D01*
X107499500Y-102881902D01*
X107499500Y-103118097D01*
X107536446Y-103351368D01*
X107609433Y-103575996D01*
X107698651Y-103751095D01*
X107716657Y-103786433D01*
X107855483Y-103977510D01*
X108022490Y-104144517D01*
X108213567Y-104283343D01*
X108257665Y-104305812D01*
X108424003Y-104390566D01*
X108424005Y-104390566D01*
X108424008Y-104390568D01*
X108544412Y-104429689D01*
X108648631Y-104463553D01*
X108881903Y-104500500D01*
X108881908Y-104500500D01*
X109118097Y-104500500D01*
X109351368Y-104463553D01*
X109575992Y-104390568D01*
X109786433Y-104283343D01*
X109977510Y-104144517D01*
X110085208Y-104036819D01*
X110146531Y-104003334D01*
X110172889Y-104000500D01*
X113458541Y-104000500D01*
X113525580Y-104020185D01*
X113571335Y-104072989D01*
X113576469Y-104086172D01*
X113593443Y-104138412D01*
X113593445Y-104138417D01*
X113689951Y-104327820D01*
X113814890Y-104499786D01*
X113965213Y-104650109D01*
X114137182Y-104775050D01*
X114145946Y-104779516D01*
X114196742Y-104827491D01*
X114213536Y-104895312D01*
X114190998Y-104961447D01*
X114145946Y-105000484D01*
X114137182Y-105004949D01*
X113961266Y-105132759D01*
X113960635Y-105131891D01*
X113901581Y-105158359D01*
X113884800Y-105159500D01*
X105125783Y-105159500D01*
X105058744Y-105139815D01*
X105038102Y-105123181D01*
X102799824Y-102884904D01*
X102795486Y-102880566D01*
X102795484Y-102880563D01*
X102729928Y-102815007D01*
X102654043Y-102739122D01*
X102654041Y-102739121D01*
X102654035Y-102739115D01*
X102482220Y-102610497D01*
X102482212Y-102610492D01*
X102293842Y-102507634D01*
X102275139Y-102500658D01*
X102218403Y-102479496D01*
X102162471Y-102437625D01*
X102138054Y-102372160D01*
X102152906Y-102303888D01*
X102188774Y-102238201D01*
X102263782Y-102037098D01*
X102304104Y-101851742D01*
X102309405Y-101827372D01*
X102309405Y-101827371D01*
X102309406Y-101827367D01*
X102324718Y-101613278D01*
X102309406Y-101399188D01*
X102306260Y-101384728D01*
X102263784Y-101189465D01*
X102263783Y-101189463D01*
X102263782Y-101189457D01*
X102188774Y-100988354D01*
X102133434Y-100887007D01*
X102085913Y-100799978D01*
X102085908Y-100799970D01*
X101957289Y-100628155D01*
X101957273Y-100628137D01*
X101881397Y-100552261D01*
X101881397Y-100552262D01*
X101815841Y-100486707D01*
X101815841Y-100486706D01*
X101815840Y-100486706D01*
X101776352Y-100447218D01*
X101739978Y-100410843D01*
X101739976Y-100410841D01*
X101739976Y-100410840D01*
X101664102Y-100334966D01*
X101664096Y-100334961D01*
X101664092Y-100334957D01*
X101588162Y-100278116D01*
X101492269Y-100206331D01*
X101492261Y-100206326D01*
X101303891Y-100103468D01*
X101303892Y-100103468D01*
X101186722Y-100059766D01*
X101102783Y-100028458D01*
X101102780Y-100028457D01*
X101102774Y-100028455D01*
X100893057Y-99982834D01*
X100738254Y-99971762D01*
X100672790Y-99947345D01*
X100630919Y-99891411D01*
X100623417Y-99856924D01*
X100618717Y-99791206D01*
X100612346Y-99702128D01*
X100607467Y-99679701D01*
X100566724Y-99492405D01*
X100566723Y-99492403D01*
X100566722Y-99492397D01*
X100491714Y-99291294D01*
X100388850Y-99102913D01*
X100324416Y-99016839D01*
X100260229Y-98931095D01*
X100260213Y-98931077D01*
X100184337Y-98855201D01*
X100184337Y-98855202D01*
X100118781Y-98789647D01*
X100118781Y-98789646D01*
X100118780Y-98789646D01*
X100108473Y-98779339D01*
X100042918Y-98713783D01*
X100042918Y-98713782D01*
X99967042Y-98637906D01*
X99967024Y-98637890D01*
X99795209Y-98509271D01*
X99795201Y-98509266D01*
X99606831Y-98406408D01*
X99606832Y-98406408D01*
X99526384Y-98376402D01*
X99405723Y-98331398D01*
X99405720Y-98331397D01*
X99405714Y-98331395D01*
X99195997Y-98285774D01*
X98981904Y-98270462D01*
X98981902Y-98270462D01*
X98767807Y-98285774D01*
X98558090Y-98331395D01*
X98558082Y-98331398D01*
X98405675Y-98388243D01*
X98335985Y-98393227D01*
X98274662Y-98359742D01*
X98261819Y-98346899D01*
X98228334Y-98285576D01*
X98225500Y-98259218D01*
X98225500Y-97367681D01*
X98225500Y-97367680D01*
X98194954Y-97155229D01*
X98134484Y-96949288D01*
X98134483Y-96949286D01*
X98134482Y-96949282D01*
X98101041Y-96876057D01*
X98091097Y-96806899D01*
X98120122Y-96743343D01*
X98178897Y-96705570D01*
X98250712Y-96684484D01*
X98357681Y-96635632D01*
X98445939Y-96595327D01*
X98445943Y-96595324D01*
X98445951Y-96595321D01*
X98626513Y-96479280D01*
X98788724Y-96338724D01*
X98929280Y-96176513D01*
X99045321Y-95995951D01*
X99045324Y-95995943D01*
X99045327Y-95995939D01*
X99134482Y-95800717D01*
X99134482Y-95800715D01*
X99134484Y-95800712D01*
X99194954Y-95594771D01*
X99225500Y-95382320D01*
X99225500Y-95275003D01*
X99225500Y-95182293D01*
X99225500Y-94976459D01*
X99225500Y-94967680D01*
X99194954Y-94755229D01*
X99134484Y-94549288D01*
X99134483Y-94549286D01*
X99134482Y-94549282D01*
X99045327Y-94354060D01*
X99045318Y-94354044D01*
X98929280Y-94173487D01*
X98929274Y-94173480D01*
X98788725Y-94011276D01*
X98788723Y-94011274D01*
X98626519Y-93870725D01*
X98626512Y-93870719D01*
X98445955Y-93754681D01*
X98445939Y-93754672D01*
X98250718Y-93665518D01*
X98250713Y-93665516D01*
X98250712Y-93665516D01*
X98178898Y-93644429D01*
X98120122Y-93606655D01*
X98091097Y-93543099D01*
X98101041Y-93473941D01*
X98134483Y-93400714D01*
X98144512Y-93366559D01*
X98194954Y-93194771D01*
X98225500Y-92982320D01*
X98225500Y-92875003D01*
X98225500Y-92782293D01*
X98225500Y-92576459D01*
X98225500Y-91626570D01*
X98225500Y-83894141D01*
X98245185Y-83827102D01*
X98297989Y-83781347D01*
X98306149Y-83777966D01*
X98317331Y-83773796D01*
X98432546Y-83687546D01*
X98518796Y-83572331D01*
X98567810Y-83440916D01*
X98609681Y-83384984D01*
X98675145Y-83360566D01*
X98743418Y-83375417D01*
G37*
%TD.AperFunction*%
%TA.AperFunction,Conductor*%
G36*
X105601257Y-55020185D02*
G01*
X105621899Y-55036819D01*
X106348181Y-55763101D01*
X106381666Y-55824424D01*
X106384500Y-55850782D01*
X106384500Y-55969800D01*
X106364815Y-56036839D01*
X106355506Y-56049365D01*
X106229949Y-56222182D01*
X106225484Y-56230946D01*
X106177509Y-56281742D01*
X106109688Y-56298536D01*
X106043553Y-56275998D01*
X106004516Y-56230946D01*
X106000050Y-56222182D01*
X105875109Y-56050213D01*
X105724786Y-55899890D01*
X105552820Y-55774951D01*
X105363414Y-55678444D01*
X105363413Y-55678443D01*
X105363412Y-55678443D01*
X105161243Y-55612754D01*
X105161241Y-55612753D01*
X105161240Y-55612753D01*
X104999957Y-55587208D01*
X104951287Y-55579500D01*
X104738713Y-55579500D01*
X104690042Y-55587208D01*
X104528760Y-55612753D01*
X104326585Y-55678444D01*
X104137179Y-55774951D01*
X103965213Y-55899890D01*
X103814890Y-56050213D01*
X103689949Y-56222182D01*
X103685202Y-56231499D01*
X103637227Y-56282293D01*
X103569405Y-56299087D01*
X103503271Y-56276548D01*
X103464234Y-56231495D01*
X103459626Y-56222452D01*
X103420270Y-56168282D01*
X103420269Y-56168282D01*
X102787962Y-56800590D01*
X102770925Y-56737007D01*
X102705099Y-56622993D01*
X102612007Y-56529901D01*
X102497993Y-56464075D01*
X102434409Y-56447037D01*
X103066716Y-55814728D01*
X103012550Y-55775375D01*
X102823217Y-55678904D01*
X102621129Y-55613242D01*
X102411246Y-55580000D01*
X102198754Y-55580000D01*
X101988872Y-55613242D01*
X101988869Y-55613242D01*
X101786782Y-55678904D01*
X101597439Y-55775380D01*
X101543282Y-55814727D01*
X101543282Y-55814728D01*
X102175591Y-56447037D01*
X102112007Y-56464075D01*
X101997993Y-56529901D01*
X101904901Y-56622993D01*
X101839075Y-56737007D01*
X101822037Y-56800591D01*
X101189728Y-56168282D01*
X101189727Y-56168282D01*
X101150380Y-56222440D01*
X101150376Y-56222446D01*
X101145760Y-56231505D01*
X101097781Y-56282297D01*
X101029959Y-56299087D01*
X100963826Y-56276543D01*
X100924794Y-56231493D01*
X100920051Y-56222184D01*
X100920049Y-56222181D01*
X100920048Y-56222179D01*
X100792241Y-56046266D01*
X100793108Y-56045635D01*
X100766641Y-55986581D01*
X100765500Y-55969800D01*
X100765500Y-55200782D01*
X100785185Y-55133743D01*
X100801819Y-55113101D01*
X100878101Y-55036819D01*
X100939424Y-55003334D01*
X100965782Y-55000500D01*
X105534218Y-55000500D01*
X105601257Y-55020185D01*
G37*
%TD.AperFunction*%
%TD*%
M02*
