%TF.GenerationSoftware,KiCad,Pcbnew,10.0.0*%
%TF.CreationDate,2026-04-15T17:32:45+05:30*%
%TF.ProjectId,ESP32_Smart_Motor_Project,45535033-325f-4536-9d61-72745f4d6f74,rev?*%
%TF.SameCoordinates,Original*%
%TF.FileFunction,Soldermask,Bot*%
%TF.FilePolarity,Negative*%
%FSLAX46Y46*%
G04 Gerber Fmt 4.6, Leading zero omitted, Abs format (unit mm)*
G04 Created by KiCad (PCBNEW 10.0.0) date 2026-04-15 17:32:45*
%MOMM*%
%LPD*%
G01*
G04 APERTURE LIST*
%ADD10C,1.700000*%
%ADD11C,1.600000*%
%ADD12R,2.000000X1.905000*%
%ADD13O,2.000000X1.905000*%
%ADD14R,1.700000X1.700000*%
%ADD15R,2.000000X2.000000*%
%ADD16C,2.000000*%
G04 APERTURE END LIST*
D10*
%TO.C,T1*%
X127935000Y-134105000D03*
X125395000Y-134105000D03*
X122855000Y-134105000D03*
%TD*%
%TO.C,R5*%
X175385000Y-35980000D03*
X172845000Y-35980000D03*
X170305000Y-35980000D03*
%TD*%
D11*
%TO.C,R4*%
X165045000Y-121580000D03*
X157425000Y-121580000D03*
%TD*%
%TO.C,R3*%
X165045000Y-125630000D03*
X157425000Y-125630000D03*
%TD*%
%TO.C,R2*%
X129655000Y-140980000D03*
X122035000Y-140980000D03*
%TD*%
D12*
%TO.C,Q1*%
X170895000Y-125940000D03*
D13*
X170895000Y-128480000D03*
X170895000Y-131020000D03*
%TD*%
D10*
%TO.C,P2*%
X61805000Y-75980000D03*
X64345000Y-75980000D03*
X66885000Y-75980000D03*
%TD*%
D14*
%TO.C,P1*%
X139585000Y-119980000D03*
D10*
X137045000Y-119980000D03*
X134505000Y-119980000D03*
X131965000Y-119980000D03*
%TD*%
D14*
%TO.C,M3*%
X114845000Y-101080000D03*
D10*
X114845000Y-103620000D03*
X114845000Y-106160000D03*
X114845000Y-108700000D03*
X114845000Y-111240000D03*
X114845000Y-113780000D03*
X114845000Y-116320000D03*
X114845000Y-118860000D03*
X114845000Y-121400000D03*
X114845000Y-123940000D03*
X114845000Y-126480000D03*
X114845000Y-129020000D03*
X114845000Y-131560000D03*
X114845000Y-134100000D03*
X114845000Y-136640000D03*
X114845000Y-139180000D03*
X114845000Y-141720000D03*
X114845000Y-144260000D03*
X114845000Y-146800000D03*
D14*
X89015000Y-101085000D03*
D10*
X89015000Y-103625000D03*
X89015000Y-106165000D03*
X89015000Y-108705000D03*
X89015000Y-111245000D03*
X89015000Y-113785000D03*
X89015000Y-116325000D03*
X89015000Y-118865000D03*
X89015000Y-121405000D03*
X89015000Y-123945000D03*
X89015000Y-126485000D03*
X89015000Y-129025000D03*
X89015000Y-131565000D03*
X89015000Y-134105000D03*
X89015000Y-136645000D03*
X89015000Y-139185000D03*
X89015000Y-141725000D03*
X89015000Y-144265000D03*
X89015000Y-146805000D03*
%TD*%
D14*
%TO.C,L1*%
X157500000Y-102500000D03*
D10*
X160040000Y-102500000D03*
X162580000Y-102500000D03*
X165120000Y-102500000D03*
X167660000Y-102500000D03*
X170200000Y-102500000D03*
D14*
X157500000Y-113750000D03*
D10*
X160040000Y-113750000D03*
X162580000Y-113750000D03*
X165120000Y-113750000D03*
X167660000Y-113750000D03*
X170200000Y-113750000D03*
%TD*%
%TO.C,H1*%
X139805000Y-138980000D03*
X142345000Y-138980000D03*
X144885000Y-138980000D03*
%TD*%
%TO.C,D1*%
X53565000Y-148980000D03*
X56105000Y-148980000D03*
X58645000Y-148980000D03*
X61185000Y-148980000D03*
X63725000Y-148980000D03*
X66265000Y-148980000D03*
X68805000Y-148980000D03*
D14*
X71345000Y-148980000D03*
%TD*%
D15*
%TO.C,B1*%
X155500000Y-139000000D03*
D16*
X163100000Y-139000000D03*
%TD*%
D14*
%TO.C,A1*%
X97225000Y-56930000D03*
D10*
X99765000Y-56930000D03*
X102305000Y-56930000D03*
X104845000Y-56930000D03*
X107385000Y-56930000D03*
D14*
X97225000Y-82480000D03*
D10*
X99765000Y-82480000D03*
X102305000Y-82480000D03*
X104845000Y-82480000D03*
X107385000Y-82480000D03*
%TD*%
M02*
