M48
; DRILL file KiCad 10.0.0 date 2026-04-15T17:32:45
; FORMAT={-:-/ absolute / inch / decimal}
; #@! TF.CreationDate,2026-04-15T17:32:45+05:30
; #@! TF.GenerationSoftware,Kicad,Pcbnew,10.0.0
; #@! TF.FileFunction,Plated,1,2,PTH
FMAT,2
INCH
; #@! TA.AperFunction,Plated,PTH,ComponentDrill
T1C0.0315
; #@! TA.AperFunction,Plated,PTH,ViaDrill
T2C0.0394
; #@! TA.AperFunction,Plated,PTH,ComponentDrill
T3C0.0394
; #@! TA.AperFunction,Plated,PTH,ComponentDrill
T4C0.0433
%
G90
G05
T1
X4.8045Y-5.5504
X5.1045Y-5.5504
X6.1978Y-4.7866
X6.1978Y-4.9461
X6.4978Y-4.7866
X6.4978Y-4.9461
T2
X2.4213Y-5.2756
X2.4409Y-5.6102
X3.1102Y-4.8425
X3.3661Y-4.8425
X3.7598Y-4.8622
X3.9961Y-4.3898
X4.0157Y-3.6811
X4.2323Y-3.4646
X4.2913Y-4.0551
X4.2913Y-4.8622
X4.7244Y-5.3937
X4.7441Y-4.7441
X4.9057Y-4.8819
X4.9409Y-4.5669
X5.1969Y-5.1772
X5.1969Y-5.3937
X5.748Y-4.5472
X5.748Y-4.6457
X5.8465Y-4.0551
X5.8661Y-4.8031
X6.063Y-4.8622
X6.063Y-5.1575
X6.752Y-4.2126
T3
X2.1089Y-5.8654
X2.2089Y-5.8654
X2.3089Y-5.8654
X2.4089Y-5.8654
X2.4333Y-2.9913
X2.5089Y-5.8654
X2.5333Y-2.9913
X2.6089Y-5.8654
X2.6333Y-2.9913
X2.7089Y-5.8654
X2.8089Y-5.8654
X3.5045Y-3.9797
X3.5045Y-4.0797
X3.5045Y-4.1797
X3.5045Y-4.2797
X3.5045Y-4.3797
X3.5045Y-4.4797
X3.5045Y-4.5797
X3.5045Y-4.6797
X3.5045Y-4.7797
X3.5045Y-4.8797
X3.5045Y-4.9797
X3.5045Y-5.0797
X3.5045Y-5.1797
X3.5045Y-5.2797
X3.5045Y-5.3797
X3.5045Y-5.4797
X3.5045Y-5.5797
X3.5045Y-5.6797
X3.5045Y-5.7797
X3.8278Y-2.2413
X3.8278Y-3.2472
X3.9278Y-2.2413
X3.9278Y-3.2472
X4.0278Y-2.2413
X4.0278Y-3.2472
X4.1278Y-2.2413
X4.1278Y-3.2472
X4.2278Y-2.2413
X4.2278Y-3.2472
X4.5215Y-3.9795
X4.5215Y-4.0795
X4.5215Y-4.1795
X4.5215Y-4.2795
X4.5215Y-4.3795
X4.5215Y-4.4795
X4.5215Y-4.5795
X4.5215Y-4.6795
X4.5215Y-4.7795
X4.5215Y-4.8795
X4.5215Y-4.9795
X4.5215Y-5.0795
X4.5215Y-5.1795
X4.5215Y-5.2795
X4.5215Y-5.3795
X4.5215Y-5.4795
X4.5215Y-5.5795
X4.5215Y-5.6795
X4.5215Y-5.7795
X4.8368Y-5.2797
X4.9368Y-5.2797
X5.0368Y-5.2797
X5.1955Y-4.7236
X5.2955Y-4.7236
X5.3955Y-4.7236
X5.4955Y-4.7236
X5.5041Y-5.4717
X5.6041Y-5.4717
X5.7041Y-5.4717
X6.122Y-5.4724
X6.2008Y-4.0354
X6.2008Y-4.4783
X6.3008Y-4.0354
X6.3008Y-4.4783
X6.4008Y-4.0354
X6.4008Y-4.4783
X6.4213Y-5.4724
X6.5008Y-4.0354
X6.5008Y-4.4783
X6.6008Y-4.0354
X6.6008Y-4.4783
X6.7008Y-4.0354
X6.7008Y-4.4783
X6.7049Y-1.4165
X6.8049Y-1.4165
X6.9049Y-1.4165
T4
X6.7281Y-4.9583
X6.7281Y-5.0583
X6.7281Y-5.1583
M30
